G75*
%MOIN*%
%OFA0B0*%
%FSLAX25Y25*%
%IPPOS*%
%LPD*%
%AMOC8*
5,1,8,0,0,1.08239X$1,22.5*
%
%ADD10R,0.19685X0.19685*%
%ADD11R,0.03937X0.04331*%
%ADD12R,0.04331X0.03937*%
%ADD13R,0.05906X0.05118*%
%ADD14R,0.05800X0.01400*%
%ADD15R,0.03150X0.03150*%
%ADD16R,0.05118X0.06102*%
%ADD17R,0.03740X0.05315*%
%ADD18R,0.09843X0.10039*%
D10*
X0276345Y0100552D03*
D11*
X0261478Y0120306D03*
X0254785Y0120306D03*
X0297285Y0067181D03*
X0303978Y0067181D03*
X0159094Y0097695D03*
X0159094Y0104388D03*
D12*
X0268132Y0078028D03*
X0276257Y0078028D03*
X0276257Y0071335D03*
X0268132Y0071335D03*
X0285400Y0071335D03*
X0285400Y0078028D03*
X0297285Y0075931D03*
X0303978Y0075931D03*
D13*
X0290007Y0060921D03*
X0290007Y0053441D03*
D14*
X0114757Y0103806D03*
X0114757Y0106406D03*
X0114757Y0109006D03*
X0114757Y0111506D03*
X0114757Y0114106D03*
X0114757Y0116606D03*
X0114757Y0119206D03*
X0114757Y0121806D03*
X0137757Y0121806D03*
X0137757Y0119206D03*
X0137757Y0116606D03*
X0137757Y0114106D03*
X0137757Y0111506D03*
X0137757Y0109006D03*
X0137757Y0106406D03*
X0137757Y0103806D03*
D15*
X0255179Y0103431D03*
X0261084Y0103431D03*
X0261084Y0111556D03*
X0255179Y0111556D03*
D16*
X0220115Y0102781D03*
X0202398Y0102781D03*
X0202398Y0134081D03*
X0220115Y0134081D03*
D17*
X0242457Y0094755D03*
X0255056Y0094755D03*
X0255056Y0075857D03*
X0242457Y0075857D03*
D18*
X0174160Y0144145D03*
X0174160Y0164027D03*
M02*
