G75*
%MOIN*%
%OFA0B0*%
%FSLAX25Y25*%
%IPPOS*%
%LPD*%
%AMOC8*
5,1,8,0,0,1.08239X$1,22.5*
%
%ADD10C,0.08668*%
%ADD11R,0.03943X0.12211*%
%ADD12R,0.12211X0.03943*%
%ADD13R,0.20085X0.20085*%
%ADD14R,0.04762X0.04762*%
%ADD15C,0.04762*%
%ADD16R,0.04337X0.04731*%
%ADD17R,0.04140X0.05715*%
%ADD18C,0.08116*%
%ADD19R,0.05199X0.09199*%
%ADD20R,0.14573X0.09061*%
D10*
X0060381Y0048180D03*
X0060381Y0170227D03*
X0300538Y0170227D03*
X0300538Y0048180D03*
D11*
X0300912Y0069056D03*
X0295912Y0069056D03*
X0290912Y0069056D03*
X0285912Y0069056D03*
X0280912Y0069056D03*
X0275912Y0069056D03*
X0270912Y0069056D03*
X0265912Y0069056D03*
X0260912Y0069056D03*
X0255912Y0069056D03*
X0250912Y0069056D03*
X0245912Y0069056D03*
X0240912Y0069056D03*
X0305912Y0069056D03*
X0305912Y0139922D03*
X0300912Y0139922D03*
X0295912Y0139922D03*
X0290912Y0139922D03*
X0285912Y0139922D03*
X0280912Y0139922D03*
X0275912Y0139922D03*
X0270912Y0139922D03*
X0265912Y0139922D03*
X0260912Y0139922D03*
X0255912Y0139922D03*
X0250912Y0139922D03*
X0245912Y0139922D03*
X0240912Y0139922D03*
D12*
X0235007Y0126989D03*
X0235007Y0121989D03*
X0235007Y0116989D03*
X0235007Y0111989D03*
X0235007Y0106989D03*
X0235007Y0101989D03*
X0235007Y0096989D03*
X0235007Y0091989D03*
X0235007Y0086989D03*
X0235007Y0081989D03*
D13*
X0276345Y0100552D03*
D14*
X0274810Y0052806D03*
X0230513Y0052806D03*
X0196178Y0052826D03*
X0147826Y0050989D03*
X0126026Y0050989D03*
X0104226Y0050989D03*
X0082426Y0050989D03*
X0205046Y0159056D03*
X0229500Y0159056D03*
X0263914Y0159036D03*
X0144787Y0167749D03*
X0122362Y0167749D03*
X0100562Y0167749D03*
X0078137Y0167749D03*
D15*
X0078176Y0162827D03*
X0078157Y0157906D03*
X0078157Y0152985D03*
X0078157Y0148064D03*
X0100582Y0148064D03*
X0100582Y0152985D03*
X0100582Y0157906D03*
X0100601Y0162827D03*
X0122401Y0162827D03*
X0122382Y0157906D03*
X0122382Y0152985D03*
X0122382Y0148064D03*
X0144807Y0148064D03*
X0144807Y0152985D03*
X0144807Y0157906D03*
X0144826Y0162827D03*
X0209967Y0159056D03*
X0234421Y0159056D03*
X0239342Y0159056D03*
X0244263Y0159056D03*
X0268835Y0159076D03*
X0273757Y0159056D03*
X0278678Y0159056D03*
X0283599Y0159056D03*
X0147807Y0070674D03*
X0147807Y0065752D03*
X0147807Y0060831D03*
X0147787Y0055910D03*
X0125987Y0055910D03*
X0126007Y0060831D03*
X0126007Y0065752D03*
X0126007Y0070674D03*
X0104207Y0070674D03*
X0104207Y0065752D03*
X0104207Y0060831D03*
X0104187Y0055910D03*
X0082387Y0055910D03*
X0082407Y0060831D03*
X0082407Y0065752D03*
X0082407Y0070674D03*
X0186335Y0052806D03*
X0191257Y0052786D03*
X0215750Y0052806D03*
X0220671Y0052806D03*
X0225592Y0052806D03*
X0250203Y0052806D03*
X0255125Y0052806D03*
X0260046Y0052806D03*
X0264967Y0052806D03*
X0269888Y0052806D03*
D16*
X0217728Y0068431D03*
X0211035Y0068431D03*
X0211035Y0077806D03*
X0217728Y0077806D03*
D17*
X0186478Y0100085D03*
X0173880Y0100085D03*
X0173880Y0118982D03*
X0186478Y0118982D03*
D18*
X0298757Y0155931D03*
D19*
X0192860Y0145364D03*
X0183761Y0145364D03*
X0174663Y0145364D03*
D20*
X0183761Y0169766D03*
M02*
