G75*
%MOIN*%
%OFA0B0*%
%FSLAX25Y25*%
%IPPOS*%
%LPD*%
%AMOC8*
5,1,8,0,0,1.08239X$1,22.5*
%
%ADD10R,0.19685X0.19685*%
%ADD11R,0.04362X0.04362*%
%ADD12C,0.04362*%
%ADD13R,0.03937X0.04331*%
%ADD14R,0.04331X0.03937*%
%ADD15R,0.05906X0.05118*%
%ADD16R,0.05800X0.01400*%
%ADD17R,0.03150X0.03150*%
%ADD18R,0.05118X0.06102*%
%ADD19R,0.03740X0.05315*%
%ADD20C,0.03937*%
%ADD21R,0.09843X0.10039*%
%ADD22C,0.00800*%
%ADD23C,0.02381*%
%ADD24C,0.02578*%
%ADD25C,0.01600*%
%ADD26C,0.00787*%
D10*
X0276345Y0100552D03*
D11*
X0274810Y0052806D03*
X0230513Y0052806D03*
X0196178Y0052826D03*
X0147826Y0050989D03*
X0126026Y0050989D03*
X0104226Y0050989D03*
X0082426Y0050989D03*
X0205046Y0159056D03*
X0229500Y0159056D03*
X0263914Y0159036D03*
X0144787Y0167749D03*
X0122362Y0167749D03*
X0100562Y0167749D03*
X0078137Y0167749D03*
D12*
X0078176Y0162827D03*
X0078157Y0157906D03*
X0078157Y0152985D03*
X0078157Y0148064D03*
X0100582Y0148064D03*
X0100582Y0152985D03*
X0100582Y0157906D03*
X0100601Y0162827D03*
X0122401Y0162827D03*
X0122382Y0157906D03*
X0122382Y0152985D03*
X0122382Y0148064D03*
X0144807Y0148064D03*
X0144807Y0152985D03*
X0144807Y0157906D03*
X0144826Y0162827D03*
X0209967Y0159056D03*
X0234421Y0159056D03*
X0239342Y0159056D03*
X0244263Y0159056D03*
X0268835Y0159076D03*
X0273757Y0159056D03*
X0278678Y0159056D03*
X0283599Y0159056D03*
X0147807Y0070674D03*
X0147807Y0065752D03*
X0147807Y0060831D03*
X0147787Y0055910D03*
X0125987Y0055910D03*
X0126007Y0060831D03*
X0126007Y0065752D03*
X0126007Y0070674D03*
X0104207Y0070674D03*
X0104207Y0065752D03*
X0104207Y0060831D03*
X0104187Y0055910D03*
X0082387Y0055910D03*
X0082407Y0060831D03*
X0082407Y0065752D03*
X0082407Y0070674D03*
X0186335Y0052806D03*
X0191257Y0052786D03*
X0215750Y0052806D03*
X0220671Y0052806D03*
X0225592Y0052806D03*
X0250203Y0052806D03*
X0255125Y0052806D03*
X0260046Y0052806D03*
X0264967Y0052806D03*
X0269888Y0052806D03*
D13*
X0297285Y0067181D03*
X0303978Y0067181D03*
X0261478Y0120306D03*
X0254785Y0120306D03*
X0159094Y0104388D03*
X0159094Y0097695D03*
D14*
X0268132Y0078028D03*
X0276257Y0078028D03*
X0276257Y0071335D03*
X0268132Y0071335D03*
X0285400Y0071335D03*
X0285400Y0078028D03*
X0297285Y0075931D03*
X0303978Y0075931D03*
D15*
X0290007Y0060921D03*
X0290007Y0053441D03*
D16*
X0137757Y0103806D03*
X0137757Y0106406D03*
X0137757Y0109006D03*
X0137757Y0111506D03*
X0137757Y0114106D03*
X0137757Y0116606D03*
X0137757Y0119206D03*
X0137757Y0121806D03*
X0114757Y0121806D03*
X0114757Y0119206D03*
X0114757Y0116606D03*
X0114757Y0114106D03*
X0114757Y0111506D03*
X0114757Y0109006D03*
X0114757Y0106406D03*
X0114757Y0103806D03*
D17*
X0255179Y0103431D03*
X0261084Y0103431D03*
X0261084Y0111556D03*
X0255179Y0111556D03*
D18*
X0220115Y0102781D03*
X0202398Y0102781D03*
X0202398Y0134081D03*
X0220115Y0134081D03*
D19*
X0242457Y0094755D03*
X0255056Y0094755D03*
X0255056Y0075857D03*
X0242457Y0075857D03*
D20*
X0298757Y0155931D03*
D21*
X0174160Y0164027D03*
X0174160Y0144145D03*
D22*
X0053907Y0176701D02*
X0053907Y0041706D01*
X0307012Y0041706D01*
X0307012Y0072851D01*
X0307003Y0072842D01*
X0306684Y0072658D01*
X0306328Y0072563D01*
X0304378Y0072563D01*
X0304378Y0075531D01*
X0303578Y0075531D01*
X0303578Y0072563D01*
X0301628Y0072563D01*
X0301272Y0072658D01*
X0300953Y0072842D01*
X0300692Y0073103D01*
X0300508Y0073422D01*
X0300450Y0073637D01*
X0300450Y0073548D01*
X0299865Y0072963D01*
X0298679Y0072963D01*
X0298679Y0070346D01*
X0299668Y0070346D01*
X0300254Y0069761D01*
X0300254Y0064602D01*
X0299668Y0064016D01*
X0294902Y0064016D01*
X0294317Y0064602D01*
X0294317Y0069761D01*
X0294902Y0070346D01*
X0295891Y0070346D01*
X0295891Y0072963D01*
X0294706Y0072963D01*
X0294120Y0073548D01*
X0294120Y0076946D01*
X0293414Y0076241D01*
X0291599Y0076241D01*
X0291100Y0076739D01*
X0290289Y0075928D01*
X0288566Y0075928D01*
X0288566Y0075645D01*
X0287980Y0075059D01*
X0282821Y0075059D01*
X0282235Y0075645D01*
X0282235Y0076937D01*
X0282025Y0076727D01*
X0282025Y0072229D01*
X0281209Y0071412D01*
X0279737Y0069941D01*
X0279422Y0069941D01*
X0279422Y0068952D01*
X0278836Y0068366D01*
X0277650Y0068366D01*
X0277650Y0057229D01*
X0276809Y0056387D01*
X0277175Y0056387D01*
X0277531Y0056292D01*
X0277850Y0056107D01*
X0278111Y0055847D01*
X0278295Y0055528D01*
X0278391Y0055172D01*
X0278391Y0052997D01*
X0275000Y0052997D01*
X0275000Y0052616D01*
X0278391Y0052616D01*
X0278391Y0050441D01*
X0278295Y0050085D01*
X0278111Y0049765D01*
X0277850Y0049505D01*
X0277531Y0049320D01*
X0277175Y0049225D01*
X0275000Y0049225D01*
X0275000Y0052615D01*
X0274619Y0052615D01*
X0274619Y0049225D01*
X0272444Y0049225D01*
X0272088Y0049320D01*
X0271769Y0049505D01*
X0271508Y0049765D01*
X0271383Y0049982D01*
X0270521Y0049625D01*
X0269256Y0049625D01*
X0268086Y0050109D01*
X0267428Y0050768D01*
X0266769Y0050109D01*
X0265600Y0049625D01*
X0264334Y0049625D01*
X0263165Y0050109D01*
X0262507Y0050768D01*
X0261848Y0050109D01*
X0260679Y0049625D01*
X0259413Y0049625D01*
X0258244Y0050109D01*
X0257585Y0050768D01*
X0256927Y0050109D01*
X0255757Y0049625D01*
X0254492Y0049625D01*
X0253323Y0050109D01*
X0252664Y0050768D01*
X0252005Y0050109D01*
X0252003Y0050108D01*
X0252003Y0050048D01*
X0253646Y0048405D01*
X0278308Y0048405D01*
X0281957Y0052054D01*
X0281957Y0059802D01*
X0283822Y0061667D01*
X0284876Y0062721D01*
X0286054Y0062721D01*
X0286054Y0063895D01*
X0286640Y0064480D01*
X0288207Y0064480D01*
X0288207Y0064964D01*
X0284804Y0068366D01*
X0282821Y0068366D01*
X0282235Y0068952D01*
X0282235Y0073717D01*
X0282821Y0074303D01*
X0287980Y0074303D01*
X0288566Y0073717D01*
X0288566Y0069696D01*
X0290752Y0067510D01*
X0290752Y0067510D01*
X0291807Y0066455D01*
X0291807Y0064480D01*
X0293374Y0064480D01*
X0293959Y0063895D01*
X0293959Y0062721D01*
X0299324Y0062721D01*
X0299724Y0063122D01*
X0300277Y0063122D01*
X0301383Y0064228D01*
X0301010Y0064602D01*
X0301010Y0069761D01*
X0301595Y0070346D01*
X0306361Y0070346D01*
X0306947Y0069761D01*
X0306947Y0064602D01*
X0306361Y0064016D01*
X0305778Y0064016D01*
X0305778Y0063532D01*
X0302822Y0060576D01*
X0302822Y0060024D01*
X0301539Y0058741D01*
X0299724Y0058741D01*
X0299343Y0059121D01*
X0293959Y0059121D01*
X0293959Y0057948D01*
X0293374Y0057362D01*
X0293285Y0057362D01*
X0293500Y0057305D01*
X0293819Y0057120D01*
X0294080Y0056860D01*
X0294264Y0056540D01*
X0294359Y0056184D01*
X0294359Y0053841D01*
X0290407Y0053841D01*
X0290407Y0053041D01*
X0294359Y0053041D01*
X0294359Y0050698D01*
X0294264Y0050341D01*
X0294080Y0050022D01*
X0293819Y0049762D01*
X0293500Y0049577D01*
X0293144Y0049482D01*
X0290407Y0049482D01*
X0290407Y0053041D01*
X0289607Y0053041D01*
X0289607Y0049482D01*
X0286869Y0049482D01*
X0286513Y0049577D01*
X0286194Y0049762D01*
X0285934Y0050022D01*
X0285749Y0050341D01*
X0285654Y0050698D01*
X0285654Y0053041D01*
X0289607Y0053041D01*
X0289607Y0053841D01*
X0285654Y0053841D01*
X0285654Y0056184D01*
X0285749Y0056540D01*
X0285934Y0056860D01*
X0286194Y0057120D01*
X0286513Y0057305D01*
X0286729Y0057362D01*
X0286640Y0057362D01*
X0286054Y0057948D01*
X0286054Y0058808D01*
X0285557Y0058311D01*
X0285557Y0050563D01*
X0284502Y0049509D01*
X0279799Y0044805D01*
X0252155Y0044805D01*
X0249458Y0047502D01*
X0248403Y0048557D01*
X0248403Y0050108D01*
X0248401Y0050109D01*
X0247507Y0051004D01*
X0247022Y0052173D01*
X0247022Y0053439D01*
X0247484Y0054554D01*
X0244532Y0051601D01*
X0244532Y0047226D01*
X0243711Y0046406D01*
X0241836Y0044531D01*
X0228802Y0044531D01*
X0228795Y0044537D01*
X0222554Y0044537D01*
X0220054Y0047037D01*
X0219238Y0047854D01*
X0219238Y0049956D01*
X0218869Y0050109D01*
X0218210Y0050768D01*
X0217552Y0050109D01*
X0217550Y0050108D01*
X0217550Y0047804D01*
X0215557Y0045811D01*
X0214502Y0044756D01*
X0192386Y0044756D01*
X0191332Y0045811D01*
X0190511Y0046631D01*
X0189457Y0047686D01*
X0189457Y0050089D01*
X0189455Y0050090D01*
X0188786Y0050758D01*
X0188137Y0050109D01*
X0186968Y0049625D01*
X0185703Y0049625D01*
X0184533Y0050109D01*
X0183638Y0051004D01*
X0183154Y0052173D01*
X0183154Y0053439D01*
X0183638Y0054608D01*
X0184533Y0055503D01*
X0184535Y0055504D01*
X0184535Y0078232D01*
X0180902Y0081866D01*
X0180349Y0081866D01*
X0179066Y0083149D01*
X0179066Y0084963D01*
X0180349Y0086247D01*
X0182164Y0086247D01*
X0183447Y0084963D01*
X0183447Y0084411D01*
X0187081Y0080777D01*
X0188135Y0079723D01*
X0188135Y0055504D01*
X0188137Y0055503D01*
X0188806Y0054834D01*
X0189455Y0055483D01*
X0189457Y0055484D01*
X0189457Y0085811D01*
X0189027Y0086241D01*
X0188474Y0086241D01*
X0187191Y0087524D01*
X0187191Y0089338D01*
X0188474Y0090622D01*
X0190289Y0090622D01*
X0191572Y0089338D01*
X0191572Y0088786D01*
X0192002Y0088356D01*
X0193057Y0087302D01*
X0193057Y0077731D01*
X0239587Y0077731D01*
X0239587Y0078929D01*
X0240173Y0079515D01*
X0244742Y0079515D01*
X0245327Y0078929D01*
X0245327Y0072786D01*
X0244742Y0072200D01*
X0240173Y0072200D01*
X0239587Y0072786D01*
X0239587Y0074131D01*
X0193057Y0074131D01*
X0193057Y0056047D01*
X0193137Y0056127D01*
X0193456Y0056311D01*
X0193812Y0056407D01*
X0195987Y0056407D01*
X0195987Y0053016D01*
X0196368Y0053016D01*
X0196368Y0056407D01*
X0198543Y0056407D01*
X0198899Y0056311D01*
X0199219Y0056127D01*
X0199479Y0055866D01*
X0199663Y0055547D01*
X0199759Y0055191D01*
X0199759Y0053016D01*
X0196368Y0053016D01*
X0196368Y0052635D01*
X0196368Y0049245D01*
X0198543Y0049245D01*
X0198899Y0049340D01*
X0199219Y0049524D01*
X0199479Y0049785D01*
X0199663Y0050104D01*
X0199759Y0050460D01*
X0199759Y0052635D01*
X0196368Y0052635D01*
X0195987Y0052635D01*
X0195987Y0049245D01*
X0193812Y0049245D01*
X0193456Y0049340D01*
X0193137Y0049524D01*
X0193057Y0049605D01*
X0193057Y0049177D01*
X0193877Y0048356D01*
X0213011Y0048356D01*
X0213950Y0049295D01*
X0213950Y0050108D01*
X0213948Y0050109D01*
X0213053Y0051004D01*
X0212569Y0052173D01*
X0212569Y0053439D01*
X0213053Y0054608D01*
X0213948Y0055503D01*
X0215117Y0055987D01*
X0216382Y0055987D01*
X0217552Y0055503D01*
X0218210Y0054844D01*
X0218869Y0055503D01*
X0220038Y0055987D01*
X0221304Y0055987D01*
X0222473Y0055503D01*
X0223132Y0054844D01*
X0223790Y0055503D01*
X0224959Y0055987D01*
X0226225Y0055987D01*
X0227087Y0055630D01*
X0227212Y0055847D01*
X0227473Y0056107D01*
X0227792Y0056292D01*
X0228148Y0056387D01*
X0230323Y0056387D01*
X0230323Y0052997D01*
X0230704Y0052997D01*
X0230704Y0056387D01*
X0232879Y0056387D01*
X0233235Y0056292D01*
X0233554Y0056107D01*
X0233815Y0055847D01*
X0233999Y0055528D01*
X0234095Y0055172D01*
X0234095Y0052997D01*
X0230704Y0052997D01*
X0230704Y0052616D01*
X0234095Y0052616D01*
X0234095Y0050441D01*
X0233999Y0050085D01*
X0233815Y0049765D01*
X0233554Y0049505D01*
X0233235Y0049320D01*
X0232879Y0049225D01*
X0230704Y0049225D01*
X0230704Y0052615D01*
X0230323Y0052615D01*
X0230323Y0049225D01*
X0228148Y0049225D01*
X0228026Y0049258D01*
X0228084Y0049200D01*
X0232545Y0049200D01*
X0232552Y0049206D01*
X0239795Y0049206D01*
X0239795Y0053324D01*
X0251971Y0065501D01*
X0253131Y0065501D01*
X0253137Y0065495D01*
X0266738Y0065495D01*
X0266738Y0068366D01*
X0265552Y0068366D01*
X0264966Y0068952D01*
X0264966Y0073717D01*
X0265552Y0074303D01*
X0270711Y0074303D01*
X0271297Y0073717D01*
X0271297Y0068952D01*
X0270711Y0068366D01*
X0269525Y0068366D01*
X0269525Y0065495D01*
X0272414Y0065495D01*
X0274162Y0063747D01*
X0274664Y0063747D01*
X0274863Y0063548D01*
X0274863Y0068366D01*
X0273677Y0068366D01*
X0273091Y0068952D01*
X0273091Y0073717D01*
X0273677Y0074303D01*
X0278836Y0074303D01*
X0279238Y0073901D01*
X0279238Y0075461D01*
X0278836Y0075059D01*
X0273677Y0075059D01*
X0273091Y0075645D01*
X0273091Y0080410D01*
X0273677Y0080996D01*
X0274863Y0080996D01*
X0274863Y0083479D01*
X0273492Y0084850D01*
X0270322Y0084850D01*
X0270322Y0083149D01*
X0269932Y0082758D01*
X0269932Y0080996D01*
X0270711Y0080996D01*
X0271297Y0080410D01*
X0271297Y0075645D01*
X0270711Y0075059D01*
X0265552Y0075059D01*
X0264966Y0075645D01*
X0264966Y0080410D01*
X0265552Y0080996D01*
X0266332Y0080996D01*
X0266332Y0082758D01*
X0265941Y0083149D01*
X0265941Y0084850D01*
X0262867Y0084850D01*
X0259863Y0087854D01*
X0259863Y0100856D01*
X0259095Y0100856D01*
X0258510Y0101442D01*
X0258510Y0105420D01*
X0259095Y0106006D01*
X0262988Y0106006D01*
X0262988Y0108981D01*
X0259095Y0108981D01*
X0258510Y0109567D01*
X0258510Y0113545D01*
X0258877Y0113912D01*
X0257919Y0113912D01*
X0258058Y0113671D01*
X0258154Y0113315D01*
X0258154Y0111944D01*
X0255566Y0111944D01*
X0254791Y0111944D01*
X0254791Y0114531D01*
X0253420Y0114531D01*
X0253064Y0114435D01*
X0252744Y0114251D01*
X0252484Y0113991D01*
X0252299Y0113671D01*
X0252204Y0113315D01*
X0252204Y0111944D01*
X0254791Y0111944D01*
X0254791Y0111169D01*
X0252204Y0111169D01*
X0252204Y0109797D01*
X0252299Y0109441D01*
X0252484Y0109122D01*
X0252744Y0108861D01*
X0253064Y0108677D01*
X0253420Y0108581D01*
X0254791Y0108581D01*
X0254791Y0111169D01*
X0255566Y0111169D01*
X0255566Y0111944D01*
X0255566Y0114025D01*
X0254429Y0115162D01*
X0253613Y0115979D01*
X0253613Y0117141D01*
X0252402Y0117141D01*
X0251817Y0117727D01*
X0251817Y0122645D01*
X0242650Y0113479D01*
X0241834Y0112662D01*
X0159334Y0112662D01*
X0149900Y0103229D01*
X0149084Y0102412D01*
X0141377Y0102412D01*
X0141071Y0102106D01*
X0134442Y0102106D01*
X0133857Y0102692D01*
X0133857Y0104920D01*
X0134042Y0105106D01*
X0133857Y0105292D01*
X0133857Y0107520D01*
X0134042Y0107706D01*
X0133857Y0107892D01*
X0133857Y0110120D01*
X0133992Y0110256D01*
X0133857Y0110392D01*
X0133857Y0112426D01*
X0133736Y0112546D01*
X0133552Y0112866D01*
X0133457Y0113222D01*
X0133457Y0114106D01*
X0137756Y0114106D01*
X0137756Y0114106D01*
X0133457Y0114106D01*
X0133457Y0114806D01*
X0132677Y0114806D01*
X0131182Y0113311D01*
X0131182Y0101052D01*
X0132739Y0099495D01*
X0156126Y0099495D01*
X0156126Y0100274D01*
X0156712Y0100860D01*
X0156801Y0100860D01*
X0156585Y0100918D01*
X0156266Y0101102D01*
X0156006Y0101363D01*
X0155821Y0101682D01*
X0155726Y0102038D01*
X0155726Y0103988D01*
X0158694Y0103988D01*
X0158694Y0104788D01*
X0158694Y0107953D01*
X0156942Y0107953D01*
X0156585Y0107858D01*
X0156266Y0107673D01*
X0156006Y0107413D01*
X0155821Y0107093D01*
X0155726Y0106737D01*
X0155726Y0104788D01*
X0158694Y0104788D01*
X0159494Y0104788D01*
X0159494Y0107953D01*
X0161247Y0107953D01*
X0161603Y0107858D01*
X0161922Y0107673D01*
X0162183Y0107413D01*
X0162367Y0107093D01*
X0162463Y0106737D01*
X0162463Y0104788D01*
X0159494Y0104788D01*
X0159494Y0103988D01*
X0162463Y0103988D01*
X0162463Y0102038D01*
X0162367Y0101682D01*
X0162183Y0101363D01*
X0161922Y0101102D01*
X0161603Y0100918D01*
X0161388Y0100860D01*
X0161477Y0100860D01*
X0162063Y0100274D01*
X0162063Y0099586D01*
X0175383Y0099586D01*
X0178528Y0102731D01*
X0179959Y0102731D01*
X0180349Y0103122D01*
X0182164Y0103122D01*
X0183447Y0101838D01*
X0183447Y0100024D01*
X0182164Y0098741D01*
X0180349Y0098741D01*
X0179989Y0099101D01*
X0177929Y0097041D01*
X0176874Y0095986D01*
X0162063Y0095986D01*
X0162063Y0095115D01*
X0161477Y0094529D01*
X0156712Y0094529D01*
X0156126Y0095115D01*
X0156126Y0095895D01*
X0131247Y0095895D01*
X0130193Y0096949D01*
X0130193Y0096949D01*
X0128636Y0098506D01*
X0127582Y0099561D01*
X0127582Y0102006D01*
X0114011Y0102006D01*
X0113911Y0102106D01*
X0111442Y0102106D01*
X0110857Y0102692D01*
X0110857Y0104920D01*
X0110949Y0105012D01*
X0101684Y0105012D01*
X0100775Y0104104D01*
X0100775Y0082758D01*
X0102459Y0081075D01*
X0109959Y0081075D01*
X0110775Y0080258D01*
X0112459Y0078575D01*
X0129959Y0078575D01*
X0130775Y0077758D01*
X0140412Y0068122D01*
X0141539Y0068122D01*
X0142822Y0066838D01*
X0142822Y0065024D01*
X0141539Y0063741D01*
X0139724Y0063741D01*
X0138441Y0065024D01*
X0138441Y0066151D01*
X0128804Y0075787D01*
X0111496Y0075787D01*
X0119162Y0068122D01*
X0120289Y0068122D01*
X0121572Y0066838D01*
X0121572Y0065024D01*
X0120289Y0063741D01*
X0118474Y0063741D01*
X0117191Y0065024D01*
X0117191Y0066151D01*
X0107554Y0075787D01*
X0099429Y0075787D01*
X0096304Y0078912D01*
X0095775Y0079441D01*
X0095775Y0069633D01*
X0096662Y0068747D01*
X0097789Y0068747D01*
X0099072Y0067463D01*
X0099072Y0065649D01*
X0097789Y0064366D01*
X0095974Y0064366D01*
X0094691Y0065649D01*
X0094691Y0066776D01*
X0093132Y0068335D01*
X0092459Y0067662D01*
X0090947Y0066151D01*
X0090947Y0065024D01*
X0089664Y0063741D01*
X0087849Y0063741D01*
X0086566Y0065024D01*
X0086566Y0066838D01*
X0087849Y0068122D01*
X0088976Y0068122D01*
X0090488Y0069633D01*
X0090488Y0109633D01*
X0095538Y0114683D01*
X0096067Y0115212D01*
X0094379Y0115212D01*
X0093563Y0116029D01*
X0087363Y0122229D01*
X0087363Y0148479D01*
X0084945Y0150897D01*
X0084664Y0150616D01*
X0082849Y0150616D01*
X0081566Y0151899D01*
X0081566Y0153713D01*
X0082849Y0154997D01*
X0084664Y0154997D01*
X0085461Y0154200D01*
X0085584Y0154200D01*
X0089334Y0150450D01*
X0090007Y0149777D01*
X0090679Y0150450D01*
X0092816Y0152587D01*
X0092816Y0153713D01*
X0094099Y0154997D01*
X0095914Y0154997D01*
X0097197Y0153713D01*
X0097197Y0151899D01*
X0095914Y0150616D01*
X0094787Y0150616D01*
X0092650Y0148479D01*
X0092650Y0139921D01*
X0093179Y0140450D01*
X0096304Y0143575D01*
X0104429Y0143575D01*
X0113441Y0152587D01*
X0113441Y0153713D01*
X0114724Y0154997D01*
X0116539Y0154997D01*
X0117822Y0153713D01*
X0117822Y0151899D01*
X0116539Y0150616D01*
X0115412Y0150616D01*
X0106400Y0141604D01*
X0105584Y0140787D01*
X0097459Y0140787D01*
X0095150Y0138479D01*
X0095150Y0127133D01*
X0099084Y0123200D01*
X0111136Y0123200D01*
X0111442Y0123506D01*
X0118071Y0123506D01*
X0118657Y0122920D01*
X0118657Y0120692D01*
X0118471Y0120506D01*
X0118657Y0120320D01*
X0118657Y0118092D01*
X0118471Y0117906D01*
X0118657Y0117720D01*
X0118657Y0115492D01*
X0118521Y0115356D01*
X0118657Y0115220D01*
X0118657Y0112992D01*
X0118471Y0112806D01*
X0118657Y0112620D01*
X0118657Y0110392D01*
X0118521Y0110256D01*
X0118657Y0110120D01*
X0118657Y0107892D01*
X0118471Y0107706D01*
X0118657Y0107520D01*
X0118657Y0105606D01*
X0127582Y0105606D01*
X0127582Y0114802D01*
X0130132Y0117352D01*
X0131186Y0118406D01*
X0133857Y0118406D01*
X0133857Y0120126D01*
X0133736Y0120246D01*
X0133552Y0120566D01*
X0133457Y0120922D01*
X0133457Y0121806D01*
X0137756Y0121806D01*
X0137756Y0121806D01*
X0133457Y0121806D01*
X0133457Y0122690D01*
X0133552Y0123046D01*
X0133736Y0123366D01*
X0133997Y0123626D01*
X0134316Y0123811D01*
X0134672Y0123906D01*
X0137756Y0123906D01*
X0137756Y0121806D01*
X0137757Y0121806D01*
X0137757Y0123906D01*
X0140841Y0123906D01*
X0141197Y0123811D01*
X0141516Y0123626D01*
X0141777Y0123366D01*
X0141961Y0123046D01*
X0142057Y0122690D01*
X0142057Y0121827D01*
X0150488Y0130258D01*
X0150488Y0150616D01*
X0149724Y0150616D01*
X0148441Y0151899D01*
X0148441Y0153713D01*
X0149724Y0154997D01*
X0151539Y0154997D01*
X0152822Y0153713D01*
X0152822Y0152587D01*
X0153275Y0152133D01*
X0153275Y0129245D01*
X0159762Y0135732D01*
X0159762Y0138221D01*
X0159371Y0138611D01*
X0159371Y0140426D01*
X0159762Y0140817D01*
X0159762Y0143414D01*
X0162518Y0146170D01*
X0163572Y0147224D01*
X0168239Y0147224D01*
X0168239Y0149579D01*
X0168825Y0150164D01*
X0179496Y0150164D01*
X0180081Y0149579D01*
X0180081Y0138711D01*
X0179496Y0138125D01*
X0168825Y0138125D01*
X0168239Y0138711D01*
X0168239Y0143624D01*
X0165063Y0143624D01*
X0163362Y0141923D01*
X0163362Y0140817D01*
X0163752Y0140426D01*
X0163752Y0138611D01*
X0163362Y0138221D01*
X0163362Y0134241D01*
X0162307Y0133186D01*
X0162307Y0133186D01*
X0144982Y0115861D01*
X0143927Y0114806D01*
X0142057Y0114806D01*
X0142057Y0114106D01*
X0137757Y0114106D01*
X0137757Y0114106D01*
X0142057Y0114106D01*
X0142057Y0113222D01*
X0141970Y0112900D01*
X0143129Y0112900D01*
X0152988Y0122758D01*
X0153804Y0123575D01*
X0198927Y0123575D01*
X0199724Y0124372D01*
X0201539Y0124372D01*
X0202822Y0123088D01*
X0202822Y0121274D01*
X0201998Y0120450D01*
X0231929Y0120450D01*
X0243804Y0132325D01*
X0248927Y0132325D01*
X0249724Y0133122D01*
X0251539Y0133122D01*
X0252822Y0131838D01*
X0252822Y0130024D01*
X0251539Y0128741D01*
X0249724Y0128741D01*
X0248927Y0129537D01*
X0244959Y0129537D01*
X0233900Y0118479D01*
X0233371Y0117950D01*
X0236304Y0117950D01*
X0243722Y0125367D01*
X0243722Y0126558D01*
X0245005Y0127841D01*
X0246819Y0127841D01*
X0248103Y0126558D01*
X0248103Y0124743D01*
X0246819Y0123460D01*
X0245756Y0123460D01*
X0238275Y0115979D01*
X0237746Y0115450D01*
X0240679Y0115450D01*
X0257357Y0132127D01*
X0257357Y0132136D01*
X0258177Y0132956D01*
X0259559Y0132956D01*
X0260349Y0133747D01*
X0262164Y0133747D01*
X0263447Y0132463D01*
X0263447Y0130649D01*
X0262164Y0129366D01*
X0260349Y0129366D01*
X0259559Y0130156D01*
X0259328Y0130156D01*
X0252643Y0123471D01*
X0257168Y0123471D01*
X0257754Y0122886D01*
X0257754Y0117727D01*
X0257168Y0117141D01*
X0256400Y0117141D01*
X0256400Y0117133D01*
X0256834Y0116700D01*
X0260584Y0116700D01*
X0261400Y0115883D01*
X0262478Y0114806D01*
X0262478Y0114131D01*
X0263073Y0114131D01*
X0263248Y0113956D01*
X0267408Y0118116D01*
X0265974Y0118116D01*
X0265584Y0118506D01*
X0264447Y0118506D01*
X0264447Y0117727D01*
X0263861Y0117141D01*
X0259095Y0117141D01*
X0258510Y0117727D01*
X0258510Y0122886D01*
X0259095Y0123471D01*
X0263861Y0123471D01*
X0264447Y0122886D01*
X0264447Y0122106D01*
X0265082Y0122106D01*
X0265082Y0148936D01*
X0262386Y0151631D01*
X0259261Y0151631D01*
X0258207Y0152686D01*
X0255277Y0155616D01*
X0254724Y0155616D01*
X0253441Y0156899D01*
X0253441Y0158713D01*
X0254724Y0159997D01*
X0256539Y0159997D01*
X0257822Y0158713D01*
X0257822Y0158161D01*
X0260752Y0155231D01*
X0263877Y0155231D01*
X0267988Y0151120D01*
X0267988Y0155984D01*
X0267359Y0156244D01*
X0267215Y0155996D01*
X0266955Y0155735D01*
X0266636Y0155551D01*
X0266279Y0155455D01*
X0264105Y0155455D01*
X0264105Y0158846D01*
X0263723Y0158846D01*
X0260333Y0158846D01*
X0260333Y0156671D01*
X0260428Y0156315D01*
X0260613Y0155996D01*
X0260873Y0155735D01*
X0261193Y0155551D01*
X0261549Y0155455D01*
X0263723Y0155455D01*
X0263723Y0158846D01*
X0263723Y0159227D01*
X0260333Y0159227D01*
X0260333Y0161402D01*
X0260428Y0161758D01*
X0260613Y0162077D01*
X0260873Y0162338D01*
X0261193Y0162522D01*
X0261549Y0162618D01*
X0263723Y0162618D01*
X0263723Y0159227D01*
X0264105Y0159227D01*
X0264105Y0162618D01*
X0266279Y0162618D01*
X0266636Y0162522D01*
X0266955Y0162338D01*
X0267215Y0162077D01*
X0267322Y0161892D01*
X0268203Y0162257D01*
X0269468Y0162257D01*
X0270637Y0161773D01*
X0271306Y0161104D01*
X0271955Y0161753D01*
X0273124Y0162237D01*
X0274389Y0162237D01*
X0275559Y0161753D01*
X0276217Y0161094D01*
X0276876Y0161753D01*
X0278045Y0162237D01*
X0279311Y0162237D01*
X0280480Y0161753D01*
X0281138Y0161094D01*
X0281797Y0161753D01*
X0282966Y0162237D01*
X0284232Y0162237D01*
X0285401Y0161753D01*
X0286296Y0160858D01*
X0286780Y0159689D01*
X0286780Y0158423D01*
X0286296Y0157254D01*
X0285401Y0156359D01*
X0284232Y0155875D01*
X0282966Y0155875D01*
X0281797Y0156359D01*
X0281138Y0157018D01*
X0280480Y0156359D01*
X0279311Y0155875D01*
X0278045Y0155875D01*
X0276876Y0156359D01*
X0276217Y0157018D01*
X0275559Y0156359D01*
X0274389Y0155875D01*
X0273124Y0155875D01*
X0271955Y0156359D01*
X0271286Y0157028D01*
X0270775Y0156517D01*
X0270775Y0117541D01*
X0269959Y0116725D01*
X0269959Y0116725D01*
X0265775Y0112541D01*
X0265775Y0111591D01*
X0265962Y0111699D01*
X0266318Y0111795D01*
X0275945Y0111795D01*
X0275945Y0100952D01*
X0265775Y0100952D01*
X0265775Y0100152D01*
X0275945Y0100152D01*
X0275945Y0089825D01*
X0276745Y0089825D01*
X0276745Y0100152D01*
X0275945Y0100152D01*
X0275945Y0100952D01*
X0276745Y0100952D01*
X0276745Y0111795D01*
X0286372Y0111795D01*
X0286728Y0111699D01*
X0287047Y0111515D01*
X0287308Y0111254D01*
X0287492Y0110935D01*
X0287588Y0110579D01*
X0287588Y0100952D01*
X0276745Y0100952D01*
X0276745Y0100152D01*
X0287588Y0100152D01*
X0287588Y0090525D01*
X0287492Y0090169D01*
X0287308Y0089850D01*
X0287283Y0089825D01*
X0288709Y0089825D01*
X0289525Y0089008D01*
X0293900Y0084633D01*
X0293900Y0080135D01*
X0294211Y0079825D01*
X0295362Y0079825D01*
X0296288Y0078900D01*
X0299865Y0078900D01*
X0300450Y0078314D01*
X0300450Y0078225D01*
X0300508Y0078440D01*
X0300692Y0078759D01*
X0300953Y0079020D01*
X0301272Y0079204D01*
X0301628Y0079300D01*
X0303578Y0079300D01*
X0303578Y0076331D01*
X0304378Y0076331D01*
X0304378Y0079300D01*
X0306328Y0079300D01*
X0306684Y0079204D01*
X0307003Y0079020D01*
X0307012Y0079011D01*
X0307012Y0176701D01*
X0053907Y0176701D01*
X0053907Y0176053D02*
X0307012Y0176053D01*
X0307012Y0175255D02*
X0302862Y0175255D01*
X0303673Y0174919D02*
X0301639Y0175761D01*
X0299437Y0175761D01*
X0297403Y0174919D01*
X0295847Y0173362D01*
X0295004Y0171328D01*
X0295004Y0169127D01*
X0295847Y0167093D01*
X0297403Y0165536D01*
X0299437Y0164694D01*
X0301639Y0164694D01*
X0303673Y0165536D01*
X0305229Y0167093D01*
X0306072Y0169127D01*
X0306072Y0171328D01*
X0305229Y0173362D01*
X0303673Y0174919D01*
X0304135Y0174456D02*
X0307012Y0174456D01*
X0307012Y0173657D02*
X0304934Y0173657D01*
X0305438Y0172859D02*
X0307012Y0172859D01*
X0307012Y0172060D02*
X0305769Y0172060D01*
X0306072Y0171262D02*
X0307012Y0171262D01*
X0307012Y0170463D02*
X0306072Y0170463D01*
X0306072Y0169665D02*
X0307012Y0169665D01*
X0307012Y0168866D02*
X0305964Y0168866D01*
X0305633Y0168068D02*
X0307012Y0168068D01*
X0307012Y0167269D02*
X0305303Y0167269D01*
X0304608Y0166471D02*
X0307012Y0166471D01*
X0307012Y0165672D02*
X0303809Y0165672D01*
X0302074Y0164874D02*
X0307012Y0164874D01*
X0307012Y0164075D02*
X0174560Y0164075D01*
X0174560Y0164427D02*
X0180481Y0164427D01*
X0180481Y0169231D01*
X0180386Y0169587D01*
X0180202Y0169906D01*
X0179941Y0170167D01*
X0179622Y0170351D01*
X0179266Y0170446D01*
X0174560Y0170446D01*
X0174560Y0164427D01*
X0173760Y0164427D01*
X0173760Y0170446D01*
X0169055Y0170446D01*
X0168698Y0170351D01*
X0168379Y0170167D01*
X0168119Y0169906D01*
X0167934Y0169587D01*
X0167839Y0169231D01*
X0167839Y0164427D01*
X0173760Y0164427D01*
X0173760Y0163627D01*
X0167839Y0163627D01*
X0167839Y0158823D01*
X0167934Y0158466D01*
X0168119Y0158147D01*
X0168379Y0157887D01*
X0168698Y0157702D01*
X0169055Y0157607D01*
X0173760Y0157607D01*
X0173760Y0163627D01*
X0174560Y0163627D01*
X0174560Y0164427D01*
X0174560Y0164874D02*
X0173760Y0164874D01*
X0173760Y0165672D02*
X0174560Y0165672D01*
X0174560Y0166471D02*
X0173760Y0166471D01*
X0173760Y0167269D02*
X0174560Y0167269D01*
X0174560Y0168068D02*
X0173760Y0168068D01*
X0173760Y0168866D02*
X0174560Y0168866D01*
X0174560Y0169665D02*
X0173760Y0169665D01*
X0173760Y0164075D02*
X0147752Y0164075D01*
X0147643Y0164340D02*
X0147828Y0164447D01*
X0148088Y0164708D01*
X0148273Y0165027D01*
X0148368Y0165383D01*
X0148368Y0167558D01*
X0144977Y0167558D01*
X0144977Y0167939D01*
X0144596Y0167939D01*
X0144596Y0167558D01*
X0141206Y0167558D01*
X0141206Y0165383D01*
X0141301Y0165027D01*
X0141485Y0164708D01*
X0141746Y0164447D01*
X0141995Y0164304D01*
X0141645Y0163460D01*
X0141645Y0162195D01*
X0142129Y0161025D01*
X0142778Y0160377D01*
X0142110Y0159708D01*
X0141625Y0158539D01*
X0141625Y0157273D01*
X0142110Y0156104D01*
X0142768Y0155445D01*
X0142110Y0154787D01*
X0141625Y0153618D01*
X0141625Y0152352D01*
X0142110Y0151183D01*
X0142768Y0150524D01*
X0142110Y0149866D01*
X0141625Y0148696D01*
X0141625Y0147431D01*
X0142110Y0146262D01*
X0143005Y0145367D01*
X0144174Y0144882D01*
X0145439Y0144882D01*
X0146609Y0145367D01*
X0147503Y0146262D01*
X0147988Y0147431D01*
X0147988Y0148696D01*
X0147503Y0149866D01*
X0146845Y0150524D01*
X0147503Y0151183D01*
X0147988Y0152352D01*
X0147988Y0153618D01*
X0147503Y0154787D01*
X0146845Y0155445D01*
X0147503Y0156104D01*
X0147988Y0157273D01*
X0147988Y0158539D01*
X0147503Y0159708D01*
X0146855Y0160357D01*
X0147523Y0161025D01*
X0148007Y0162195D01*
X0148007Y0163460D01*
X0147643Y0164340D01*
X0148184Y0164874D02*
X0167839Y0164874D01*
X0167839Y0165672D02*
X0148368Y0165672D01*
X0148368Y0166471D02*
X0167839Y0166471D01*
X0167839Y0167269D02*
X0148368Y0167269D01*
X0148368Y0167939D02*
X0144977Y0167939D01*
X0144977Y0171330D01*
X0147152Y0171330D01*
X0147508Y0171234D01*
X0147828Y0171050D01*
X0148088Y0170789D01*
X0148273Y0170470D01*
X0148368Y0170114D01*
X0148368Y0167939D01*
X0148368Y0168068D02*
X0167839Y0168068D01*
X0167839Y0168866D02*
X0148368Y0168866D01*
X0148368Y0169665D02*
X0167979Y0169665D01*
X0167839Y0163277D02*
X0148007Y0163277D01*
X0148007Y0162478D02*
X0167839Y0162478D01*
X0167839Y0161680D02*
X0147794Y0161680D01*
X0147379Y0160881D02*
X0167839Y0160881D01*
X0167839Y0160083D02*
X0147129Y0160083D01*
X0147679Y0159284D02*
X0167839Y0159284D01*
X0167929Y0158486D02*
X0147988Y0158486D01*
X0147988Y0157687D02*
X0168755Y0157687D01*
X0173760Y0157687D02*
X0174560Y0157687D01*
X0174560Y0157607D02*
X0179266Y0157607D01*
X0179622Y0157702D01*
X0179941Y0157887D01*
X0180202Y0158147D01*
X0180386Y0158466D01*
X0180481Y0158823D01*
X0180481Y0163627D01*
X0174560Y0163627D01*
X0174560Y0157607D01*
X0174560Y0158486D02*
X0173760Y0158486D01*
X0173760Y0159284D02*
X0174560Y0159284D01*
X0174560Y0160083D02*
X0173760Y0160083D01*
X0173760Y0160881D02*
X0174560Y0160881D01*
X0174560Y0161680D02*
X0173760Y0161680D01*
X0173760Y0162478D02*
X0174560Y0162478D01*
X0174560Y0163277D02*
X0173760Y0163277D01*
X0180481Y0163277D02*
X0307012Y0163277D01*
X0307012Y0162478D02*
X0266711Y0162478D01*
X0264105Y0162478D02*
X0263723Y0162478D01*
X0263723Y0161680D02*
X0264105Y0161680D01*
X0264105Y0160881D02*
X0263723Y0160881D01*
X0263723Y0160083D02*
X0264105Y0160083D01*
X0264105Y0159284D02*
X0263723Y0159284D01*
X0263723Y0158486D02*
X0264105Y0158486D01*
X0264105Y0157687D02*
X0263723Y0157687D01*
X0263723Y0156889D02*
X0264105Y0156889D01*
X0264105Y0156090D02*
X0263723Y0156090D01*
X0264615Y0154493D02*
X0267988Y0154493D01*
X0267988Y0153695D02*
X0265414Y0153695D01*
X0266212Y0152896D02*
X0267988Y0152896D01*
X0267988Y0152098D02*
X0267011Y0152098D01*
X0267809Y0151299D02*
X0267988Y0151299D01*
X0270775Y0151299D02*
X0307012Y0151299D01*
X0307012Y0150501D02*
X0270775Y0150501D01*
X0270775Y0149702D02*
X0307012Y0149702D01*
X0307012Y0148904D02*
X0270775Y0148904D01*
X0270775Y0148105D02*
X0307012Y0148105D01*
X0307012Y0147307D02*
X0270775Y0147307D01*
X0270775Y0146508D02*
X0307012Y0146508D01*
X0307012Y0145710D02*
X0270775Y0145710D01*
X0270775Y0144911D02*
X0307012Y0144911D01*
X0307012Y0144113D02*
X0270775Y0144113D01*
X0270775Y0143314D02*
X0307012Y0143314D01*
X0307012Y0142516D02*
X0270775Y0142516D01*
X0270775Y0141717D02*
X0307012Y0141717D01*
X0307012Y0140919D02*
X0270775Y0140919D01*
X0270775Y0140120D02*
X0307012Y0140120D01*
X0307012Y0139322D02*
X0270775Y0139322D01*
X0270775Y0138523D02*
X0307012Y0138523D01*
X0307012Y0137724D02*
X0270775Y0137724D01*
X0270775Y0136926D02*
X0307012Y0136926D01*
X0307012Y0136127D02*
X0270775Y0136127D01*
X0270775Y0135329D02*
X0307012Y0135329D01*
X0307012Y0134530D02*
X0270775Y0134530D01*
X0270775Y0133732D02*
X0307012Y0133732D01*
X0307012Y0132933D02*
X0270775Y0132933D01*
X0270775Y0132135D02*
X0307012Y0132135D01*
X0307012Y0131336D02*
X0270775Y0131336D01*
X0270775Y0130538D02*
X0307012Y0130538D01*
X0307012Y0129739D02*
X0270775Y0129739D01*
X0270775Y0128941D02*
X0307012Y0128941D01*
X0307012Y0128142D02*
X0270775Y0128142D01*
X0270775Y0127344D02*
X0307012Y0127344D01*
X0307012Y0126545D02*
X0270775Y0126545D01*
X0270775Y0125747D02*
X0307012Y0125747D01*
X0307012Y0124948D02*
X0270775Y0124948D01*
X0270775Y0124150D02*
X0307012Y0124150D01*
X0307012Y0123351D02*
X0270775Y0123351D01*
X0270775Y0122553D02*
X0307012Y0122553D01*
X0307012Y0121754D02*
X0270775Y0121754D01*
X0270775Y0120956D02*
X0307012Y0120956D01*
X0307012Y0120157D02*
X0270775Y0120157D01*
X0270775Y0119359D02*
X0307012Y0119359D01*
X0307012Y0118560D02*
X0270775Y0118560D01*
X0270775Y0117762D02*
X0307012Y0117762D01*
X0307012Y0116963D02*
X0270197Y0116963D01*
X0269399Y0116165D02*
X0307012Y0116165D01*
X0307012Y0115366D02*
X0268600Y0115366D01*
X0267802Y0114568D02*
X0307012Y0114568D01*
X0307012Y0113769D02*
X0267003Y0113769D01*
X0266205Y0112971D02*
X0307012Y0112971D01*
X0307012Y0112172D02*
X0265775Y0112172D01*
X0263860Y0114568D02*
X0262478Y0114568D01*
X0261917Y0115366D02*
X0264658Y0115366D01*
X0265457Y0116165D02*
X0261119Y0116165D01*
X0258510Y0117762D02*
X0257754Y0117762D01*
X0257754Y0118560D02*
X0258510Y0118560D01*
X0258510Y0119359D02*
X0257754Y0119359D01*
X0257754Y0120157D02*
X0258510Y0120157D01*
X0258510Y0120956D02*
X0257754Y0120956D01*
X0257754Y0121754D02*
X0258510Y0121754D01*
X0258510Y0122553D02*
X0257754Y0122553D01*
X0257288Y0123351D02*
X0258975Y0123351D01*
X0255717Y0126545D02*
X0265082Y0126545D01*
X0265082Y0125747D02*
X0254918Y0125747D01*
X0254120Y0124948D02*
X0265082Y0124948D01*
X0265082Y0124150D02*
X0253321Y0124150D01*
X0251817Y0122553D02*
X0251724Y0122553D01*
X0251817Y0121754D02*
X0250926Y0121754D01*
X0250127Y0120956D02*
X0251817Y0120956D01*
X0251817Y0120157D02*
X0249329Y0120157D01*
X0248530Y0119359D02*
X0251817Y0119359D01*
X0251817Y0118560D02*
X0247732Y0118560D01*
X0246933Y0117762D02*
X0251817Y0117762D01*
X0253613Y0116963D02*
X0246135Y0116963D01*
X0245336Y0116165D02*
X0253613Y0116165D01*
X0254225Y0115366D02*
X0244538Y0115366D01*
X0243739Y0114568D02*
X0255024Y0114568D01*
X0254791Y0113769D02*
X0255566Y0113769D01*
X0255566Y0112971D02*
X0254791Y0112971D01*
X0254791Y0112172D02*
X0255566Y0112172D01*
X0255566Y0111374D02*
X0258510Y0111374D01*
X0258154Y0111169D02*
X0255566Y0111169D01*
X0255566Y0108581D01*
X0256938Y0108581D01*
X0257294Y0108677D01*
X0257613Y0108861D01*
X0257874Y0109122D01*
X0258058Y0109441D01*
X0258154Y0109797D01*
X0258154Y0111169D01*
X0258154Y0110575D02*
X0258510Y0110575D01*
X0258510Y0109777D02*
X0258148Y0109777D01*
X0257730Y0108978D02*
X0262988Y0108978D01*
X0262988Y0108180D02*
X0154851Y0108180D01*
X0155650Y0108978D02*
X0252627Y0108978D01*
X0252209Y0109777D02*
X0156448Y0109777D01*
X0157247Y0110575D02*
X0252204Y0110575D01*
X0252204Y0112172D02*
X0158844Y0112172D01*
X0158045Y0111374D02*
X0254791Y0111374D01*
X0254791Y0110575D02*
X0255566Y0110575D01*
X0255566Y0109777D02*
X0254791Y0109777D01*
X0254791Y0108978D02*
X0255566Y0108978D01*
X0255566Y0106406D02*
X0255566Y0103819D01*
X0254791Y0103819D01*
X0254791Y0106406D01*
X0253420Y0106406D01*
X0253064Y0106310D01*
X0252744Y0106126D01*
X0252484Y0105866D01*
X0252299Y0105546D01*
X0252204Y0105190D01*
X0252204Y0103819D01*
X0254791Y0103819D01*
X0254791Y0103044D01*
X0252204Y0103044D01*
X0252204Y0101672D01*
X0252299Y0101316D01*
X0252484Y0100997D01*
X0252744Y0100736D01*
X0253064Y0100552D01*
X0253420Y0100456D01*
X0254791Y0100456D01*
X0254791Y0103044D01*
X0255566Y0103044D01*
X0255566Y0103819D01*
X0258154Y0103819D01*
X0258154Y0105190D01*
X0258058Y0105546D01*
X0257874Y0105866D01*
X0257613Y0106126D01*
X0257294Y0106310D01*
X0256938Y0106406D01*
X0255566Y0106406D01*
X0255566Y0105784D02*
X0254791Y0105784D01*
X0254791Y0104986D02*
X0255566Y0104986D01*
X0255566Y0104187D02*
X0254791Y0104187D01*
X0254791Y0103388D02*
X0224074Y0103388D01*
X0224074Y0103181D02*
X0224074Y0106017D01*
X0223978Y0106373D01*
X0223794Y0106692D01*
X0223533Y0106953D01*
X0223214Y0107137D01*
X0222858Y0107233D01*
X0220515Y0107233D01*
X0220515Y0103182D01*
X0219715Y0103182D01*
X0219715Y0107233D01*
X0217371Y0107233D01*
X0217015Y0107137D01*
X0216696Y0106953D01*
X0216435Y0106692D01*
X0216251Y0106373D01*
X0216156Y0106017D01*
X0216156Y0103181D01*
X0219715Y0103181D01*
X0219715Y0102382D01*
X0216156Y0102382D01*
X0216156Y0099546D01*
X0216251Y0099190D01*
X0216435Y0098871D01*
X0216696Y0098610D01*
X0217015Y0098426D01*
X0217371Y0098330D01*
X0219715Y0098330D01*
X0219715Y0102381D01*
X0220515Y0102381D01*
X0220515Y0098330D01*
X0222858Y0098330D01*
X0223214Y0098426D01*
X0223533Y0098610D01*
X0223794Y0098871D01*
X0223978Y0099190D01*
X0224074Y0099546D01*
X0224074Y0102382D01*
X0220515Y0102382D01*
X0220515Y0103181D01*
X0224074Y0103181D01*
X0224074Y0104187D02*
X0252204Y0104187D01*
X0252204Y0104986D02*
X0224074Y0104986D01*
X0224074Y0105784D02*
X0252437Y0105784D01*
X0252204Y0102590D02*
X0220515Y0102590D01*
X0220515Y0103388D02*
X0219715Y0103388D01*
X0219715Y0102590D02*
X0205957Y0102590D01*
X0205957Y0103388D02*
X0216156Y0103388D01*
X0216156Y0104187D02*
X0205957Y0104187D01*
X0205957Y0104986D02*
X0216156Y0104986D01*
X0216156Y0105784D02*
X0205957Y0105784D01*
X0205957Y0106247D02*
X0205372Y0106833D01*
X0199425Y0106833D01*
X0198839Y0106247D01*
X0198839Y0099316D01*
X0199425Y0098730D01*
X0201113Y0098730D01*
X0201113Y0095354D01*
X0201642Y0094825D01*
X0195461Y0094825D01*
X0194664Y0095622D01*
X0192849Y0095622D01*
X0191566Y0094338D01*
X0191566Y0092524D01*
X0192849Y0091241D01*
X0194664Y0091241D01*
X0195461Y0092037D01*
X0200679Y0092037D01*
X0206929Y0085787D01*
X0246280Y0085787D01*
X0252662Y0079405D01*
X0252186Y0078929D01*
X0252186Y0072786D01*
X0252771Y0072200D01*
X0257340Y0072200D01*
X0257926Y0072786D01*
X0257926Y0078929D01*
X0257340Y0079515D01*
X0256449Y0079515D01*
X0256449Y0079560D01*
X0255633Y0080376D01*
X0255534Y0080475D01*
X0255802Y0080475D01*
X0256599Y0079678D01*
X0258414Y0079678D01*
X0259697Y0080961D01*
X0259697Y0082776D01*
X0258414Y0084059D01*
X0256599Y0084059D01*
X0255849Y0083309D01*
X0248084Y0091075D01*
X0209334Y0091075D01*
X0203900Y0096508D01*
X0203900Y0098730D01*
X0205372Y0098730D01*
X0205957Y0099316D01*
X0205957Y0106247D01*
X0205622Y0106583D02*
X0216372Y0106583D01*
X0219715Y0106583D02*
X0220515Y0106583D01*
X0220515Y0105784D02*
X0219715Y0105784D01*
X0219715Y0104986D02*
X0220515Y0104986D01*
X0220515Y0104187D02*
X0219715Y0104187D01*
X0219715Y0101791D02*
X0220515Y0101791D01*
X0220515Y0100993D02*
X0219715Y0100993D01*
X0219715Y0100194D02*
X0220515Y0100194D01*
X0220515Y0099396D02*
X0219715Y0099396D01*
X0219715Y0098597D02*
X0220515Y0098597D01*
X0223512Y0098597D02*
X0252438Y0098597D01*
X0252326Y0098533D02*
X0252065Y0098272D01*
X0251881Y0097953D01*
X0251786Y0097597D01*
X0251786Y0095155D01*
X0254656Y0095155D01*
X0254656Y0098812D01*
X0253001Y0098812D01*
X0252645Y0098717D01*
X0252326Y0098533D01*
X0251840Y0097799D02*
X0245327Y0097799D01*
X0245327Y0097827D02*
X0244742Y0098412D01*
X0240173Y0098412D01*
X0239587Y0097827D01*
X0239587Y0091683D01*
X0240173Y0091097D01*
X0244742Y0091097D01*
X0245327Y0091683D01*
X0245327Y0093137D01*
X0245900Y0092564D01*
X0247715Y0092564D01*
X0248998Y0093848D01*
X0248998Y0095662D01*
X0247715Y0096945D01*
X0245900Y0096945D01*
X0245327Y0096372D01*
X0245327Y0097827D01*
X0245327Y0097000D02*
X0251786Y0097000D01*
X0251786Y0096202D02*
X0248459Y0096202D01*
X0248998Y0095403D02*
X0251786Y0095403D01*
X0251786Y0094355D02*
X0251786Y0091913D01*
X0251881Y0091557D01*
X0252065Y0091238D01*
X0252326Y0090977D01*
X0252645Y0090793D01*
X0253001Y0090697D01*
X0254656Y0090697D01*
X0254656Y0094355D01*
X0255456Y0094355D01*
X0255456Y0095155D01*
X0258326Y0095155D01*
X0258326Y0097597D01*
X0258230Y0097953D01*
X0258046Y0098272D01*
X0257785Y0098533D01*
X0257466Y0098717D01*
X0257110Y0098812D01*
X0255456Y0098812D01*
X0255456Y0095155D01*
X0254656Y0095155D01*
X0254656Y0094355D01*
X0251786Y0094355D01*
X0251786Y0093806D02*
X0248957Y0093806D01*
X0248998Y0094605D02*
X0254656Y0094605D01*
X0254656Y0095403D02*
X0255456Y0095403D01*
X0255456Y0094605D02*
X0259863Y0094605D01*
X0259863Y0095403D02*
X0258326Y0095403D01*
X0258326Y0096202D02*
X0259863Y0096202D01*
X0259863Y0097000D02*
X0258326Y0097000D01*
X0258272Y0097799D02*
X0259863Y0097799D01*
X0259863Y0098597D02*
X0257673Y0098597D01*
X0257294Y0100552D02*
X0257613Y0100736D01*
X0257874Y0100997D01*
X0258058Y0101316D01*
X0258154Y0101672D01*
X0258154Y0103044D01*
X0255566Y0103044D01*
X0255566Y0100456D01*
X0256938Y0100456D01*
X0257294Y0100552D01*
X0257870Y0100993D02*
X0258959Y0100993D01*
X0258510Y0101791D02*
X0258154Y0101791D01*
X0258154Y0102590D02*
X0258510Y0102590D01*
X0258510Y0103388D02*
X0255566Y0103388D01*
X0255566Y0102590D02*
X0254791Y0102590D01*
X0254791Y0101791D02*
X0255566Y0101791D01*
X0255566Y0100993D02*
X0254791Y0100993D01*
X0252487Y0100993D02*
X0224074Y0100993D01*
X0224074Y0101791D02*
X0252204Y0101791D01*
X0258154Y0104187D02*
X0258510Y0104187D01*
X0258510Y0104986D02*
X0258154Y0104986D01*
X0257921Y0105784D02*
X0258873Y0105784D01*
X0262988Y0106583D02*
X0223858Y0106583D01*
X0216156Y0101791D02*
X0205957Y0101791D01*
X0205957Y0100993D02*
X0216156Y0100993D01*
X0216156Y0100194D02*
X0205957Y0100194D01*
X0205957Y0099396D02*
X0216196Y0099396D01*
X0216718Y0098597D02*
X0203900Y0098597D01*
X0203900Y0097799D02*
X0239587Y0097799D01*
X0239587Y0097000D02*
X0203900Y0097000D01*
X0204207Y0096202D02*
X0239587Y0096202D01*
X0239587Y0095403D02*
X0205005Y0095403D01*
X0205804Y0094605D02*
X0239587Y0094605D01*
X0239587Y0093806D02*
X0206602Y0093806D01*
X0207401Y0093008D02*
X0239587Y0093008D01*
X0239587Y0092209D02*
X0208199Y0092209D01*
X0208998Y0091411D02*
X0239860Y0091411D01*
X0245055Y0091411D02*
X0251966Y0091411D01*
X0251786Y0092209D02*
X0245327Y0092209D01*
X0245327Y0093008D02*
X0245457Y0093008D01*
X0248159Y0093008D02*
X0251786Y0093008D01*
X0254656Y0093008D02*
X0255456Y0093008D01*
X0255456Y0093806D02*
X0254656Y0093806D01*
X0255456Y0094355D02*
X0255456Y0090697D01*
X0257110Y0090697D01*
X0257466Y0090793D01*
X0257785Y0090977D01*
X0258046Y0091238D01*
X0258230Y0091557D01*
X0258326Y0091913D01*
X0258326Y0094355D01*
X0255456Y0094355D01*
X0255456Y0096202D02*
X0254656Y0096202D01*
X0254656Y0097000D02*
X0255456Y0097000D01*
X0255456Y0097799D02*
X0254656Y0097799D01*
X0254656Y0098597D02*
X0255456Y0098597D01*
X0259863Y0099396D02*
X0224034Y0099396D01*
X0224074Y0100194D02*
X0259863Y0100194D01*
X0265775Y0100194D02*
X0275945Y0100194D01*
X0275945Y0099396D02*
X0276745Y0099396D01*
X0276745Y0100194D02*
X0307012Y0100194D01*
X0307012Y0099396D02*
X0287588Y0099396D01*
X0287588Y0098597D02*
X0307012Y0098597D01*
X0307012Y0097799D02*
X0287588Y0097799D01*
X0287588Y0097000D02*
X0307012Y0097000D01*
X0307012Y0096202D02*
X0287588Y0096202D01*
X0287588Y0095403D02*
X0307012Y0095403D01*
X0307012Y0094605D02*
X0287588Y0094605D01*
X0287588Y0093806D02*
X0307012Y0093806D01*
X0307012Y0093008D02*
X0287588Y0093008D01*
X0287588Y0092209D02*
X0307012Y0092209D01*
X0307012Y0091411D02*
X0287588Y0091411D01*
X0287588Y0090612D02*
X0307012Y0090612D01*
X0307012Y0089814D02*
X0288720Y0089814D01*
X0289518Y0089015D02*
X0307012Y0089015D01*
X0307012Y0088217D02*
X0290317Y0088217D01*
X0291115Y0087418D02*
X0307012Y0087418D01*
X0307012Y0086620D02*
X0291914Y0086620D01*
X0292712Y0085821D02*
X0307012Y0085821D01*
X0307012Y0085023D02*
X0293511Y0085023D01*
X0293900Y0084224D02*
X0307012Y0084224D01*
X0307012Y0083426D02*
X0293900Y0083426D01*
X0293900Y0082627D02*
X0307012Y0082627D01*
X0307012Y0081829D02*
X0293900Y0081829D01*
X0293900Y0081030D02*
X0307012Y0081030D01*
X0307012Y0080232D02*
X0293900Y0080232D01*
X0295754Y0079433D02*
X0307012Y0079433D01*
X0304378Y0078635D02*
X0303578Y0078635D01*
X0303578Y0077836D02*
X0304378Y0077836D01*
X0304378Y0077038D02*
X0303578Y0077038D01*
X0303578Y0075441D02*
X0304378Y0075441D01*
X0304378Y0074642D02*
X0303578Y0074642D01*
X0303578Y0073844D02*
X0304378Y0073844D01*
X0304378Y0073045D02*
X0303578Y0073045D01*
X0300750Y0073045D02*
X0299947Y0073045D01*
X0298679Y0072247D02*
X0307012Y0072247D01*
X0307012Y0071448D02*
X0298679Y0071448D01*
X0298679Y0070650D02*
X0307012Y0070650D01*
X0307012Y0069851D02*
X0306856Y0069851D01*
X0306947Y0069053D02*
X0307012Y0069053D01*
X0307012Y0068254D02*
X0306947Y0068254D01*
X0306947Y0067455D02*
X0307012Y0067455D01*
X0307012Y0066657D02*
X0306947Y0066657D01*
X0306947Y0065858D02*
X0307012Y0065858D01*
X0307012Y0065060D02*
X0306947Y0065060D01*
X0307012Y0064261D02*
X0306606Y0064261D01*
X0307012Y0063463D02*
X0305709Y0063463D01*
X0304910Y0062664D02*
X0307012Y0062664D01*
X0307012Y0061866D02*
X0304112Y0061866D01*
X0303313Y0061067D02*
X0307012Y0061067D01*
X0307012Y0060269D02*
X0302822Y0060269D01*
X0302269Y0059470D02*
X0307012Y0059470D01*
X0307012Y0058672D02*
X0293959Y0058672D01*
X0293885Y0057873D02*
X0307012Y0057873D01*
X0307012Y0057075D02*
X0293864Y0057075D01*
X0294335Y0056276D02*
X0307012Y0056276D01*
X0307012Y0055478D02*
X0294359Y0055478D01*
X0294359Y0054679D02*
X0307012Y0054679D01*
X0307012Y0053881D02*
X0294359Y0053881D01*
X0294359Y0052284D02*
X0296816Y0052284D01*
X0297403Y0052871D02*
X0295847Y0051315D01*
X0295004Y0049281D01*
X0295004Y0047079D01*
X0295847Y0045045D01*
X0297403Y0043489D01*
X0299437Y0042646D01*
X0301639Y0042646D01*
X0303673Y0043489D01*
X0305229Y0045045D01*
X0306072Y0047079D01*
X0306072Y0049281D01*
X0305229Y0051315D01*
X0303673Y0052871D01*
X0301639Y0053714D01*
X0299437Y0053714D01*
X0297403Y0052871D01*
X0297912Y0053082D02*
X0290407Y0053082D01*
X0290407Y0052284D02*
X0289607Y0052284D01*
X0289607Y0053082D02*
X0285557Y0053082D01*
X0285557Y0052284D02*
X0285654Y0052284D01*
X0285654Y0051485D02*
X0285557Y0051485D01*
X0285557Y0050687D02*
X0285657Y0050687D01*
X0286068Y0049888D02*
X0284882Y0049888D01*
X0284083Y0049090D02*
X0295004Y0049090D01*
X0295004Y0048291D02*
X0283285Y0048291D01*
X0282486Y0047493D02*
X0295004Y0047493D01*
X0295164Y0046694D02*
X0281688Y0046694D01*
X0280889Y0045896D02*
X0295494Y0045896D01*
X0295825Y0045097D02*
X0280091Y0045097D01*
X0278992Y0049090D02*
X0252961Y0049090D01*
X0252163Y0049888D02*
X0253856Y0049888D01*
X0252745Y0050687D02*
X0252583Y0050687D01*
X0256393Y0049888D02*
X0258778Y0049888D01*
X0257667Y0050687D02*
X0257504Y0050687D01*
X0261314Y0049888D02*
X0263699Y0049888D01*
X0262588Y0050687D02*
X0262425Y0050687D01*
X0264967Y0052806D02*
X0264967Y0054017D01*
X0267507Y0056556D01*
X0266844Y0057873D02*
X0250804Y0057873D01*
X0250005Y0057075D02*
X0266045Y0057075D01*
X0265247Y0056276D02*
X0249207Y0056276D01*
X0249571Y0055987D02*
X0248456Y0055525D01*
X0253718Y0060787D01*
X0267816Y0060787D01*
X0267816Y0060649D01*
X0269099Y0059366D01*
X0270914Y0059366D01*
X0271882Y0060333D01*
X0272849Y0059366D01*
X0274664Y0059366D01*
X0274863Y0059565D01*
X0274863Y0058383D01*
X0274429Y0057950D01*
X0268093Y0057950D01*
X0268086Y0057956D01*
X0266927Y0057956D01*
X0264958Y0055987D01*
X0264334Y0055987D01*
X0263165Y0055503D01*
X0262507Y0054844D01*
X0261848Y0055503D01*
X0260679Y0055987D01*
X0259413Y0055987D01*
X0258244Y0055503D01*
X0257585Y0054844D01*
X0256927Y0055503D01*
X0255757Y0055987D01*
X0254492Y0055987D01*
X0253323Y0055503D01*
X0252664Y0054844D01*
X0252005Y0055503D01*
X0250836Y0055987D01*
X0249571Y0055987D01*
X0252030Y0055478D02*
X0253298Y0055478D01*
X0251602Y0058672D02*
X0274863Y0058672D01*
X0274863Y0059470D02*
X0274769Y0059470D01*
X0272744Y0059470D02*
X0271019Y0059470D01*
X0271817Y0060269D02*
X0271946Y0060269D01*
X0268994Y0059470D02*
X0252401Y0059470D01*
X0253199Y0060269D02*
X0268196Y0060269D01*
X0269525Y0065858D02*
X0274863Y0065858D01*
X0274863Y0065060D02*
X0272849Y0065060D01*
X0273647Y0064261D02*
X0274863Y0064261D01*
X0274863Y0066657D02*
X0269525Y0066657D01*
X0269525Y0067455D02*
X0274863Y0067455D01*
X0274863Y0068254D02*
X0269525Y0068254D01*
X0271297Y0069053D02*
X0273091Y0069053D01*
X0273091Y0069851D02*
X0271297Y0069851D01*
X0271297Y0070650D02*
X0273091Y0070650D01*
X0273091Y0071448D02*
X0271297Y0071448D01*
X0271297Y0072247D02*
X0273091Y0072247D01*
X0273091Y0073045D02*
X0271297Y0073045D01*
X0271171Y0073844D02*
X0273217Y0073844D01*
X0273295Y0075441D02*
X0271093Y0075441D01*
X0271297Y0076239D02*
X0273091Y0076239D01*
X0273091Y0077038D02*
X0271297Y0077038D01*
X0271297Y0077836D02*
X0273091Y0077836D01*
X0273091Y0078635D02*
X0271297Y0078635D01*
X0271297Y0079433D02*
X0273091Y0079433D01*
X0273091Y0080232D02*
X0271297Y0080232D01*
X0269932Y0081030D02*
X0274863Y0081030D01*
X0274863Y0081829D02*
X0269932Y0081829D01*
X0269932Y0082627D02*
X0274863Y0082627D01*
X0274863Y0083426D02*
X0270322Y0083426D01*
X0270322Y0084224D02*
X0274117Y0084224D01*
X0276462Y0085821D02*
X0288770Y0085821D01*
X0287972Y0086620D02*
X0275664Y0086620D01*
X0275463Y0086821D02*
X0275246Y0087037D01*
X0287554Y0087037D01*
X0291113Y0083479D01*
X0291113Y0080135D01*
X0290788Y0079810D01*
X0290289Y0080309D01*
X0288566Y0080309D01*
X0288566Y0080410D01*
X0287980Y0080996D01*
X0286885Y0080996D01*
X0286885Y0082463D01*
X0285601Y0083747D01*
X0283787Y0083747D01*
X0282504Y0082463D01*
X0282504Y0080679D01*
X0282235Y0080410D01*
X0282235Y0079926D01*
X0281539Y0080622D01*
X0279724Y0080622D01*
X0279422Y0080319D01*
X0279422Y0080410D01*
X0278836Y0080996D01*
X0277650Y0080996D01*
X0277650Y0084633D01*
X0275463Y0086821D01*
X0277261Y0085023D02*
X0289569Y0085023D01*
X0290367Y0084224D02*
X0277650Y0084224D01*
X0277650Y0083426D02*
X0283466Y0083426D01*
X0282667Y0082627D02*
X0277650Y0082627D01*
X0277650Y0081829D02*
X0282504Y0081829D01*
X0282504Y0081030D02*
X0277650Y0081030D01*
X0281929Y0080232D02*
X0282235Y0080232D01*
X0286885Y0081030D02*
X0291113Y0081030D01*
X0291113Y0080232D02*
X0290366Y0080232D01*
X0291113Y0081829D02*
X0286885Y0081829D01*
X0286721Y0082627D02*
X0291113Y0082627D01*
X0291113Y0083426D02*
X0285922Y0083426D01*
X0282235Y0076239D02*
X0282025Y0076239D01*
X0282025Y0075441D02*
X0282439Y0075441D01*
X0282025Y0074642D02*
X0294120Y0074642D01*
X0294120Y0073844D02*
X0288439Y0073844D01*
X0288566Y0073045D02*
X0294623Y0073045D01*
X0295891Y0072247D02*
X0288566Y0072247D01*
X0288566Y0071448D02*
X0295891Y0071448D01*
X0295891Y0070650D02*
X0288566Y0070650D01*
X0288566Y0069851D02*
X0294407Y0069851D01*
X0294317Y0069053D02*
X0289209Y0069053D01*
X0290008Y0068254D02*
X0294317Y0068254D01*
X0294317Y0067455D02*
X0290806Y0067455D01*
X0291605Y0066657D02*
X0294317Y0066657D01*
X0294317Y0065858D02*
X0291807Y0065858D01*
X0291807Y0065060D02*
X0294317Y0065060D01*
X0294657Y0064261D02*
X0293592Y0064261D01*
X0293959Y0063463D02*
X0300618Y0063463D01*
X0299914Y0064261D02*
X0301350Y0064261D01*
X0301010Y0065060D02*
X0300254Y0065060D01*
X0300254Y0065858D02*
X0301010Y0065858D01*
X0301010Y0066657D02*
X0300254Y0066657D01*
X0300254Y0067455D02*
X0301010Y0067455D01*
X0301010Y0068254D02*
X0300254Y0068254D01*
X0300254Y0069053D02*
X0301010Y0069053D01*
X0301100Y0069851D02*
X0300163Y0069851D01*
X0294120Y0075441D02*
X0288361Y0075441D01*
X0290600Y0076239D02*
X0294120Y0076239D01*
X0300130Y0078635D02*
X0300620Y0078635D01*
X0286514Y0066657D02*
X0277650Y0066657D01*
X0277650Y0067455D02*
X0285715Y0067455D01*
X0284917Y0068254D02*
X0277650Y0068254D01*
X0279422Y0069053D02*
X0282235Y0069053D01*
X0282235Y0069851D02*
X0279422Y0069851D01*
X0280446Y0070650D02*
X0282235Y0070650D01*
X0282235Y0071448D02*
X0281244Y0071448D01*
X0282025Y0072247D02*
X0282235Y0072247D01*
X0282235Y0073045D02*
X0282025Y0073045D01*
X0282025Y0073844D02*
X0282361Y0073844D01*
X0279238Y0074642D02*
X0257926Y0074642D01*
X0257926Y0073844D02*
X0265092Y0073844D01*
X0264966Y0073045D02*
X0257926Y0073045D01*
X0257387Y0072247D02*
X0264966Y0072247D01*
X0264966Y0071448D02*
X0193057Y0071448D01*
X0193057Y0070650D02*
X0264966Y0070650D01*
X0264966Y0069851D02*
X0193057Y0069851D01*
X0193057Y0069053D02*
X0264966Y0069053D01*
X0266738Y0068254D02*
X0193057Y0068254D01*
X0193057Y0067455D02*
X0266738Y0067455D01*
X0266738Y0066657D02*
X0193057Y0066657D01*
X0193057Y0065858D02*
X0266738Y0065858D01*
X0277650Y0065858D02*
X0287312Y0065858D01*
X0288111Y0065060D02*
X0277650Y0065060D01*
X0277650Y0064261D02*
X0286421Y0064261D01*
X0286054Y0063463D02*
X0277650Y0063463D01*
X0277650Y0062664D02*
X0284819Y0062664D01*
X0284021Y0061866D02*
X0277650Y0061866D01*
X0277650Y0061067D02*
X0283222Y0061067D01*
X0282424Y0060269D02*
X0277650Y0060269D01*
X0277650Y0059470D02*
X0281957Y0059470D01*
X0281957Y0058672D02*
X0277650Y0058672D01*
X0277650Y0057873D02*
X0281957Y0057873D01*
X0281957Y0057075D02*
X0277496Y0057075D01*
X0277558Y0056276D02*
X0281957Y0056276D01*
X0281957Y0055478D02*
X0278309Y0055478D01*
X0278391Y0054679D02*
X0281957Y0054679D01*
X0281957Y0053881D02*
X0278391Y0053881D01*
X0278391Y0053082D02*
X0281957Y0053082D01*
X0281957Y0052284D02*
X0278391Y0052284D01*
X0278391Y0051485D02*
X0281388Y0051485D01*
X0280589Y0050687D02*
X0278391Y0050687D01*
X0278182Y0049888D02*
X0279790Y0049888D01*
X0275000Y0049888D02*
X0274619Y0049888D01*
X0274619Y0050687D02*
X0275000Y0050687D01*
X0275000Y0051485D02*
X0274619Y0051485D01*
X0274619Y0052284D02*
X0275000Y0052284D01*
X0271437Y0049888D02*
X0271157Y0049888D01*
X0268620Y0049888D02*
X0266235Y0049888D01*
X0267347Y0050687D02*
X0267509Y0050687D01*
X0263140Y0055478D02*
X0261873Y0055478D01*
X0258219Y0055478D02*
X0256952Y0055478D01*
X0248403Y0049888D02*
X0244532Y0049888D01*
X0244532Y0049090D02*
X0248403Y0049090D01*
X0248669Y0048291D02*
X0244532Y0048291D01*
X0244532Y0047493D02*
X0249467Y0047493D01*
X0250266Y0046694D02*
X0244000Y0046694D01*
X0243201Y0045896D02*
X0251064Y0045896D01*
X0251863Y0045097D02*
X0242403Y0045097D01*
X0241257Y0045931D02*
X0243132Y0047806D01*
X0243132Y0052181D01*
X0253132Y0062181D01*
X0252551Y0064101D02*
X0241195Y0052744D01*
X0241195Y0048336D01*
X0240665Y0047806D01*
X0233132Y0047806D01*
X0233886Y0049888D02*
X0239795Y0049888D01*
X0239795Y0050687D02*
X0234095Y0050687D01*
X0234095Y0051485D02*
X0239795Y0051485D01*
X0239795Y0052284D02*
X0234095Y0052284D01*
X0234095Y0053082D02*
X0239795Y0053082D01*
X0240351Y0053881D02*
X0234095Y0053881D01*
X0234095Y0054679D02*
X0241150Y0054679D01*
X0241948Y0055478D02*
X0234012Y0055478D01*
X0233262Y0056276D02*
X0242747Y0056276D01*
X0243545Y0057075D02*
X0193057Y0057075D01*
X0193057Y0057873D02*
X0244344Y0057873D01*
X0245142Y0058672D02*
X0193057Y0058672D01*
X0193057Y0059470D02*
X0245941Y0059470D01*
X0246739Y0060269D02*
X0193057Y0060269D01*
X0193057Y0061067D02*
X0247538Y0061067D01*
X0248336Y0061866D02*
X0193057Y0061866D01*
X0193057Y0062664D02*
X0249135Y0062664D01*
X0249933Y0063463D02*
X0193057Y0063463D01*
X0193057Y0064261D02*
X0250732Y0064261D01*
X0251531Y0065060D02*
X0193057Y0065060D01*
X0189457Y0065060D02*
X0188135Y0065060D01*
X0188135Y0065858D02*
X0189457Y0065858D01*
X0189457Y0066657D02*
X0188135Y0066657D01*
X0188135Y0067455D02*
X0189457Y0067455D01*
X0189457Y0068254D02*
X0188135Y0068254D01*
X0188135Y0069053D02*
X0189457Y0069053D01*
X0189457Y0069851D02*
X0188135Y0069851D01*
X0188135Y0070650D02*
X0189457Y0070650D01*
X0189457Y0071448D02*
X0188135Y0071448D01*
X0188135Y0072247D02*
X0189457Y0072247D01*
X0189457Y0073045D02*
X0188135Y0073045D01*
X0188135Y0073844D02*
X0189457Y0073844D01*
X0189457Y0074642D02*
X0188135Y0074642D01*
X0188135Y0075441D02*
X0189457Y0075441D01*
X0189457Y0076239D02*
X0188135Y0076239D01*
X0188135Y0077038D02*
X0189457Y0077038D01*
X0189457Y0077836D02*
X0188135Y0077836D01*
X0188135Y0078635D02*
X0189457Y0078635D01*
X0189457Y0079433D02*
X0188135Y0079433D01*
X0187627Y0080232D02*
X0189457Y0080232D01*
X0189457Y0081030D02*
X0186828Y0081030D01*
X0186030Y0081829D02*
X0189457Y0081829D01*
X0189457Y0082627D02*
X0185231Y0082627D01*
X0184433Y0083426D02*
X0189457Y0083426D01*
X0189457Y0084224D02*
X0183634Y0084224D01*
X0183388Y0085023D02*
X0189457Y0085023D01*
X0189446Y0085821D02*
X0182589Y0085821D01*
X0179924Y0085821D02*
X0100775Y0085821D01*
X0100775Y0085023D02*
X0179125Y0085023D01*
X0179066Y0084224D02*
X0100775Y0084224D01*
X0100775Y0083426D02*
X0179066Y0083426D01*
X0179588Y0082627D02*
X0100906Y0082627D01*
X0101705Y0081829D02*
X0180938Y0081829D01*
X0181737Y0081030D02*
X0110003Y0081030D01*
X0110802Y0080232D02*
X0182535Y0080232D01*
X0183334Y0079433D02*
X0111600Y0079433D01*
X0112399Y0078635D02*
X0184132Y0078635D01*
X0184535Y0077836D02*
X0130698Y0077836D01*
X0131496Y0077038D02*
X0184535Y0077038D01*
X0184535Y0076239D02*
X0132295Y0076239D01*
X0133093Y0075441D02*
X0184535Y0075441D01*
X0184535Y0074642D02*
X0133892Y0074642D01*
X0134690Y0073844D02*
X0147147Y0073844D01*
X0147174Y0073855D02*
X0146005Y0073370D01*
X0145110Y0072476D01*
X0144625Y0071306D01*
X0144625Y0070041D01*
X0145110Y0068872D01*
X0145768Y0068213D01*
X0145110Y0067554D01*
X0144625Y0066385D01*
X0144625Y0065120D01*
X0145110Y0063950D01*
X0145768Y0063292D01*
X0145110Y0062633D01*
X0144625Y0061464D01*
X0144625Y0060198D01*
X0145110Y0059029D01*
X0145759Y0058380D01*
X0145090Y0057712D01*
X0144606Y0056543D01*
X0144606Y0055277D01*
X0144970Y0054397D01*
X0144786Y0054290D01*
X0144525Y0054029D01*
X0144341Y0053710D01*
X0144245Y0053354D01*
X0144245Y0051179D01*
X0147636Y0051179D01*
X0147636Y0050798D01*
X0148017Y0050798D01*
X0148017Y0051179D01*
X0151407Y0051179D01*
X0151407Y0053354D01*
X0151312Y0053710D01*
X0151128Y0054029D01*
X0150867Y0054290D01*
X0150618Y0054433D01*
X0150968Y0055277D01*
X0150968Y0056543D01*
X0150484Y0057712D01*
X0149835Y0058361D01*
X0150503Y0059029D01*
X0150988Y0060198D01*
X0150988Y0061464D01*
X0150503Y0062633D01*
X0149845Y0063292D01*
X0150503Y0063950D01*
X0150988Y0065120D01*
X0150988Y0066385D01*
X0150503Y0067554D01*
X0149845Y0068213D01*
X0150503Y0068872D01*
X0150988Y0070041D01*
X0150988Y0071306D01*
X0150503Y0072476D01*
X0149609Y0073370D01*
X0148439Y0073855D01*
X0147174Y0073855D01*
X0148466Y0073844D02*
X0184535Y0073844D01*
X0184535Y0073045D02*
X0149934Y0073045D01*
X0150598Y0072247D02*
X0184535Y0072247D01*
X0184535Y0071448D02*
X0150929Y0071448D01*
X0150988Y0070650D02*
X0184535Y0070650D01*
X0184535Y0069851D02*
X0150909Y0069851D01*
X0150578Y0069053D02*
X0184535Y0069053D01*
X0184535Y0068254D02*
X0149886Y0068254D01*
X0150544Y0067455D02*
X0184535Y0067455D01*
X0184535Y0066657D02*
X0150875Y0066657D01*
X0150988Y0065858D02*
X0184535Y0065858D01*
X0184535Y0065060D02*
X0150963Y0065060D01*
X0150632Y0064261D02*
X0184535Y0064261D01*
X0184535Y0063463D02*
X0150016Y0063463D01*
X0150472Y0062664D02*
X0184535Y0062664D01*
X0184535Y0061866D02*
X0150821Y0061866D01*
X0150988Y0061067D02*
X0184535Y0061067D01*
X0184535Y0060269D02*
X0150988Y0060269D01*
X0150686Y0059470D02*
X0184535Y0059470D01*
X0184535Y0058672D02*
X0150146Y0058672D01*
X0150322Y0057873D02*
X0184535Y0057873D01*
X0184535Y0057075D02*
X0150748Y0057075D01*
X0150968Y0056276D02*
X0184535Y0056276D01*
X0184508Y0055478D02*
X0150968Y0055478D01*
X0150720Y0054679D02*
X0183710Y0054679D01*
X0183337Y0053881D02*
X0151213Y0053881D01*
X0151407Y0053082D02*
X0183154Y0053082D01*
X0183154Y0052284D02*
X0151407Y0052284D01*
X0151407Y0051485D02*
X0183439Y0051485D01*
X0183956Y0050687D02*
X0151407Y0050687D01*
X0151407Y0050798D02*
X0151407Y0048623D01*
X0151312Y0048267D01*
X0151128Y0047948D01*
X0150867Y0047687D01*
X0150548Y0047503D01*
X0150192Y0047407D01*
X0148017Y0047407D01*
X0148017Y0050798D01*
X0151407Y0050798D01*
X0151407Y0049888D02*
X0185067Y0049888D01*
X0187604Y0049888D02*
X0189457Y0049888D01*
X0189457Y0049090D02*
X0151407Y0049090D01*
X0151318Y0048291D02*
X0189457Y0048291D01*
X0189649Y0047493D02*
X0150510Y0047493D01*
X0148017Y0047493D02*
X0147636Y0047493D01*
X0147636Y0047407D02*
X0147636Y0050798D01*
X0144245Y0050798D01*
X0144245Y0048623D01*
X0144341Y0048267D01*
X0144525Y0047948D01*
X0144786Y0047687D01*
X0145105Y0047503D01*
X0145461Y0047407D01*
X0147636Y0047407D01*
X0147636Y0048291D02*
X0148017Y0048291D01*
X0148017Y0049090D02*
X0147636Y0049090D01*
X0147636Y0049888D02*
X0148017Y0049888D01*
X0148017Y0050687D02*
X0147636Y0050687D01*
X0144245Y0050687D02*
X0129607Y0050687D01*
X0129607Y0050798D02*
X0129607Y0048623D01*
X0129512Y0048267D01*
X0129328Y0047948D01*
X0129067Y0047687D01*
X0128748Y0047503D01*
X0128392Y0047407D01*
X0126217Y0047407D01*
X0126217Y0050798D01*
X0126217Y0051179D01*
X0129607Y0051179D01*
X0129607Y0053354D01*
X0129512Y0053710D01*
X0129328Y0054029D01*
X0129067Y0054290D01*
X0128819Y0054433D01*
X0129168Y0055277D01*
X0129168Y0056543D01*
X0128684Y0057712D01*
X0128035Y0058361D01*
X0128703Y0059029D01*
X0129188Y0060198D01*
X0129188Y0061464D01*
X0128703Y0062633D01*
X0128045Y0063292D01*
X0128703Y0063950D01*
X0129188Y0065120D01*
X0129188Y0066385D01*
X0128703Y0067554D01*
X0128045Y0068213D01*
X0128703Y0068872D01*
X0129188Y0070041D01*
X0129188Y0071306D01*
X0128703Y0072476D01*
X0127809Y0073370D01*
X0126639Y0073855D01*
X0125374Y0073855D01*
X0124205Y0073370D01*
X0123310Y0072476D01*
X0122825Y0071306D01*
X0122825Y0070041D01*
X0123310Y0068872D01*
X0123968Y0068213D01*
X0123310Y0067554D01*
X0122825Y0066385D01*
X0122825Y0065120D01*
X0123310Y0063950D01*
X0123968Y0063292D01*
X0123310Y0062633D01*
X0122825Y0061464D01*
X0122825Y0060198D01*
X0123310Y0059029D01*
X0123959Y0058380D01*
X0123290Y0057712D01*
X0122806Y0056543D01*
X0122806Y0055277D01*
X0123170Y0054397D01*
X0122986Y0054290D01*
X0122725Y0054029D01*
X0122541Y0053710D01*
X0122445Y0053354D01*
X0122445Y0051179D01*
X0125836Y0051179D01*
X0125836Y0050798D01*
X0126217Y0050798D01*
X0129607Y0050798D01*
X0129607Y0051485D02*
X0144245Y0051485D01*
X0144245Y0052284D02*
X0129607Y0052284D01*
X0129607Y0053082D02*
X0144245Y0053082D01*
X0144439Y0053881D02*
X0129413Y0053881D01*
X0128920Y0054679D02*
X0144853Y0054679D01*
X0144606Y0055478D02*
X0129168Y0055478D01*
X0129168Y0056276D02*
X0144606Y0056276D01*
X0144826Y0057075D02*
X0128948Y0057075D01*
X0128522Y0057873D02*
X0145252Y0057873D01*
X0145467Y0058672D02*
X0128346Y0058672D01*
X0128886Y0059470D02*
X0144927Y0059470D01*
X0144625Y0060269D02*
X0129188Y0060269D01*
X0129188Y0061067D02*
X0144625Y0061067D01*
X0144792Y0061866D02*
X0129021Y0061866D01*
X0128672Y0062664D02*
X0145141Y0062664D01*
X0145597Y0063463D02*
X0128216Y0063463D01*
X0128832Y0064261D02*
X0139203Y0064261D01*
X0138441Y0065060D02*
X0129163Y0065060D01*
X0129188Y0065858D02*
X0138441Y0065858D01*
X0137935Y0066657D02*
X0129075Y0066657D01*
X0128744Y0067455D02*
X0137136Y0067455D01*
X0136338Y0068254D02*
X0128086Y0068254D01*
X0128778Y0069053D02*
X0135539Y0069053D01*
X0134741Y0069851D02*
X0129109Y0069851D01*
X0129188Y0070650D02*
X0133942Y0070650D01*
X0133144Y0071448D02*
X0129129Y0071448D01*
X0128798Y0072247D02*
X0132345Y0072247D01*
X0131547Y0073045D02*
X0128134Y0073045D01*
X0126666Y0073844D02*
X0130748Y0073844D01*
X0129950Y0074642D02*
X0112642Y0074642D01*
X0113440Y0073844D02*
X0125347Y0073844D01*
X0123879Y0073045D02*
X0114239Y0073045D01*
X0115037Y0072247D02*
X0123215Y0072247D01*
X0122884Y0071448D02*
X0115836Y0071448D01*
X0116634Y0070650D02*
X0122825Y0070650D01*
X0122904Y0069851D02*
X0117433Y0069851D01*
X0118231Y0069053D02*
X0123235Y0069053D01*
X0123927Y0068254D02*
X0119030Y0068254D01*
X0120955Y0067455D02*
X0123269Y0067455D01*
X0122938Y0066657D02*
X0121572Y0066657D01*
X0121572Y0065858D02*
X0122825Y0065858D01*
X0122850Y0065060D02*
X0121572Y0065060D01*
X0120810Y0064261D02*
X0123181Y0064261D01*
X0123797Y0063463D02*
X0106416Y0063463D01*
X0106245Y0063292D02*
X0106903Y0063950D01*
X0107388Y0065120D01*
X0107388Y0066385D01*
X0106903Y0067554D01*
X0106245Y0068213D01*
X0106903Y0068872D01*
X0107388Y0070041D01*
X0107388Y0071306D01*
X0106903Y0072476D01*
X0106009Y0073370D01*
X0104839Y0073855D01*
X0103574Y0073855D01*
X0102405Y0073370D01*
X0101510Y0072476D01*
X0101025Y0071306D01*
X0101025Y0070041D01*
X0101510Y0068872D01*
X0102168Y0068213D01*
X0101510Y0067554D01*
X0101025Y0066385D01*
X0101025Y0065120D01*
X0101510Y0063950D01*
X0102168Y0063292D01*
X0101510Y0062633D01*
X0101025Y0061464D01*
X0101025Y0060198D01*
X0101510Y0059029D01*
X0102159Y0058380D01*
X0101490Y0057712D01*
X0101006Y0056543D01*
X0101006Y0055277D01*
X0101370Y0054397D01*
X0101186Y0054290D01*
X0100925Y0054029D01*
X0100741Y0053710D01*
X0100645Y0053354D01*
X0100645Y0051179D01*
X0104036Y0051179D01*
X0104036Y0050798D01*
X0104417Y0050798D01*
X0104417Y0051179D01*
X0107807Y0051179D01*
X0107807Y0053354D01*
X0107712Y0053710D01*
X0107528Y0054029D01*
X0107267Y0054290D01*
X0107019Y0054433D01*
X0107368Y0055277D01*
X0107368Y0056543D01*
X0106884Y0057712D01*
X0106235Y0058361D01*
X0106903Y0059029D01*
X0107388Y0060198D01*
X0107388Y0061464D01*
X0106903Y0062633D01*
X0106245Y0063292D01*
X0106872Y0062664D02*
X0123341Y0062664D01*
X0122992Y0061866D02*
X0107221Y0061866D01*
X0107388Y0061067D02*
X0122825Y0061067D01*
X0122825Y0060269D02*
X0107388Y0060269D01*
X0107086Y0059470D02*
X0123127Y0059470D01*
X0123667Y0058672D02*
X0106546Y0058672D01*
X0106722Y0057873D02*
X0123452Y0057873D01*
X0123026Y0057075D02*
X0107148Y0057075D01*
X0107368Y0056276D02*
X0122806Y0056276D01*
X0122806Y0055478D02*
X0107368Y0055478D01*
X0107120Y0054679D02*
X0123053Y0054679D01*
X0122639Y0053881D02*
X0107613Y0053881D01*
X0107807Y0053082D02*
X0122445Y0053082D01*
X0122445Y0052284D02*
X0107807Y0052284D01*
X0107807Y0051485D02*
X0122445Y0051485D01*
X0122445Y0050798D02*
X0122445Y0048623D01*
X0122541Y0048267D01*
X0122725Y0047948D01*
X0122986Y0047687D01*
X0123305Y0047503D01*
X0123661Y0047407D01*
X0125836Y0047407D01*
X0125836Y0050798D01*
X0122445Y0050798D01*
X0122445Y0050687D02*
X0107807Y0050687D01*
X0107807Y0050798D02*
X0107807Y0048623D01*
X0107712Y0048267D01*
X0107528Y0047948D01*
X0107267Y0047687D01*
X0106948Y0047503D01*
X0106592Y0047407D01*
X0104417Y0047407D01*
X0104417Y0050798D01*
X0107807Y0050798D01*
X0107807Y0049888D02*
X0122445Y0049888D01*
X0122445Y0049090D02*
X0107807Y0049090D01*
X0107718Y0048291D02*
X0122534Y0048291D01*
X0123343Y0047493D02*
X0106910Y0047493D01*
X0104417Y0047493D02*
X0104036Y0047493D01*
X0104036Y0047407D02*
X0104036Y0050798D01*
X0100645Y0050798D01*
X0100645Y0048623D01*
X0100741Y0048267D01*
X0100925Y0047948D01*
X0101186Y0047687D01*
X0101505Y0047503D01*
X0101861Y0047407D01*
X0104036Y0047407D01*
X0104036Y0048291D02*
X0104417Y0048291D01*
X0104417Y0049090D02*
X0104036Y0049090D01*
X0104036Y0049888D02*
X0104417Y0049888D01*
X0104417Y0050687D02*
X0104036Y0050687D01*
X0100645Y0050687D02*
X0086007Y0050687D01*
X0086007Y0050798D02*
X0086007Y0048623D01*
X0085912Y0048267D01*
X0085728Y0047948D01*
X0085467Y0047687D01*
X0085148Y0047503D01*
X0084792Y0047407D01*
X0082617Y0047407D01*
X0082617Y0050798D01*
X0082617Y0051179D01*
X0086007Y0051179D01*
X0086007Y0053354D01*
X0085912Y0053710D01*
X0085728Y0054029D01*
X0085467Y0054290D01*
X0085218Y0054433D01*
X0085568Y0055277D01*
X0085568Y0056543D01*
X0085084Y0057712D01*
X0084435Y0058361D01*
X0085103Y0059029D01*
X0085588Y0060198D01*
X0085588Y0061464D01*
X0085103Y0062633D01*
X0084445Y0063292D01*
X0085103Y0063950D01*
X0085588Y0065120D01*
X0085588Y0066385D01*
X0085103Y0067554D01*
X0084445Y0068213D01*
X0085103Y0068872D01*
X0085588Y0070041D01*
X0085588Y0071306D01*
X0085103Y0072476D01*
X0084209Y0073370D01*
X0083039Y0073855D01*
X0081774Y0073855D01*
X0080605Y0073370D01*
X0079710Y0072476D01*
X0079225Y0071306D01*
X0079225Y0070041D01*
X0079710Y0068872D01*
X0080368Y0068213D01*
X0079710Y0067554D01*
X0079225Y0066385D01*
X0079225Y0065120D01*
X0079710Y0063950D01*
X0080368Y0063292D01*
X0079710Y0062633D01*
X0079225Y0061464D01*
X0079225Y0060198D01*
X0079710Y0059029D01*
X0080359Y0058380D01*
X0079690Y0057712D01*
X0079206Y0056543D01*
X0079206Y0055277D01*
X0079570Y0054397D01*
X0079386Y0054290D01*
X0079125Y0054029D01*
X0078941Y0053710D01*
X0078845Y0053354D01*
X0078845Y0051179D01*
X0082236Y0051179D01*
X0082236Y0050798D01*
X0082617Y0050798D01*
X0086007Y0050798D01*
X0086007Y0051485D02*
X0100645Y0051485D01*
X0100645Y0052284D02*
X0086007Y0052284D01*
X0086007Y0053082D02*
X0100645Y0053082D01*
X0100839Y0053881D02*
X0085813Y0053881D01*
X0085320Y0054679D02*
X0101253Y0054679D01*
X0101006Y0055478D02*
X0085568Y0055478D01*
X0085568Y0056276D02*
X0101006Y0056276D01*
X0101226Y0057075D02*
X0085348Y0057075D01*
X0084922Y0057873D02*
X0101652Y0057873D01*
X0101867Y0058672D02*
X0084746Y0058672D01*
X0085286Y0059470D02*
X0101327Y0059470D01*
X0101025Y0060269D02*
X0085588Y0060269D01*
X0085588Y0061067D02*
X0101025Y0061067D01*
X0101192Y0061866D02*
X0085421Y0061866D01*
X0085072Y0062664D02*
X0101541Y0062664D01*
X0101997Y0063463D02*
X0084616Y0063463D01*
X0085232Y0064261D02*
X0087328Y0064261D01*
X0086566Y0065060D02*
X0085563Y0065060D01*
X0085588Y0065858D02*
X0086566Y0065858D01*
X0086566Y0066657D02*
X0085475Y0066657D01*
X0085144Y0067455D02*
X0087183Y0067455D01*
X0089108Y0068254D02*
X0084486Y0068254D01*
X0085178Y0069053D02*
X0089907Y0069053D01*
X0090488Y0069851D02*
X0085509Y0069851D01*
X0085588Y0070650D02*
X0090488Y0070650D01*
X0090488Y0071448D02*
X0085529Y0071448D01*
X0085198Y0072247D02*
X0090488Y0072247D01*
X0090488Y0073045D02*
X0084534Y0073045D01*
X0083066Y0073844D02*
X0090488Y0073844D01*
X0090488Y0074642D02*
X0053907Y0074642D01*
X0053907Y0073844D02*
X0081747Y0073844D01*
X0080279Y0073045D02*
X0053907Y0073045D01*
X0053907Y0072247D02*
X0079615Y0072247D01*
X0079284Y0071448D02*
X0053907Y0071448D01*
X0053907Y0070650D02*
X0079225Y0070650D01*
X0079304Y0069851D02*
X0053907Y0069851D01*
X0053907Y0069053D02*
X0079635Y0069053D01*
X0080327Y0068254D02*
X0053907Y0068254D01*
X0053907Y0067455D02*
X0079669Y0067455D01*
X0079338Y0066657D02*
X0053907Y0066657D01*
X0053907Y0065858D02*
X0079225Y0065858D01*
X0079250Y0065060D02*
X0053907Y0065060D01*
X0053907Y0064261D02*
X0079581Y0064261D01*
X0080197Y0063463D02*
X0053907Y0063463D01*
X0053907Y0062664D02*
X0079741Y0062664D01*
X0079392Y0061866D02*
X0053907Y0061866D01*
X0053907Y0061067D02*
X0079225Y0061067D01*
X0079225Y0060269D02*
X0053907Y0060269D01*
X0053907Y0059470D02*
X0079527Y0059470D01*
X0080067Y0058672D02*
X0053907Y0058672D01*
X0053907Y0057873D02*
X0079852Y0057873D01*
X0079426Y0057075D02*
X0053907Y0057075D01*
X0053907Y0056276D02*
X0079206Y0056276D01*
X0079206Y0055478D02*
X0053907Y0055478D01*
X0053907Y0054679D02*
X0079453Y0054679D01*
X0079039Y0053881D02*
X0053907Y0053881D01*
X0053907Y0053082D02*
X0057755Y0053082D01*
X0057246Y0052871D02*
X0059280Y0053714D01*
X0061481Y0053714D01*
X0063515Y0052871D01*
X0065072Y0051315D01*
X0065914Y0049281D01*
X0065914Y0047079D01*
X0065072Y0045045D01*
X0063515Y0043489D01*
X0061481Y0042646D01*
X0059280Y0042646D01*
X0057246Y0043489D01*
X0055689Y0045045D01*
X0054847Y0047079D01*
X0054847Y0049281D01*
X0055689Y0051315D01*
X0057246Y0052871D01*
X0056658Y0052284D02*
X0053907Y0052284D01*
X0053907Y0051485D02*
X0055860Y0051485D01*
X0055429Y0050687D02*
X0053907Y0050687D01*
X0053907Y0049888D02*
X0055098Y0049888D01*
X0054847Y0049090D02*
X0053907Y0049090D01*
X0053907Y0048291D02*
X0054847Y0048291D01*
X0054847Y0047493D02*
X0053907Y0047493D01*
X0053907Y0046694D02*
X0055006Y0046694D01*
X0055337Y0045896D02*
X0053907Y0045896D01*
X0053907Y0045097D02*
X0055668Y0045097D01*
X0056436Y0044299D02*
X0053907Y0044299D01*
X0053907Y0043500D02*
X0057234Y0043500D01*
X0059146Y0042702D02*
X0053907Y0042702D01*
X0053907Y0041903D02*
X0307012Y0041903D01*
X0307012Y0042702D02*
X0301772Y0042702D01*
X0303684Y0043500D02*
X0307012Y0043500D01*
X0307012Y0044299D02*
X0304483Y0044299D01*
X0305251Y0045097D02*
X0307012Y0045097D01*
X0307012Y0045896D02*
X0305582Y0045896D01*
X0305912Y0046694D02*
X0307012Y0046694D01*
X0307012Y0047493D02*
X0306072Y0047493D01*
X0306072Y0048291D02*
X0307012Y0048291D01*
X0307012Y0049090D02*
X0306072Y0049090D01*
X0305820Y0049888D02*
X0307012Y0049888D01*
X0307012Y0050687D02*
X0305490Y0050687D01*
X0305059Y0051485D02*
X0307012Y0051485D01*
X0307012Y0052284D02*
X0304260Y0052284D01*
X0303164Y0053082D02*
X0307012Y0053082D01*
X0296017Y0051485D02*
X0294359Y0051485D01*
X0294356Y0050687D02*
X0295587Y0050687D01*
X0295256Y0049888D02*
X0293946Y0049888D01*
X0290407Y0049888D02*
X0289607Y0049888D01*
X0289607Y0050687D02*
X0290407Y0050687D01*
X0290407Y0051485D02*
X0289607Y0051485D01*
X0285654Y0053881D02*
X0285557Y0053881D01*
X0285557Y0054679D02*
X0285654Y0054679D01*
X0285654Y0055478D02*
X0285557Y0055478D01*
X0285557Y0056276D02*
X0285678Y0056276D01*
X0285557Y0057075D02*
X0286149Y0057075D01*
X0286128Y0057873D02*
X0285557Y0057873D01*
X0285918Y0058672D02*
X0286054Y0058672D01*
X0296593Y0044299D02*
X0064325Y0044299D01*
X0065093Y0045097D02*
X0192045Y0045097D01*
X0191246Y0045896D02*
X0065424Y0045896D01*
X0065755Y0046694D02*
X0190448Y0046694D01*
X0193144Y0049090D02*
X0213745Y0049090D01*
X0213950Y0049888D02*
X0199539Y0049888D01*
X0199759Y0050687D02*
X0213370Y0050687D01*
X0212854Y0051485D02*
X0199759Y0051485D01*
X0199759Y0052284D02*
X0212569Y0052284D01*
X0212569Y0053082D02*
X0199759Y0053082D01*
X0199759Y0053881D02*
X0212752Y0053881D01*
X0213124Y0054679D02*
X0199759Y0054679D01*
X0199682Y0055478D02*
X0213923Y0055478D01*
X0217577Y0055478D02*
X0218844Y0055478D01*
X0222498Y0055478D02*
X0223765Y0055478D01*
X0227765Y0056276D02*
X0198960Y0056276D01*
X0196368Y0056276D02*
X0195987Y0056276D01*
X0195987Y0055478D02*
X0196368Y0055478D01*
X0196368Y0054679D02*
X0195987Y0054679D01*
X0195987Y0053881D02*
X0196368Y0053881D01*
X0196368Y0053082D02*
X0195987Y0053082D01*
X0195987Y0052284D02*
X0196368Y0052284D01*
X0196368Y0051485D02*
X0195987Y0051485D01*
X0195987Y0050687D02*
X0196368Y0050687D01*
X0196368Y0049888D02*
X0195987Y0049888D01*
X0193395Y0056276D02*
X0193057Y0056276D01*
X0189457Y0056276D02*
X0188135Y0056276D01*
X0188162Y0055478D02*
X0189449Y0055478D01*
X0189457Y0057075D02*
X0188135Y0057075D01*
X0188135Y0057873D02*
X0189457Y0057873D01*
X0189457Y0058672D02*
X0188135Y0058672D01*
X0188135Y0059470D02*
X0189457Y0059470D01*
X0189457Y0060269D02*
X0188135Y0060269D01*
X0188135Y0061067D02*
X0189457Y0061067D01*
X0189457Y0061866D02*
X0188135Y0061866D01*
X0188135Y0062664D02*
X0189457Y0062664D01*
X0189457Y0063463D02*
X0188135Y0063463D01*
X0188135Y0064261D02*
X0189457Y0064261D01*
X0193057Y0072247D02*
X0240126Y0072247D01*
X0239587Y0073045D02*
X0193057Y0073045D01*
X0193057Y0073844D02*
X0239587Y0073844D01*
X0239587Y0077836D02*
X0193057Y0077836D01*
X0193057Y0078635D02*
X0239587Y0078635D01*
X0240091Y0079433D02*
X0193057Y0079433D01*
X0193057Y0080232D02*
X0251835Y0080232D01*
X0251037Y0081030D02*
X0193057Y0081030D01*
X0193057Y0081829D02*
X0250238Y0081829D01*
X0249440Y0082627D02*
X0193057Y0082627D01*
X0193057Y0083426D02*
X0248641Y0083426D01*
X0247843Y0084224D02*
X0193057Y0084224D01*
X0193057Y0085023D02*
X0247044Y0085023D01*
X0250942Y0088217D02*
X0259863Y0088217D01*
X0259863Y0089015D02*
X0250143Y0089015D01*
X0249345Y0089814D02*
X0259863Y0089814D01*
X0259863Y0090612D02*
X0248546Y0090612D01*
X0251740Y0087418D02*
X0260298Y0087418D01*
X0261097Y0086620D02*
X0252539Y0086620D01*
X0253337Y0085821D02*
X0261895Y0085821D01*
X0262694Y0085023D02*
X0254136Y0085023D01*
X0254934Y0084224D02*
X0265941Y0084224D01*
X0265941Y0083426D02*
X0259047Y0083426D01*
X0259697Y0082627D02*
X0266332Y0082627D01*
X0266332Y0081829D02*
X0259697Y0081829D01*
X0259697Y0081030D02*
X0266332Y0081030D01*
X0264966Y0080232D02*
X0258968Y0080232D01*
X0257422Y0079433D02*
X0264966Y0079433D01*
X0264966Y0078635D02*
X0257926Y0078635D01*
X0257926Y0077836D02*
X0264966Y0077836D01*
X0264966Y0077038D02*
X0257926Y0077038D01*
X0257926Y0076239D02*
X0264966Y0076239D01*
X0265170Y0075441D02*
X0257926Y0075441D01*
X0252186Y0075441D02*
X0245327Y0075441D01*
X0245327Y0076239D02*
X0252186Y0076239D01*
X0252186Y0077038D02*
X0245327Y0077038D01*
X0245327Y0077836D02*
X0252186Y0077836D01*
X0252186Y0078635D02*
X0245327Y0078635D01*
X0244823Y0079433D02*
X0252634Y0079433D01*
X0255633Y0080376D02*
X0255633Y0080376D01*
X0255777Y0080232D02*
X0256046Y0080232D01*
X0255966Y0083426D02*
X0255733Y0083426D01*
X0255456Y0091411D02*
X0254656Y0091411D01*
X0254656Y0092209D02*
X0255456Y0092209D01*
X0258146Y0091411D02*
X0259863Y0091411D01*
X0259863Y0092209D02*
X0258326Y0092209D01*
X0258326Y0093008D02*
X0259863Y0093008D01*
X0259863Y0093806D02*
X0258326Y0093806D01*
X0275945Y0093806D02*
X0276745Y0093806D01*
X0276745Y0093008D02*
X0275945Y0093008D01*
X0275945Y0092209D02*
X0276745Y0092209D01*
X0276745Y0091411D02*
X0275945Y0091411D01*
X0275945Y0090612D02*
X0276745Y0090612D01*
X0276745Y0094605D02*
X0275945Y0094605D01*
X0275945Y0095403D02*
X0276745Y0095403D01*
X0276745Y0096202D02*
X0275945Y0096202D01*
X0275945Y0097000D02*
X0276745Y0097000D01*
X0276745Y0097799D02*
X0275945Y0097799D01*
X0275945Y0098597D02*
X0276745Y0098597D01*
X0276745Y0100993D02*
X0275945Y0100993D01*
X0275945Y0101791D02*
X0276745Y0101791D01*
X0276745Y0102590D02*
X0275945Y0102590D01*
X0275945Y0103388D02*
X0276745Y0103388D01*
X0276745Y0104187D02*
X0275945Y0104187D01*
X0275945Y0104986D02*
X0276745Y0104986D01*
X0276745Y0105784D02*
X0275945Y0105784D01*
X0275945Y0106583D02*
X0276745Y0106583D01*
X0276745Y0107381D02*
X0275945Y0107381D01*
X0275945Y0108180D02*
X0276745Y0108180D01*
X0276745Y0108978D02*
X0275945Y0108978D01*
X0275945Y0109777D02*
X0276745Y0109777D01*
X0276745Y0110575D02*
X0275945Y0110575D01*
X0275945Y0111374D02*
X0276745Y0111374D01*
X0267054Y0117762D02*
X0264447Y0117762D01*
X0266255Y0116963D02*
X0256570Y0116963D01*
X0258002Y0113769D02*
X0258734Y0113769D01*
X0258510Y0112971D02*
X0258154Y0112971D01*
X0258154Y0112172D02*
X0258510Y0112172D01*
X0252204Y0112971D02*
X0242142Y0112971D01*
X0242941Y0113769D02*
X0252356Y0113769D01*
X0245387Y0120157D02*
X0242454Y0120157D01*
X0243252Y0120956D02*
X0246185Y0120956D01*
X0246984Y0121754D02*
X0244051Y0121754D01*
X0244849Y0122553D02*
X0247782Y0122553D01*
X0248581Y0123351D02*
X0245648Y0123351D01*
X0247509Y0124150D02*
X0249379Y0124150D01*
X0250178Y0124948D02*
X0248103Y0124948D01*
X0248103Y0125747D02*
X0250976Y0125747D01*
X0251775Y0126545D02*
X0248103Y0126545D01*
X0247317Y0127344D02*
X0252573Y0127344D01*
X0253372Y0128142D02*
X0243564Y0128142D01*
X0242765Y0127344D02*
X0244507Y0127344D01*
X0243722Y0126545D02*
X0241967Y0126545D01*
X0241168Y0125747D02*
X0243722Y0125747D01*
X0243303Y0124948D02*
X0240370Y0124948D01*
X0239571Y0124150D02*
X0242504Y0124150D01*
X0241706Y0123351D02*
X0238773Y0123351D01*
X0237974Y0122553D02*
X0240907Y0122553D01*
X0240109Y0121754D02*
X0237176Y0121754D01*
X0236377Y0120956D02*
X0239310Y0120956D01*
X0238512Y0120157D02*
X0235579Y0120157D01*
X0234780Y0119359D02*
X0237713Y0119359D01*
X0236915Y0118560D02*
X0233982Y0118560D01*
X0232435Y0120956D02*
X0202504Y0120956D01*
X0202822Y0121754D02*
X0233234Y0121754D01*
X0234032Y0122553D02*
X0202822Y0122553D01*
X0202559Y0123351D02*
X0234831Y0123351D01*
X0235629Y0124150D02*
X0201761Y0124150D01*
X0199502Y0124150D02*
X0153271Y0124150D01*
X0153581Y0123351D02*
X0152472Y0123351D01*
X0152782Y0122553D02*
X0151674Y0122553D01*
X0151984Y0121754D02*
X0150875Y0121754D01*
X0151185Y0120956D02*
X0150077Y0120956D01*
X0150387Y0120157D02*
X0149278Y0120157D01*
X0149588Y0119359D02*
X0148480Y0119359D01*
X0148790Y0118560D02*
X0147681Y0118560D01*
X0147991Y0117762D02*
X0146883Y0117762D01*
X0147193Y0116963D02*
X0146084Y0116963D01*
X0146394Y0116165D02*
X0145286Y0116165D01*
X0145596Y0115366D02*
X0144487Y0115366D01*
X0144797Y0114568D02*
X0142057Y0114568D01*
X0142057Y0113769D02*
X0143999Y0113769D01*
X0143200Y0112971D02*
X0141989Y0112971D01*
X0133857Y0112172D02*
X0131182Y0112172D01*
X0131182Y0111374D02*
X0133857Y0111374D01*
X0133857Y0110575D02*
X0131182Y0110575D01*
X0131182Y0109777D02*
X0133857Y0109777D01*
X0133857Y0108978D02*
X0131182Y0108978D01*
X0131182Y0108180D02*
X0133857Y0108180D01*
X0133857Y0107381D02*
X0131182Y0107381D01*
X0131182Y0106583D02*
X0133857Y0106583D01*
X0133857Y0105784D02*
X0131182Y0105784D01*
X0131182Y0104986D02*
X0133922Y0104986D01*
X0133857Y0104187D02*
X0131182Y0104187D01*
X0131182Y0103388D02*
X0133857Y0103388D01*
X0133958Y0102590D02*
X0131182Y0102590D01*
X0131182Y0101791D02*
X0155792Y0101791D01*
X0155726Y0102590D02*
X0149261Y0102590D01*
X0150060Y0103388D02*
X0155726Y0103388D01*
X0155726Y0104986D02*
X0151657Y0104986D01*
X0152455Y0105784D02*
X0155726Y0105784D01*
X0155726Y0106583D02*
X0153254Y0106583D01*
X0154052Y0107381D02*
X0155987Y0107381D01*
X0158694Y0107381D02*
X0159494Y0107381D01*
X0159494Y0106583D02*
X0158694Y0106583D01*
X0158694Y0105784D02*
X0159494Y0105784D01*
X0159494Y0104986D02*
X0158694Y0104986D01*
X0158694Y0104187D02*
X0150858Y0104187D01*
X0156455Y0100993D02*
X0131240Y0100993D01*
X0132039Y0100194D02*
X0156126Y0100194D01*
X0161734Y0100993D02*
X0176790Y0100993D01*
X0177588Y0101791D02*
X0162397Y0101791D01*
X0162463Y0102590D02*
X0178387Y0102590D01*
X0175991Y0100194D02*
X0162063Y0100194D01*
X0162463Y0103388D02*
X0198839Y0103388D01*
X0198839Y0102590D02*
X0182696Y0102590D01*
X0183447Y0101791D02*
X0198839Y0101791D01*
X0198839Y0100993D02*
X0183447Y0100993D01*
X0183447Y0100194D02*
X0198839Y0100194D01*
X0198839Y0099396D02*
X0182819Y0099396D01*
X0179485Y0098597D02*
X0201113Y0098597D01*
X0201113Y0097799D02*
X0178687Y0097799D01*
X0177888Y0097000D02*
X0201113Y0097000D01*
X0201113Y0096202D02*
X0177090Y0096202D01*
X0187666Y0089814D02*
X0100775Y0089814D01*
X0100775Y0090612D02*
X0188465Y0090612D01*
X0190298Y0090612D02*
X0202104Y0090612D01*
X0201306Y0091411D02*
X0194834Y0091411D01*
X0192679Y0091411D02*
X0100775Y0091411D01*
X0100775Y0092209D02*
X0191880Y0092209D01*
X0191566Y0093008D02*
X0100775Y0093008D01*
X0100775Y0093806D02*
X0191566Y0093806D01*
X0191832Y0094605D02*
X0161553Y0094605D01*
X0162063Y0095403D02*
X0192631Y0095403D01*
X0194882Y0095403D02*
X0201113Y0095403D01*
X0202903Y0089814D02*
X0191097Y0089814D01*
X0191572Y0089015D02*
X0203701Y0089015D01*
X0204500Y0088217D02*
X0192141Y0088217D01*
X0192940Y0087418D02*
X0205298Y0087418D01*
X0206097Y0086620D02*
X0193057Y0086620D01*
X0193057Y0085821D02*
X0206895Y0085821D01*
X0188095Y0086620D02*
X0100775Y0086620D01*
X0100775Y0087418D02*
X0187296Y0087418D01*
X0187191Y0088217D02*
X0100775Y0088217D01*
X0100775Y0089015D02*
X0187191Y0089015D01*
X0198839Y0104187D02*
X0159494Y0104187D01*
X0162463Y0104986D02*
X0198839Y0104986D01*
X0198839Y0105784D02*
X0162463Y0105784D01*
X0162463Y0106583D02*
X0199175Y0106583D01*
X0199425Y0130030D02*
X0198839Y0130615D01*
X0198839Y0137546D01*
X0199425Y0138132D01*
X0205372Y0138132D01*
X0205957Y0137546D01*
X0205957Y0130615D01*
X0205372Y0130030D01*
X0199425Y0130030D01*
X0198917Y0130538D02*
X0159659Y0130538D01*
X0160457Y0131336D02*
X0198839Y0131336D01*
X0198839Y0132135D02*
X0161256Y0132135D01*
X0162054Y0132933D02*
X0198839Y0132933D01*
X0198839Y0133732D02*
X0162853Y0133732D01*
X0163362Y0134530D02*
X0198839Y0134530D01*
X0198839Y0135329D02*
X0163362Y0135329D01*
X0163362Y0136127D02*
X0198839Y0136127D01*
X0198839Y0136926D02*
X0163362Y0136926D01*
X0163362Y0137724D02*
X0199018Y0137724D01*
X0205779Y0137724D02*
X0216734Y0137724D01*
X0216556Y0137546D02*
X0216556Y0130615D01*
X0217142Y0130030D01*
X0223088Y0130030D01*
X0223674Y0130615D01*
X0223674Y0137546D01*
X0223088Y0138132D01*
X0217142Y0138132D01*
X0216556Y0137546D01*
X0216556Y0136926D02*
X0205957Y0136926D01*
X0205957Y0136127D02*
X0216556Y0136127D01*
X0216556Y0135329D02*
X0205957Y0135329D01*
X0205957Y0134530D02*
X0216556Y0134530D01*
X0216556Y0133732D02*
X0205957Y0133732D01*
X0205957Y0132933D02*
X0216556Y0132933D01*
X0216556Y0132135D02*
X0205957Y0132135D01*
X0205957Y0131336D02*
X0216556Y0131336D01*
X0216633Y0130538D02*
X0205880Y0130538D01*
X0223596Y0130538D02*
X0242017Y0130538D01*
X0241219Y0129739D02*
X0158860Y0129739D01*
X0158062Y0128941D02*
X0240420Y0128941D01*
X0239622Y0128142D02*
X0157263Y0128142D01*
X0156465Y0127344D02*
X0238823Y0127344D01*
X0238025Y0126545D02*
X0155666Y0126545D01*
X0154868Y0125747D02*
X0237226Y0125747D01*
X0236428Y0124948D02*
X0154069Y0124948D01*
X0149170Y0128941D02*
X0095150Y0128941D01*
X0095150Y0129739D02*
X0149969Y0129739D01*
X0150488Y0130538D02*
X0095150Y0130538D01*
X0095150Y0131336D02*
X0150488Y0131336D01*
X0150488Y0132135D02*
X0095150Y0132135D01*
X0095150Y0132933D02*
X0150488Y0132933D01*
X0150488Y0133732D02*
X0095150Y0133732D01*
X0095150Y0134530D02*
X0150488Y0134530D01*
X0150488Y0135329D02*
X0095150Y0135329D01*
X0095150Y0136127D02*
X0150488Y0136127D01*
X0150488Y0136926D02*
X0095150Y0136926D01*
X0095150Y0137724D02*
X0150488Y0137724D01*
X0150488Y0138523D02*
X0095194Y0138523D01*
X0095993Y0139322D02*
X0150488Y0139322D01*
X0150488Y0140120D02*
X0096791Y0140120D01*
X0094447Y0141717D02*
X0092650Y0141717D01*
X0092650Y0140919D02*
X0093648Y0140919D01*
X0092849Y0140120D02*
X0092650Y0140120D01*
X0092650Y0142516D02*
X0095245Y0142516D01*
X0096044Y0143314D02*
X0092650Y0143314D01*
X0092650Y0144113D02*
X0104967Y0144113D01*
X0105766Y0144911D02*
X0101283Y0144911D01*
X0101214Y0144882D02*
X0102384Y0145367D01*
X0103278Y0146262D01*
X0103763Y0147431D01*
X0103763Y0148696D01*
X0103278Y0149866D01*
X0102620Y0150524D01*
X0103278Y0151183D01*
X0103763Y0152352D01*
X0103763Y0153618D01*
X0103278Y0154787D01*
X0102620Y0155445D01*
X0103278Y0156104D01*
X0103763Y0157273D01*
X0103763Y0158539D01*
X0103278Y0159708D01*
X0102630Y0160357D01*
X0103298Y0161025D01*
X0103782Y0162195D01*
X0103782Y0163460D01*
X0103418Y0164340D01*
X0103603Y0164447D01*
X0103863Y0164708D01*
X0104048Y0165027D01*
X0104143Y0165383D01*
X0104143Y0167558D01*
X0100752Y0167558D01*
X0100752Y0167939D01*
X0100371Y0167939D01*
X0100371Y0167558D01*
X0096981Y0167558D01*
X0096981Y0165383D01*
X0097076Y0165027D01*
X0097260Y0164708D01*
X0097521Y0164447D01*
X0097770Y0164304D01*
X0097420Y0163460D01*
X0097420Y0162195D01*
X0097904Y0161025D01*
X0098553Y0160377D01*
X0097885Y0159708D01*
X0097400Y0158539D01*
X0097400Y0157273D01*
X0097885Y0156104D01*
X0098543Y0155445D01*
X0097885Y0154787D01*
X0097400Y0153618D01*
X0097400Y0152352D01*
X0097885Y0151183D01*
X0098543Y0150524D01*
X0097885Y0149866D01*
X0097400Y0148696D01*
X0097400Y0147431D01*
X0097885Y0146262D01*
X0098780Y0145367D01*
X0099949Y0144882D01*
X0101214Y0144882D01*
X0099880Y0144911D02*
X0092650Y0144911D01*
X0092650Y0145710D02*
X0098437Y0145710D01*
X0097783Y0146508D02*
X0092650Y0146508D01*
X0092650Y0147307D02*
X0097452Y0147307D01*
X0097400Y0148105D02*
X0092650Y0148105D01*
X0093075Y0148904D02*
X0097486Y0148904D01*
X0097817Y0149702D02*
X0093874Y0149702D01*
X0094672Y0150501D02*
X0098520Y0150501D01*
X0097837Y0151299D02*
X0096598Y0151299D01*
X0097197Y0152098D02*
X0097506Y0152098D01*
X0097400Y0152896D02*
X0097197Y0152896D01*
X0097197Y0153695D02*
X0097432Y0153695D01*
X0097763Y0154493D02*
X0096417Y0154493D01*
X0098390Y0155292D02*
X0080348Y0155292D01*
X0080195Y0155445D02*
X0080853Y0156104D01*
X0081338Y0157273D01*
X0081338Y0158539D01*
X0080853Y0159708D01*
X0080205Y0160357D01*
X0080873Y0161025D01*
X0081357Y0162195D01*
X0081357Y0163460D01*
X0080993Y0164340D01*
X0081178Y0164447D01*
X0081438Y0164708D01*
X0081623Y0165027D01*
X0081718Y0165383D01*
X0081718Y0167558D01*
X0078327Y0167558D01*
X0078327Y0167939D01*
X0077946Y0167939D01*
X0077946Y0167558D01*
X0074556Y0167558D01*
X0074556Y0165383D01*
X0074651Y0165027D01*
X0074835Y0164708D01*
X0075096Y0164447D01*
X0075345Y0164304D01*
X0074995Y0163460D01*
X0074995Y0162195D01*
X0075479Y0161025D01*
X0076128Y0160377D01*
X0075460Y0159708D01*
X0074975Y0158539D01*
X0074975Y0157273D01*
X0075460Y0156104D01*
X0076118Y0155445D01*
X0075460Y0154787D01*
X0074975Y0153618D01*
X0074975Y0152352D01*
X0075460Y0151183D01*
X0076118Y0150524D01*
X0075460Y0149866D01*
X0074975Y0148696D01*
X0074975Y0147431D01*
X0075460Y0146262D01*
X0076355Y0145367D01*
X0077524Y0144882D01*
X0078789Y0144882D01*
X0079959Y0145367D01*
X0080853Y0146262D01*
X0081338Y0147431D01*
X0081338Y0148696D01*
X0080853Y0149866D01*
X0080195Y0150524D01*
X0080853Y0151183D01*
X0081338Y0152352D01*
X0081338Y0153618D01*
X0080853Y0154787D01*
X0080195Y0155445D01*
X0080839Y0156090D02*
X0097899Y0156090D01*
X0097560Y0156889D02*
X0081178Y0156889D01*
X0081338Y0157687D02*
X0097400Y0157687D01*
X0097400Y0158486D02*
X0081338Y0158486D01*
X0081029Y0159284D02*
X0097709Y0159284D01*
X0098259Y0160083D02*
X0080479Y0160083D01*
X0080729Y0160881D02*
X0098049Y0160881D01*
X0097633Y0161680D02*
X0081144Y0161680D01*
X0081357Y0162478D02*
X0097420Y0162478D01*
X0097420Y0163277D02*
X0081357Y0163277D01*
X0081102Y0164075D02*
X0097675Y0164075D01*
X0097165Y0164874D02*
X0081534Y0164874D01*
X0081718Y0165672D02*
X0096981Y0165672D01*
X0096981Y0166471D02*
X0081718Y0166471D01*
X0081718Y0167269D02*
X0096981Y0167269D01*
X0096981Y0167939D02*
X0096981Y0170114D01*
X0097076Y0170470D01*
X0097260Y0170789D01*
X0097521Y0171050D01*
X0097840Y0171234D01*
X0098196Y0171330D01*
X0100371Y0171330D01*
X0100371Y0167939D01*
X0096981Y0167939D01*
X0096981Y0168068D02*
X0081718Y0168068D01*
X0081718Y0167939D02*
X0081718Y0170114D01*
X0081623Y0170470D01*
X0081438Y0170789D01*
X0081178Y0171050D01*
X0080858Y0171234D01*
X0080502Y0171330D01*
X0078327Y0171330D01*
X0078327Y0167939D01*
X0081718Y0167939D01*
X0081718Y0168866D02*
X0096981Y0168866D01*
X0096981Y0169665D02*
X0081718Y0169665D01*
X0081624Y0170463D02*
X0097074Y0170463D01*
X0097944Y0171262D02*
X0080755Y0171262D01*
X0078327Y0171262D02*
X0077946Y0171262D01*
X0077946Y0171330D02*
X0075771Y0171330D01*
X0075415Y0171234D01*
X0075096Y0171050D01*
X0074835Y0170789D01*
X0074651Y0170470D01*
X0074556Y0170114D01*
X0074556Y0167939D01*
X0077946Y0167939D01*
X0077946Y0171330D01*
X0077946Y0170463D02*
X0078327Y0170463D01*
X0078327Y0169665D02*
X0077946Y0169665D01*
X0077946Y0168866D02*
X0078327Y0168866D01*
X0078327Y0168068D02*
X0077946Y0168068D01*
X0074556Y0168068D02*
X0065476Y0168068D01*
X0065807Y0168866D02*
X0074556Y0168866D01*
X0074556Y0169665D02*
X0065914Y0169665D01*
X0065914Y0169127D02*
X0065072Y0167093D01*
X0063515Y0165536D01*
X0061481Y0164694D01*
X0059280Y0164694D01*
X0057246Y0165536D01*
X0055689Y0167093D01*
X0054847Y0169127D01*
X0054847Y0171328D01*
X0055689Y0173362D01*
X0057246Y0174919D01*
X0059280Y0175761D01*
X0061481Y0175761D01*
X0063515Y0174919D01*
X0065072Y0173362D01*
X0065914Y0171328D01*
X0065914Y0169127D01*
X0065914Y0170463D02*
X0074649Y0170463D01*
X0075519Y0171262D02*
X0065914Y0171262D01*
X0065611Y0172060D02*
X0295308Y0172060D01*
X0295004Y0171262D02*
X0147405Y0171262D01*
X0148274Y0170463D02*
X0295004Y0170463D01*
X0295004Y0169665D02*
X0180341Y0169665D01*
X0180481Y0168866D02*
X0295112Y0168866D01*
X0295443Y0168068D02*
X0180481Y0168068D01*
X0180481Y0167269D02*
X0295773Y0167269D01*
X0296468Y0166471D02*
X0180481Y0166471D01*
X0180481Y0165672D02*
X0297267Y0165672D01*
X0299002Y0164874D02*
X0180481Y0164874D01*
X0180481Y0162478D02*
X0202215Y0162478D01*
X0202324Y0162542D02*
X0202005Y0162357D01*
X0201745Y0162097D01*
X0201560Y0161778D01*
X0201465Y0161422D01*
X0201465Y0159247D01*
X0204855Y0159247D01*
X0204855Y0158866D01*
X0201465Y0158866D01*
X0201465Y0156691D01*
X0201560Y0156335D01*
X0201745Y0156015D01*
X0202005Y0155755D01*
X0202324Y0155570D01*
X0202680Y0155475D01*
X0204855Y0155475D01*
X0204855Y0158865D01*
X0205236Y0158865D01*
X0205236Y0155475D01*
X0207411Y0155475D01*
X0207767Y0155570D01*
X0208087Y0155755D01*
X0208347Y0156015D01*
X0208472Y0156232D01*
X0209334Y0155875D01*
X0210600Y0155875D01*
X0211769Y0156359D01*
X0212664Y0157254D01*
X0213148Y0158423D01*
X0213148Y0159689D01*
X0212664Y0160858D01*
X0211769Y0161753D01*
X0210600Y0162237D01*
X0209334Y0162237D01*
X0208472Y0161880D01*
X0208347Y0162097D01*
X0208087Y0162357D01*
X0207767Y0162542D01*
X0207411Y0162637D01*
X0205236Y0162637D01*
X0205236Y0159247D01*
X0204855Y0159247D01*
X0204855Y0162637D01*
X0202680Y0162637D01*
X0202324Y0162542D01*
X0201534Y0161680D02*
X0180481Y0161680D01*
X0180481Y0160881D02*
X0201465Y0160881D01*
X0201465Y0160083D02*
X0180481Y0160083D01*
X0180481Y0159284D02*
X0201465Y0159284D01*
X0201465Y0158486D02*
X0180391Y0158486D01*
X0179566Y0157687D02*
X0201465Y0157687D01*
X0201465Y0156889D02*
X0147828Y0156889D01*
X0147489Y0156090D02*
X0201701Y0156090D01*
X0204855Y0156090D02*
X0205236Y0156090D01*
X0205236Y0156889D02*
X0204855Y0156889D01*
X0204855Y0157687D02*
X0205236Y0157687D01*
X0205236Y0158486D02*
X0204855Y0158486D01*
X0204855Y0159284D02*
X0205236Y0159284D01*
X0205236Y0160083D02*
X0204855Y0160083D01*
X0204855Y0160881D02*
X0205236Y0160881D01*
X0205236Y0161680D02*
X0204855Y0161680D01*
X0204855Y0162478D02*
X0205236Y0162478D01*
X0207877Y0162478D02*
X0226668Y0162478D01*
X0226778Y0162542D02*
X0226459Y0162357D01*
X0226198Y0162097D01*
X0226014Y0161778D01*
X0225919Y0161422D01*
X0225919Y0159247D01*
X0229309Y0159247D01*
X0229309Y0162637D01*
X0227134Y0162637D01*
X0226778Y0162542D01*
X0225988Y0161680D02*
X0211842Y0161680D01*
X0212641Y0160881D02*
X0225919Y0160881D01*
X0225919Y0160083D02*
X0212985Y0160083D01*
X0213148Y0159284D02*
X0225919Y0159284D01*
X0225919Y0158866D02*
X0225919Y0156691D01*
X0226014Y0156335D01*
X0226198Y0156015D01*
X0226459Y0155755D01*
X0226778Y0155570D01*
X0227134Y0155475D01*
X0229309Y0155475D01*
X0229309Y0158865D01*
X0229690Y0158865D01*
X0229690Y0155475D01*
X0231865Y0155475D01*
X0232221Y0155570D01*
X0232540Y0155755D01*
X0232801Y0156015D01*
X0232926Y0156232D01*
X0233788Y0155875D01*
X0235054Y0155875D01*
X0236223Y0156359D01*
X0236882Y0157018D01*
X0237540Y0156359D01*
X0238709Y0155875D01*
X0239975Y0155875D01*
X0241144Y0156359D01*
X0241803Y0157018D01*
X0242461Y0156359D01*
X0243631Y0155875D01*
X0244896Y0155875D01*
X0246065Y0156359D01*
X0246960Y0157254D01*
X0247445Y0158423D01*
X0247445Y0159689D01*
X0246960Y0160858D01*
X0246065Y0161753D01*
X0244896Y0162237D01*
X0243631Y0162237D01*
X0242461Y0161753D01*
X0241803Y0161094D01*
X0241144Y0161753D01*
X0239975Y0162237D01*
X0238709Y0162237D01*
X0237540Y0161753D01*
X0236882Y0161094D01*
X0236223Y0161753D01*
X0235054Y0162237D01*
X0233788Y0162237D01*
X0232926Y0161880D01*
X0232801Y0162097D01*
X0232540Y0162357D01*
X0232221Y0162542D01*
X0231865Y0162637D01*
X0229690Y0162637D01*
X0229690Y0159247D01*
X0229309Y0159247D01*
X0229309Y0158866D01*
X0225919Y0158866D01*
X0225919Y0158486D02*
X0213148Y0158486D01*
X0212843Y0157687D02*
X0225919Y0157687D01*
X0225919Y0156889D02*
X0212299Y0156889D01*
X0211120Y0156090D02*
X0226155Y0156090D01*
X0229309Y0156090D02*
X0229690Y0156090D01*
X0229690Y0156889D02*
X0229309Y0156889D01*
X0229309Y0157687D02*
X0229690Y0157687D01*
X0229690Y0158486D02*
X0229309Y0158486D01*
X0229309Y0159284D02*
X0229690Y0159284D01*
X0229690Y0160083D02*
X0229309Y0160083D01*
X0229309Y0160881D02*
X0229690Y0160881D01*
X0229690Y0161680D02*
X0229309Y0161680D01*
X0229309Y0162478D02*
X0229690Y0162478D01*
X0232331Y0162478D02*
X0261117Y0162478D01*
X0260407Y0161680D02*
X0246138Y0161680D01*
X0246937Y0160881D02*
X0260333Y0160881D01*
X0260333Y0160083D02*
X0247281Y0160083D01*
X0247445Y0159284D02*
X0254012Y0159284D01*
X0253441Y0158486D02*
X0247445Y0158486D01*
X0247140Y0157687D02*
X0253441Y0157687D01*
X0253451Y0156889D02*
X0246595Y0156889D01*
X0245416Y0156090D02*
X0254250Y0156090D01*
X0255600Y0155292D02*
X0146998Y0155292D01*
X0147625Y0154493D02*
X0149221Y0154493D01*
X0148441Y0153695D02*
X0147956Y0153695D01*
X0147988Y0152896D02*
X0148441Y0152896D01*
X0148441Y0152098D02*
X0147882Y0152098D01*
X0147552Y0151299D02*
X0149041Y0151299D01*
X0150488Y0150501D02*
X0146868Y0150501D01*
X0147571Y0149702D02*
X0150488Y0149702D01*
X0150488Y0148904D02*
X0147902Y0148904D01*
X0147988Y0148105D02*
X0150488Y0148105D01*
X0150488Y0147307D02*
X0147936Y0147307D01*
X0147605Y0146508D02*
X0150488Y0146508D01*
X0150488Y0145710D02*
X0146951Y0145710D01*
X0145508Y0144911D02*
X0150488Y0144911D01*
X0150488Y0144113D02*
X0108909Y0144113D01*
X0109708Y0144911D02*
X0121680Y0144911D01*
X0121749Y0144882D02*
X0123014Y0144882D01*
X0124184Y0145367D01*
X0125078Y0146262D01*
X0125563Y0147431D01*
X0125563Y0148696D01*
X0125078Y0149866D01*
X0124420Y0150524D01*
X0125078Y0151183D01*
X0125563Y0152352D01*
X0125563Y0153618D01*
X0125078Y0154787D01*
X0124420Y0155445D01*
X0125078Y0156104D01*
X0125563Y0157273D01*
X0125563Y0158539D01*
X0125078Y0159708D01*
X0124430Y0160357D01*
X0125098Y0161025D01*
X0125582Y0162195D01*
X0125582Y0163460D01*
X0125218Y0164340D01*
X0125403Y0164447D01*
X0125663Y0164708D01*
X0125848Y0165027D01*
X0125943Y0165383D01*
X0125943Y0167558D01*
X0122552Y0167558D01*
X0122552Y0167939D01*
X0122171Y0167939D01*
X0122171Y0167558D01*
X0118781Y0167558D01*
X0118781Y0165383D01*
X0118876Y0165027D01*
X0119060Y0164708D01*
X0119321Y0164447D01*
X0119570Y0164304D01*
X0119220Y0163460D01*
X0119220Y0162195D01*
X0119704Y0161025D01*
X0120353Y0160377D01*
X0119685Y0159708D01*
X0119200Y0158539D01*
X0119200Y0157273D01*
X0119685Y0156104D01*
X0120343Y0155445D01*
X0119685Y0154787D01*
X0119200Y0153618D01*
X0119200Y0152352D01*
X0119685Y0151183D01*
X0120343Y0150524D01*
X0119685Y0149866D01*
X0119200Y0148696D01*
X0119200Y0147431D01*
X0119685Y0146262D01*
X0120580Y0145367D01*
X0121749Y0144882D01*
X0123083Y0144911D02*
X0144105Y0144911D01*
X0142662Y0145710D02*
X0124526Y0145710D01*
X0125180Y0146508D02*
X0142008Y0146508D01*
X0141677Y0147307D02*
X0125511Y0147307D01*
X0125563Y0148105D02*
X0141625Y0148105D01*
X0141711Y0148904D02*
X0125477Y0148904D01*
X0125146Y0149702D02*
X0142042Y0149702D01*
X0142745Y0150501D02*
X0124443Y0150501D01*
X0125127Y0151299D02*
X0142062Y0151299D01*
X0141731Y0152098D02*
X0125457Y0152098D01*
X0125563Y0152896D02*
X0141625Y0152896D01*
X0141657Y0153695D02*
X0125531Y0153695D01*
X0125200Y0154493D02*
X0141988Y0154493D01*
X0142615Y0155292D02*
X0124573Y0155292D01*
X0125064Y0156090D02*
X0142124Y0156090D01*
X0141785Y0156889D02*
X0125403Y0156889D01*
X0125563Y0157687D02*
X0141625Y0157687D01*
X0141625Y0158486D02*
X0125563Y0158486D01*
X0125254Y0159284D02*
X0141934Y0159284D01*
X0142484Y0160083D02*
X0124704Y0160083D01*
X0124954Y0160881D02*
X0142274Y0160881D01*
X0141858Y0161680D02*
X0125369Y0161680D01*
X0125582Y0162478D02*
X0141645Y0162478D01*
X0141645Y0163277D02*
X0125582Y0163277D01*
X0125327Y0164075D02*
X0141900Y0164075D01*
X0141390Y0164874D02*
X0125759Y0164874D01*
X0125943Y0165672D02*
X0141206Y0165672D01*
X0141206Y0166471D02*
X0125943Y0166471D01*
X0125943Y0167269D02*
X0141206Y0167269D01*
X0141206Y0167939D02*
X0141206Y0170114D01*
X0141301Y0170470D01*
X0141485Y0170789D01*
X0141746Y0171050D01*
X0142065Y0171234D01*
X0142421Y0171330D01*
X0144596Y0171330D01*
X0144596Y0167939D01*
X0141206Y0167939D01*
X0141206Y0168068D02*
X0125943Y0168068D01*
X0125943Y0167939D02*
X0125943Y0170114D01*
X0125848Y0170470D01*
X0125663Y0170789D01*
X0125403Y0171050D01*
X0125083Y0171234D01*
X0124727Y0171330D01*
X0122552Y0171330D01*
X0122552Y0167939D01*
X0125943Y0167939D01*
X0125943Y0168866D02*
X0141206Y0168866D01*
X0141206Y0169665D02*
X0125943Y0169665D01*
X0125849Y0170463D02*
X0141299Y0170463D01*
X0142169Y0171262D02*
X0124980Y0171262D01*
X0122552Y0171262D02*
X0122171Y0171262D01*
X0122171Y0171330D02*
X0119996Y0171330D01*
X0119640Y0171234D01*
X0119321Y0171050D01*
X0119060Y0170789D01*
X0118876Y0170470D01*
X0118781Y0170114D01*
X0118781Y0167939D01*
X0122171Y0167939D01*
X0122171Y0171330D01*
X0122171Y0170463D02*
X0122552Y0170463D01*
X0122552Y0169665D02*
X0122171Y0169665D01*
X0122171Y0168866D02*
X0122552Y0168866D01*
X0122552Y0168068D02*
X0122171Y0168068D01*
X0118781Y0168068D02*
X0104143Y0168068D01*
X0104143Y0167939D02*
X0104143Y0170114D01*
X0104048Y0170470D01*
X0103863Y0170789D01*
X0103603Y0171050D01*
X0103283Y0171234D01*
X0102927Y0171330D01*
X0100752Y0171330D01*
X0100752Y0167939D01*
X0104143Y0167939D01*
X0104143Y0167269D02*
X0118781Y0167269D01*
X0118781Y0166471D02*
X0104143Y0166471D01*
X0104143Y0165672D02*
X0118781Y0165672D01*
X0118965Y0164874D02*
X0103959Y0164874D01*
X0103527Y0164075D02*
X0119475Y0164075D01*
X0119220Y0163277D02*
X0103782Y0163277D01*
X0103782Y0162478D02*
X0119220Y0162478D01*
X0119433Y0161680D02*
X0103569Y0161680D01*
X0103154Y0160881D02*
X0119849Y0160881D01*
X0120060Y0160083D02*
X0102904Y0160083D01*
X0103454Y0159284D02*
X0119509Y0159284D01*
X0119200Y0158486D02*
X0103763Y0158486D01*
X0103763Y0157687D02*
X0119200Y0157687D01*
X0119360Y0156889D02*
X0103603Y0156889D01*
X0103264Y0156090D02*
X0119699Y0156090D01*
X0120190Y0155292D02*
X0102773Y0155292D01*
X0103400Y0154493D02*
X0114221Y0154493D01*
X0113441Y0153695D02*
X0103731Y0153695D01*
X0103763Y0152896D02*
X0113441Y0152896D01*
X0112952Y0152098D02*
X0103657Y0152098D01*
X0103327Y0151299D02*
X0112154Y0151299D01*
X0111355Y0150501D02*
X0102643Y0150501D01*
X0103346Y0149702D02*
X0110557Y0149702D01*
X0109758Y0148904D02*
X0103677Y0148904D01*
X0103763Y0148105D02*
X0108960Y0148105D01*
X0108161Y0147307D02*
X0103711Y0147307D01*
X0103380Y0146508D02*
X0107363Y0146508D01*
X0106564Y0145710D02*
X0102726Y0145710D01*
X0106513Y0141717D02*
X0150488Y0141717D01*
X0150488Y0140919D02*
X0105715Y0140919D01*
X0107312Y0142516D02*
X0150488Y0142516D01*
X0150488Y0143314D02*
X0108111Y0143314D01*
X0110506Y0145710D02*
X0120237Y0145710D01*
X0119583Y0146508D02*
X0111305Y0146508D01*
X0112103Y0147307D02*
X0119252Y0147307D01*
X0119200Y0148105D02*
X0112902Y0148105D01*
X0113700Y0148904D02*
X0119286Y0148904D01*
X0119617Y0149702D02*
X0114499Y0149702D01*
X0115297Y0150501D02*
X0120320Y0150501D01*
X0119637Y0151299D02*
X0117223Y0151299D01*
X0117822Y0152098D02*
X0119306Y0152098D01*
X0119200Y0152896D02*
X0117822Y0152896D01*
X0117822Y0153695D02*
X0119232Y0153695D01*
X0119563Y0154493D02*
X0117042Y0154493D01*
X0118781Y0168866D02*
X0104143Y0168866D01*
X0104143Y0169665D02*
X0118781Y0169665D01*
X0118874Y0170463D02*
X0104049Y0170463D01*
X0103180Y0171262D02*
X0119744Y0171262D01*
X0100752Y0171262D02*
X0100371Y0171262D01*
X0100371Y0170463D02*
X0100752Y0170463D01*
X0100752Y0169665D02*
X0100371Y0169665D01*
X0100371Y0168866D02*
X0100752Y0168866D01*
X0100752Y0168068D02*
X0100371Y0168068D01*
X0093596Y0154493D02*
X0085167Y0154493D01*
X0086089Y0153695D02*
X0092816Y0153695D01*
X0092816Y0152896D02*
X0086887Y0152896D01*
X0087686Y0152098D02*
X0092327Y0152098D01*
X0091529Y0151299D02*
X0088484Y0151299D01*
X0089283Y0150501D02*
X0090730Y0150501D01*
X0086938Y0148904D02*
X0081252Y0148904D01*
X0081338Y0148105D02*
X0087363Y0148105D01*
X0087363Y0147307D02*
X0081286Y0147307D01*
X0080955Y0146508D02*
X0087363Y0146508D01*
X0087363Y0145710D02*
X0080301Y0145710D01*
X0078858Y0144911D02*
X0087363Y0144911D01*
X0087363Y0144113D02*
X0053907Y0144113D01*
X0053907Y0144911D02*
X0077455Y0144911D01*
X0076012Y0145710D02*
X0053907Y0145710D01*
X0053907Y0146508D02*
X0075358Y0146508D01*
X0075027Y0147307D02*
X0053907Y0147307D01*
X0053907Y0148105D02*
X0074975Y0148105D01*
X0075061Y0148904D02*
X0053907Y0148904D01*
X0053907Y0149702D02*
X0075392Y0149702D01*
X0076095Y0150501D02*
X0053907Y0150501D01*
X0053907Y0151299D02*
X0075412Y0151299D01*
X0075081Y0152098D02*
X0053907Y0152098D01*
X0053907Y0152896D02*
X0074975Y0152896D01*
X0075007Y0153695D02*
X0053907Y0153695D01*
X0053907Y0154493D02*
X0075338Y0154493D01*
X0075965Y0155292D02*
X0053907Y0155292D01*
X0053907Y0156090D02*
X0075474Y0156090D01*
X0075135Y0156889D02*
X0053907Y0156889D01*
X0053907Y0157687D02*
X0074975Y0157687D01*
X0074975Y0158486D02*
X0053907Y0158486D01*
X0053907Y0159284D02*
X0075284Y0159284D01*
X0075834Y0160083D02*
X0053907Y0160083D01*
X0053907Y0160881D02*
X0075624Y0160881D01*
X0075208Y0161680D02*
X0053907Y0161680D01*
X0053907Y0162478D02*
X0074995Y0162478D01*
X0074995Y0163277D02*
X0053907Y0163277D01*
X0053907Y0164075D02*
X0075250Y0164075D01*
X0074740Y0164874D02*
X0061917Y0164874D01*
X0063652Y0165672D02*
X0074556Y0165672D01*
X0074556Y0166471D02*
X0064450Y0166471D01*
X0065145Y0167269D02*
X0074556Y0167269D01*
X0065280Y0172859D02*
X0295638Y0172859D01*
X0296142Y0173657D02*
X0064776Y0173657D01*
X0063978Y0174456D02*
X0296941Y0174456D01*
X0298214Y0175255D02*
X0062705Y0175255D01*
X0058057Y0175255D02*
X0053907Y0175255D01*
X0053907Y0174456D02*
X0056783Y0174456D01*
X0055985Y0173657D02*
X0053907Y0173657D01*
X0053907Y0172859D02*
X0055481Y0172859D01*
X0055150Y0172060D02*
X0053907Y0172060D01*
X0053907Y0171262D02*
X0054847Y0171262D01*
X0054847Y0170463D02*
X0053907Y0170463D01*
X0053907Y0169665D02*
X0054847Y0169665D01*
X0054954Y0168866D02*
X0053907Y0168866D01*
X0053907Y0168068D02*
X0055285Y0168068D01*
X0055616Y0167269D02*
X0053907Y0167269D01*
X0053907Y0166471D02*
X0056311Y0166471D01*
X0057109Y0165672D02*
X0053907Y0165672D01*
X0053907Y0164874D02*
X0058844Y0164874D01*
X0080975Y0154493D02*
X0082346Y0154493D01*
X0081566Y0153695D02*
X0081306Y0153695D01*
X0081338Y0152896D02*
X0081566Y0152896D01*
X0081566Y0152098D02*
X0081232Y0152098D01*
X0080902Y0151299D02*
X0082166Y0151299D01*
X0080921Y0149702D02*
X0086140Y0149702D01*
X0085341Y0150501D02*
X0080218Y0150501D01*
X0087363Y0143314D02*
X0053907Y0143314D01*
X0053907Y0142516D02*
X0087363Y0142516D01*
X0087363Y0141717D02*
X0053907Y0141717D01*
X0053907Y0140919D02*
X0087363Y0140919D01*
X0087363Y0140120D02*
X0053907Y0140120D01*
X0053907Y0139322D02*
X0087363Y0139322D01*
X0087363Y0138523D02*
X0053907Y0138523D01*
X0053907Y0137724D02*
X0087363Y0137724D01*
X0087363Y0136926D02*
X0053907Y0136926D01*
X0053907Y0136127D02*
X0087363Y0136127D01*
X0087363Y0135329D02*
X0053907Y0135329D01*
X0053907Y0134530D02*
X0087363Y0134530D01*
X0087363Y0133732D02*
X0053907Y0133732D01*
X0053907Y0132933D02*
X0087363Y0132933D01*
X0087363Y0132135D02*
X0053907Y0132135D01*
X0053907Y0131336D02*
X0087363Y0131336D01*
X0087363Y0130538D02*
X0053907Y0130538D01*
X0053907Y0129739D02*
X0087363Y0129739D01*
X0087363Y0128941D02*
X0053907Y0128941D01*
X0053907Y0128142D02*
X0087363Y0128142D01*
X0087363Y0127344D02*
X0053907Y0127344D01*
X0053907Y0126545D02*
X0087363Y0126545D01*
X0087363Y0125747D02*
X0053907Y0125747D01*
X0053907Y0124948D02*
X0087363Y0124948D01*
X0087363Y0124150D02*
X0053907Y0124150D01*
X0053907Y0123351D02*
X0087363Y0123351D01*
X0087363Y0122553D02*
X0053907Y0122553D01*
X0053907Y0121754D02*
X0087837Y0121754D01*
X0088636Y0120956D02*
X0053907Y0120956D01*
X0053907Y0120157D02*
X0089434Y0120157D01*
X0090233Y0119359D02*
X0053907Y0119359D01*
X0053907Y0118560D02*
X0091031Y0118560D01*
X0091830Y0117762D02*
X0053907Y0117762D01*
X0053907Y0116963D02*
X0092628Y0116963D01*
X0093427Y0116165D02*
X0053907Y0116165D01*
X0053907Y0115366D02*
X0094225Y0115366D01*
X0095422Y0114568D02*
X0053907Y0114568D01*
X0053907Y0113769D02*
X0094624Y0113769D01*
X0093825Y0112971D02*
X0053907Y0112971D01*
X0053907Y0112172D02*
X0093027Y0112172D01*
X0092228Y0111374D02*
X0053907Y0111374D01*
X0053907Y0110575D02*
X0091430Y0110575D01*
X0090631Y0109777D02*
X0053907Y0109777D01*
X0053907Y0108978D02*
X0090488Y0108978D01*
X0090488Y0108180D02*
X0053907Y0108180D01*
X0053907Y0107381D02*
X0090488Y0107381D01*
X0090488Y0106583D02*
X0053907Y0106583D01*
X0053907Y0105784D02*
X0090488Y0105784D01*
X0090488Y0104986D02*
X0053907Y0104986D01*
X0053907Y0104187D02*
X0090488Y0104187D01*
X0090488Y0103388D02*
X0053907Y0103388D01*
X0053907Y0102590D02*
X0090488Y0102590D01*
X0090488Y0101791D02*
X0053907Y0101791D01*
X0053907Y0100993D02*
X0090488Y0100993D01*
X0090488Y0100194D02*
X0053907Y0100194D01*
X0053907Y0099396D02*
X0090488Y0099396D01*
X0090488Y0098597D02*
X0053907Y0098597D01*
X0053907Y0097799D02*
X0090488Y0097799D01*
X0090488Y0097000D02*
X0053907Y0097000D01*
X0053907Y0096202D02*
X0090488Y0096202D01*
X0090488Y0095403D02*
X0053907Y0095403D01*
X0053907Y0094605D02*
X0090488Y0094605D01*
X0090488Y0093806D02*
X0053907Y0093806D01*
X0053907Y0093008D02*
X0090488Y0093008D01*
X0090488Y0092209D02*
X0053907Y0092209D01*
X0053907Y0091411D02*
X0090488Y0091411D01*
X0090488Y0090612D02*
X0053907Y0090612D01*
X0053907Y0089814D02*
X0090488Y0089814D01*
X0090488Y0089015D02*
X0053907Y0089015D01*
X0053907Y0088217D02*
X0090488Y0088217D01*
X0090488Y0087418D02*
X0053907Y0087418D01*
X0053907Y0086620D02*
X0090488Y0086620D01*
X0090488Y0085821D02*
X0053907Y0085821D01*
X0053907Y0085023D02*
X0090488Y0085023D01*
X0090488Y0084224D02*
X0053907Y0084224D01*
X0053907Y0083426D02*
X0090488Y0083426D01*
X0090488Y0082627D02*
X0053907Y0082627D01*
X0053907Y0081829D02*
X0090488Y0081829D01*
X0090488Y0081030D02*
X0053907Y0081030D01*
X0053907Y0080232D02*
X0090488Y0080232D01*
X0090488Y0079433D02*
X0053907Y0079433D01*
X0053907Y0078635D02*
X0090488Y0078635D01*
X0090488Y0077836D02*
X0053907Y0077836D01*
X0053907Y0077038D02*
X0090488Y0077038D01*
X0090488Y0076239D02*
X0053907Y0076239D01*
X0053907Y0075441D02*
X0090488Y0075441D01*
X0095775Y0075441D02*
X0107901Y0075441D01*
X0108700Y0074642D02*
X0095775Y0074642D01*
X0095775Y0073844D02*
X0103547Y0073844D01*
X0104866Y0073844D02*
X0109498Y0073844D01*
X0110297Y0073045D02*
X0106334Y0073045D01*
X0106998Y0072247D02*
X0111095Y0072247D01*
X0111894Y0071448D02*
X0107329Y0071448D01*
X0107388Y0070650D02*
X0112692Y0070650D01*
X0113491Y0069851D02*
X0107309Y0069851D01*
X0106978Y0069053D02*
X0114289Y0069053D01*
X0115088Y0068254D02*
X0106286Y0068254D01*
X0106944Y0067455D02*
X0115886Y0067455D01*
X0116685Y0066657D02*
X0107275Y0066657D01*
X0107388Y0065858D02*
X0117191Y0065858D01*
X0117191Y0065060D02*
X0107363Y0065060D01*
X0107032Y0064261D02*
X0117953Y0064261D01*
X0102127Y0068254D02*
X0098282Y0068254D01*
X0099072Y0067455D02*
X0101469Y0067455D01*
X0101138Y0066657D02*
X0099072Y0066657D01*
X0099072Y0065858D02*
X0101025Y0065858D01*
X0101050Y0065060D02*
X0098483Y0065060D01*
X0101381Y0064261D02*
X0090185Y0064261D01*
X0090947Y0065060D02*
X0095280Y0065060D01*
X0094691Y0065858D02*
X0090947Y0065858D01*
X0091453Y0066657D02*
X0094691Y0066657D01*
X0094011Y0067455D02*
X0092252Y0067455D01*
X0093050Y0068254D02*
X0093213Y0068254D01*
X0095775Y0069851D02*
X0101104Y0069851D01*
X0101025Y0070650D02*
X0095775Y0070650D01*
X0095775Y0071448D02*
X0101084Y0071448D01*
X0101415Y0072247D02*
X0095775Y0072247D01*
X0095775Y0073045D02*
X0102079Y0073045D01*
X0101435Y0069053D02*
X0096356Y0069053D01*
X0095775Y0076239D02*
X0098978Y0076239D01*
X0098179Y0077038D02*
X0095775Y0077038D01*
X0095775Y0077836D02*
X0097381Y0077836D01*
X0096582Y0078635D02*
X0095775Y0078635D01*
X0095775Y0079433D02*
X0095784Y0079433D01*
X0111843Y0075441D02*
X0129151Y0075441D01*
X0135489Y0073045D02*
X0145679Y0073045D01*
X0145015Y0072247D02*
X0136287Y0072247D01*
X0137086Y0071448D02*
X0144684Y0071448D01*
X0144625Y0070650D02*
X0137884Y0070650D01*
X0138683Y0069851D02*
X0144704Y0069851D01*
X0145035Y0069053D02*
X0139481Y0069053D01*
X0140280Y0068254D02*
X0145727Y0068254D01*
X0145069Y0067455D02*
X0142205Y0067455D01*
X0142822Y0066657D02*
X0144738Y0066657D01*
X0144625Y0065858D02*
X0142822Y0065858D01*
X0142822Y0065060D02*
X0144650Y0065060D01*
X0144981Y0064261D02*
X0142060Y0064261D01*
X0144245Y0049888D02*
X0129607Y0049888D01*
X0129607Y0049090D02*
X0144245Y0049090D01*
X0144334Y0048291D02*
X0129518Y0048291D01*
X0128710Y0047493D02*
X0145143Y0047493D01*
X0126217Y0047493D02*
X0125836Y0047493D01*
X0125836Y0048291D02*
X0126217Y0048291D01*
X0126217Y0049090D02*
X0125836Y0049090D01*
X0125836Y0049888D02*
X0126217Y0049888D01*
X0126217Y0050687D02*
X0125836Y0050687D01*
X0101543Y0047493D02*
X0085110Y0047493D01*
X0085918Y0048291D02*
X0100734Y0048291D01*
X0100645Y0049090D02*
X0086007Y0049090D01*
X0086007Y0049888D02*
X0100645Y0049888D01*
X0082617Y0049888D02*
X0082236Y0049888D01*
X0082236Y0049090D02*
X0082617Y0049090D01*
X0082617Y0048291D02*
X0082236Y0048291D01*
X0082236Y0047493D02*
X0082617Y0047493D01*
X0082236Y0047407D02*
X0082236Y0050798D01*
X0078845Y0050798D01*
X0078845Y0048623D01*
X0078941Y0048267D01*
X0079125Y0047948D01*
X0079386Y0047687D01*
X0079705Y0047503D01*
X0080061Y0047407D01*
X0082236Y0047407D01*
X0079743Y0047493D02*
X0065914Y0047493D01*
X0065914Y0048291D02*
X0078934Y0048291D01*
X0078845Y0049090D02*
X0065914Y0049090D01*
X0065663Y0049888D02*
X0078845Y0049888D01*
X0078845Y0050687D02*
X0065332Y0050687D01*
X0064901Y0051485D02*
X0078845Y0051485D01*
X0078845Y0052284D02*
X0064103Y0052284D01*
X0063006Y0053082D02*
X0078845Y0053082D01*
X0082236Y0050687D02*
X0082617Y0050687D01*
X0063527Y0043500D02*
X0297392Y0043500D01*
X0299304Y0042702D02*
X0061615Y0042702D01*
X0100775Y0094605D02*
X0156636Y0094605D01*
X0156126Y0095403D02*
X0100775Y0095403D01*
X0100775Y0096202D02*
X0130940Y0096202D01*
X0130142Y0097000D02*
X0100775Y0097000D01*
X0100775Y0097799D02*
X0129343Y0097799D01*
X0128545Y0098597D02*
X0100775Y0098597D01*
X0100775Y0099396D02*
X0127746Y0099396D01*
X0127582Y0100194D02*
X0100775Y0100194D01*
X0100775Y0100993D02*
X0127582Y0100993D01*
X0127582Y0101791D02*
X0100775Y0101791D01*
X0100775Y0102590D02*
X0110958Y0102590D01*
X0110857Y0103388D02*
X0100775Y0103388D01*
X0100858Y0104187D02*
X0110857Y0104187D01*
X0110922Y0104986D02*
X0101657Y0104986D01*
X0118657Y0105784D02*
X0127582Y0105784D01*
X0127582Y0106583D02*
X0118657Y0106583D01*
X0118657Y0107381D02*
X0127582Y0107381D01*
X0127582Y0108180D02*
X0118657Y0108180D01*
X0118657Y0108978D02*
X0127582Y0108978D01*
X0127582Y0109777D02*
X0118657Y0109777D01*
X0118657Y0110575D02*
X0127582Y0110575D01*
X0127582Y0111374D02*
X0118657Y0111374D01*
X0118657Y0112172D02*
X0127582Y0112172D01*
X0127582Y0112971D02*
X0118635Y0112971D01*
X0118657Y0113769D02*
X0127582Y0113769D01*
X0127582Y0114568D02*
X0118657Y0114568D01*
X0118531Y0115366D02*
X0128146Y0115366D01*
X0128945Y0116165D02*
X0118657Y0116165D01*
X0118657Y0116963D02*
X0129743Y0116963D01*
X0130542Y0117762D02*
X0118615Y0117762D01*
X0118657Y0118560D02*
X0133857Y0118560D01*
X0133857Y0119359D02*
X0118657Y0119359D01*
X0118657Y0120157D02*
X0133826Y0120157D01*
X0133457Y0120956D02*
X0118657Y0120956D01*
X0118657Y0121754D02*
X0133457Y0121754D01*
X0133457Y0122553D02*
X0118657Y0122553D01*
X0118226Y0123351D02*
X0133728Y0123351D01*
X0137756Y0123351D02*
X0137757Y0123351D01*
X0137756Y0122553D02*
X0137757Y0122553D01*
X0141785Y0123351D02*
X0143581Y0123351D01*
X0142782Y0122553D02*
X0142057Y0122553D01*
X0144379Y0124150D02*
X0098134Y0124150D01*
X0097335Y0124948D02*
X0145178Y0124948D01*
X0145976Y0125747D02*
X0096537Y0125747D01*
X0095738Y0126545D02*
X0146775Y0126545D01*
X0147573Y0127344D02*
X0095150Y0127344D01*
X0095150Y0128142D02*
X0148372Y0128142D01*
X0153275Y0129739D02*
X0153769Y0129739D01*
X0153275Y0130538D02*
X0154568Y0130538D01*
X0155366Y0131336D02*
X0153275Y0131336D01*
X0153275Y0132135D02*
X0156165Y0132135D01*
X0156963Y0132933D02*
X0153275Y0132933D01*
X0153275Y0133732D02*
X0157762Y0133732D01*
X0158560Y0134530D02*
X0153275Y0134530D01*
X0153275Y0135329D02*
X0159359Y0135329D01*
X0159762Y0136127D02*
X0153275Y0136127D01*
X0153275Y0136926D02*
X0159762Y0136926D01*
X0159762Y0137724D02*
X0153275Y0137724D01*
X0153275Y0138523D02*
X0159459Y0138523D01*
X0159371Y0139322D02*
X0153275Y0139322D01*
X0153275Y0140120D02*
X0159371Y0140120D01*
X0159762Y0140919D02*
X0153275Y0140919D01*
X0153275Y0141717D02*
X0159762Y0141717D01*
X0159762Y0142516D02*
X0153275Y0142516D01*
X0153275Y0143314D02*
X0159762Y0143314D01*
X0160460Y0144113D02*
X0153275Y0144113D01*
X0153275Y0144911D02*
X0161259Y0144911D01*
X0162057Y0145710D02*
X0153275Y0145710D01*
X0153275Y0146508D02*
X0162856Y0146508D01*
X0168239Y0147307D02*
X0153275Y0147307D01*
X0153275Y0148105D02*
X0168239Y0148105D01*
X0168239Y0148904D02*
X0153275Y0148904D01*
X0153275Y0149702D02*
X0168362Y0149702D01*
X0168239Y0143314D02*
X0164753Y0143314D01*
X0163955Y0142516D02*
X0168239Y0142516D01*
X0168239Y0141717D02*
X0163362Y0141717D01*
X0163362Y0140919D02*
X0168239Y0140919D01*
X0168239Y0140120D02*
X0163752Y0140120D01*
X0163752Y0139322D02*
X0168239Y0139322D01*
X0168427Y0138523D02*
X0163664Y0138523D01*
X0153275Y0150501D02*
X0238441Y0150501D01*
X0238441Y0150588D02*
X0238441Y0148774D01*
X0239724Y0147491D01*
X0241539Y0147491D01*
X0242336Y0148287D01*
X0252052Y0148287D01*
X0252849Y0147491D01*
X0254664Y0147491D01*
X0255947Y0148774D01*
X0255947Y0150588D01*
X0254664Y0151872D01*
X0252849Y0151872D01*
X0252052Y0151075D01*
X0242336Y0151075D01*
X0241539Y0151872D01*
X0239724Y0151872D01*
X0238441Y0150588D01*
X0238441Y0149702D02*
X0179958Y0149702D01*
X0180081Y0148904D02*
X0238441Y0148904D01*
X0239110Y0148105D02*
X0180081Y0148105D01*
X0180081Y0147307D02*
X0259908Y0147307D01*
X0260349Y0146866D02*
X0262164Y0146866D01*
X0263447Y0148149D01*
X0263447Y0149963D01*
X0262164Y0151247D01*
X0260349Y0151247D01*
X0259066Y0149963D01*
X0259066Y0148149D01*
X0260349Y0146866D01*
X0259110Y0148105D02*
X0255278Y0148105D01*
X0255947Y0148904D02*
X0259066Y0148904D01*
X0259066Y0149702D02*
X0255947Y0149702D01*
X0255947Y0150501D02*
X0259603Y0150501D01*
X0258794Y0152098D02*
X0153275Y0152098D01*
X0153275Y0151299D02*
X0239152Y0151299D01*
X0242111Y0151299D02*
X0252277Y0151299D01*
X0255236Y0151299D02*
X0262718Y0151299D01*
X0262910Y0150501D02*
X0263516Y0150501D01*
X0263447Y0149702D02*
X0264315Y0149702D01*
X0265082Y0148904D02*
X0263447Y0148904D01*
X0263403Y0148105D02*
X0265082Y0148105D01*
X0265082Y0147307D02*
X0262605Y0147307D01*
X0265082Y0146508D02*
X0180081Y0146508D01*
X0180081Y0145710D02*
X0265082Y0145710D01*
X0265082Y0144911D02*
X0180081Y0144911D01*
X0180081Y0144113D02*
X0265082Y0144113D01*
X0265082Y0143314D02*
X0180081Y0143314D01*
X0180081Y0142516D02*
X0265082Y0142516D01*
X0265082Y0141717D02*
X0180081Y0141717D01*
X0180081Y0140919D02*
X0265082Y0140919D01*
X0265082Y0140120D02*
X0180081Y0140120D01*
X0180081Y0139322D02*
X0265082Y0139322D01*
X0265082Y0138523D02*
X0179894Y0138523D01*
X0152822Y0152896D02*
X0257996Y0152896D01*
X0257197Y0153695D02*
X0152822Y0153695D01*
X0152042Y0154493D02*
X0256399Y0154493D01*
X0259094Y0156889D02*
X0260333Y0156889D01*
X0260333Y0157687D02*
X0258296Y0157687D01*
X0257822Y0158486D02*
X0260333Y0158486D01*
X0260333Y0159284D02*
X0257251Y0159284D01*
X0259893Y0156090D02*
X0260558Y0156090D01*
X0260691Y0155292D02*
X0267988Y0155292D01*
X0267730Y0156090D02*
X0267270Y0156090D01*
X0270775Y0156090D02*
X0272604Y0156090D01*
X0271425Y0156889D02*
X0271147Y0156889D01*
X0270775Y0155292D02*
X0295244Y0155292D01*
X0295244Y0155232D02*
X0295779Y0153942D01*
X0296767Y0152954D01*
X0298058Y0152419D01*
X0299455Y0152419D01*
X0300746Y0152954D01*
X0301734Y0153942D01*
X0302269Y0155232D01*
X0302269Y0156630D01*
X0301734Y0157921D01*
X0300746Y0158909D01*
X0299455Y0159443D01*
X0298058Y0159443D01*
X0296767Y0158909D01*
X0295779Y0157921D01*
X0295244Y0156630D01*
X0295244Y0155232D01*
X0295551Y0154493D02*
X0270775Y0154493D01*
X0270775Y0153695D02*
X0296026Y0153695D01*
X0296906Y0152896D02*
X0270775Y0152896D01*
X0270775Y0152098D02*
X0307012Y0152098D01*
X0307012Y0152896D02*
X0300607Y0152896D01*
X0301487Y0153695D02*
X0307012Y0153695D01*
X0307012Y0154493D02*
X0301963Y0154493D01*
X0302269Y0155292D02*
X0307012Y0155292D01*
X0307012Y0156090D02*
X0302269Y0156090D01*
X0302161Y0156889D02*
X0307012Y0156889D01*
X0307012Y0157687D02*
X0301831Y0157687D01*
X0301169Y0158486D02*
X0307012Y0158486D01*
X0307012Y0159284D02*
X0299839Y0159284D01*
X0297674Y0159284D02*
X0286780Y0159284D01*
X0286780Y0158486D02*
X0296344Y0158486D01*
X0295682Y0157687D02*
X0286475Y0157687D01*
X0285930Y0156889D02*
X0295352Y0156889D01*
X0295244Y0156090D02*
X0284751Y0156090D01*
X0282447Y0156090D02*
X0279830Y0156090D01*
X0281009Y0156889D02*
X0281268Y0156889D01*
X0277525Y0156090D02*
X0274909Y0156090D01*
X0276088Y0156889D02*
X0276346Y0156889D01*
X0276803Y0161680D02*
X0275632Y0161680D01*
X0271882Y0161680D02*
X0270730Y0161680D01*
X0280553Y0161680D02*
X0281724Y0161680D01*
X0285474Y0161680D02*
X0307012Y0161680D01*
X0307012Y0160881D02*
X0286273Y0160881D01*
X0286617Y0160083D02*
X0307012Y0160083D01*
X0265082Y0137724D02*
X0223495Y0137724D01*
X0223674Y0136926D02*
X0265082Y0136926D01*
X0265082Y0136127D02*
X0223674Y0136127D01*
X0223674Y0135329D02*
X0265082Y0135329D01*
X0265082Y0134530D02*
X0223674Y0134530D01*
X0223674Y0133732D02*
X0260334Y0133732D01*
X0262179Y0133732D02*
X0265082Y0133732D01*
X0265082Y0132933D02*
X0262977Y0132933D01*
X0263447Y0132135D02*
X0265082Y0132135D01*
X0265082Y0131336D02*
X0263447Y0131336D01*
X0263336Y0130538D02*
X0265082Y0130538D01*
X0265082Y0129739D02*
X0262538Y0129739D01*
X0261257Y0131556D02*
X0258757Y0131556D01*
X0258154Y0132933D02*
X0251727Y0132933D01*
X0252526Y0132135D02*
X0257357Y0132135D01*
X0256566Y0131336D02*
X0252822Y0131336D01*
X0252822Y0130538D02*
X0255767Y0130538D01*
X0254969Y0129739D02*
X0252538Y0129739D01*
X0251739Y0128941D02*
X0254170Y0128941D01*
X0256515Y0127344D02*
X0265082Y0127344D01*
X0265082Y0128142D02*
X0257314Y0128142D01*
X0258112Y0128941D02*
X0265082Y0128941D01*
X0259975Y0129739D02*
X0258911Y0129739D01*
X0249524Y0128941D02*
X0244362Y0128941D01*
X0242816Y0131336D02*
X0223674Y0131336D01*
X0223674Y0132135D02*
X0243614Y0132135D01*
X0249536Y0132933D02*
X0223674Y0132933D01*
X0240857Y0118560D02*
X0243790Y0118560D01*
X0244588Y0119359D02*
X0241655Y0119359D01*
X0242991Y0117762D02*
X0240058Y0117762D01*
X0239260Y0116963D02*
X0242193Y0116963D01*
X0241394Y0116165D02*
X0238461Y0116165D01*
X0262988Y0107381D02*
X0162201Y0107381D01*
X0133524Y0112971D02*
X0131182Y0112971D01*
X0131640Y0113769D02*
X0133457Y0113769D01*
X0133457Y0114568D02*
X0132439Y0114568D01*
X0111288Y0123351D02*
X0098932Y0123351D01*
X0144596Y0168068D02*
X0144977Y0168068D01*
X0144977Y0168866D02*
X0144596Y0168866D01*
X0144596Y0169665D02*
X0144977Y0169665D01*
X0144977Y0170463D02*
X0144596Y0170463D01*
X0144596Y0171262D02*
X0144977Y0171262D01*
X0208391Y0156090D02*
X0208815Y0156090D01*
X0232844Y0156090D02*
X0233269Y0156090D01*
X0235573Y0156090D02*
X0238190Y0156090D01*
X0237011Y0156889D02*
X0236752Y0156889D01*
X0240495Y0156090D02*
X0243111Y0156090D01*
X0241932Y0156889D02*
X0241674Y0156889D01*
X0241217Y0161680D02*
X0242388Y0161680D01*
X0237467Y0161680D02*
X0236296Y0161680D01*
X0242153Y0148105D02*
X0252235Y0148105D01*
X0263981Y0123351D02*
X0265082Y0123351D01*
X0265082Y0122553D02*
X0264447Y0122553D01*
X0287189Y0111374D02*
X0307012Y0111374D01*
X0307012Y0110575D02*
X0287588Y0110575D01*
X0287588Y0109777D02*
X0307012Y0109777D01*
X0307012Y0108978D02*
X0287588Y0108978D01*
X0287588Y0108180D02*
X0307012Y0108180D01*
X0307012Y0107381D02*
X0287588Y0107381D01*
X0287588Y0106583D02*
X0307012Y0106583D01*
X0307012Y0105784D02*
X0287588Y0105784D01*
X0287588Y0104986D02*
X0307012Y0104986D01*
X0307012Y0104187D02*
X0287588Y0104187D01*
X0287588Y0103388D02*
X0307012Y0103388D01*
X0307012Y0102590D02*
X0287588Y0102590D01*
X0287588Y0101791D02*
X0307012Y0101791D01*
X0307012Y0100993D02*
X0287588Y0100993D01*
X0279238Y0075441D02*
X0279218Y0075441D01*
X0252725Y0072247D02*
X0244788Y0072247D01*
X0245327Y0073045D02*
X0252186Y0073045D01*
X0252186Y0073844D02*
X0245327Y0073844D01*
X0245327Y0074642D02*
X0252186Y0074642D01*
X0230704Y0056276D02*
X0230323Y0056276D01*
X0230323Y0055478D02*
X0230704Y0055478D01*
X0230704Y0054679D02*
X0230323Y0054679D01*
X0230323Y0053881D02*
X0230704Y0053881D01*
X0230704Y0053082D02*
X0230323Y0053082D01*
X0230323Y0052284D02*
X0230704Y0052284D01*
X0230704Y0051485D02*
X0230323Y0051485D01*
X0230323Y0050687D02*
X0230704Y0050687D01*
X0230704Y0049888D02*
X0230323Y0049888D01*
X0229382Y0045931D02*
X0241257Y0045931D01*
X0244532Y0050687D02*
X0247824Y0050687D01*
X0247307Y0051485D02*
X0244532Y0051485D01*
X0245214Y0052284D02*
X0247022Y0052284D01*
X0247022Y0053082D02*
X0246013Y0053082D01*
X0246811Y0053881D02*
X0247205Y0053881D01*
X0221994Y0045097D02*
X0214843Y0045097D01*
X0215642Y0045896D02*
X0221196Y0045896D01*
X0220397Y0046694D02*
X0216440Y0046694D01*
X0217239Y0047493D02*
X0219599Y0047493D01*
X0219238Y0048291D02*
X0217550Y0048291D01*
X0217550Y0049090D02*
X0219238Y0049090D01*
X0219238Y0049888D02*
X0217550Y0049888D01*
X0218129Y0050687D02*
X0218292Y0050687D01*
X0188857Y0050687D02*
X0188715Y0050687D01*
D23*
X0140632Y0065931D03*
X0119382Y0065931D03*
X0096882Y0066556D03*
X0088757Y0065931D03*
X0175632Y0107181D03*
X0175632Y0110931D03*
X0180007Y0110931D03*
X0180007Y0107181D03*
X0184613Y0107181D03*
X0181257Y0100931D03*
X0193757Y0093431D03*
X0189382Y0088431D03*
X0181257Y0084056D03*
X0200632Y0122181D03*
X0195632Y0126556D03*
X0182507Y0126556D03*
X0161562Y0139519D03*
X0150632Y0152806D03*
X0115632Y0152806D03*
X0095007Y0152806D03*
X0083757Y0152806D03*
X0209382Y0126556D03*
X0221882Y0126556D03*
X0231882Y0137806D03*
X0240632Y0149681D03*
X0253757Y0149681D03*
X0261257Y0149056D03*
X0255632Y0157806D03*
X0277507Y0154056D03*
X0261257Y0131556D03*
X0250632Y0130931D03*
X0245912Y0125651D03*
X0266882Y0120306D03*
X0271257Y0105306D03*
X0276257Y0105306D03*
X0281257Y0105306D03*
X0281257Y0100306D03*
X0281257Y0095306D03*
X0276257Y0095306D03*
X0271257Y0095306D03*
X0271257Y0100306D03*
X0276257Y0100306D03*
X0268132Y0084056D03*
X0257507Y0081869D03*
X0246808Y0094755D03*
X0280632Y0078431D03*
X0284694Y0081556D03*
X0288757Y0083431D03*
X0289382Y0078119D03*
X0292507Y0078431D03*
X0302113Y0083338D03*
X0273757Y0061556D03*
X0270007Y0061556D03*
X0280144Y0056438D03*
X0280188Y0043475D03*
X0302088Y0056531D03*
X0300632Y0060931D03*
X0257457Y0057619D03*
X0291882Y0119681D03*
X0298757Y0119681D03*
D24*
X0227507Y0173431D03*
X0204357Y0173431D03*
D25*
X0174160Y0144145D02*
X0173077Y0144145D01*
X0171798Y0145424D01*
X0164318Y0145424D01*
X0161562Y0142668D01*
X0161562Y0139519D01*
X0161562Y0134986D01*
X0143182Y0116606D01*
X0137757Y0116606D01*
X0131932Y0116606D01*
X0129382Y0114056D01*
X0129382Y0104056D01*
X0129132Y0103806D01*
X0114757Y0103806D01*
X0129382Y0104056D02*
X0129382Y0100306D01*
X0131993Y0097695D01*
X0159094Y0097695D01*
X0159186Y0097786D01*
X0176129Y0097786D01*
X0179273Y0100931D01*
X0181257Y0100931D01*
X0189382Y0088431D02*
X0191257Y0086556D01*
X0191257Y0075931D01*
X0191257Y0052786D01*
X0191257Y0048431D01*
X0193132Y0046556D01*
X0213757Y0046556D01*
X0215750Y0048549D01*
X0215750Y0052806D01*
X0186335Y0052806D02*
X0186335Y0078977D01*
X0181257Y0084056D01*
X0191257Y0075931D02*
X0242384Y0075931D01*
X0242457Y0075857D01*
X0268132Y0078028D02*
X0268132Y0084056D01*
X0284775Y0070941D02*
X0285400Y0071335D01*
X0284775Y0070941D02*
X0290007Y0065710D01*
X0290007Y0060921D01*
X0300622Y0060921D01*
X0300632Y0060931D01*
X0303978Y0064278D01*
X0303978Y0067181D01*
X0290007Y0060921D02*
X0285622Y0060921D01*
X0283757Y0059056D01*
X0283757Y0051309D01*
X0279053Y0046605D01*
X0252900Y0046605D01*
X0250203Y0049302D01*
X0250203Y0052806D01*
X0261478Y0120306D02*
X0266882Y0120306D01*
X0266882Y0149681D01*
X0263132Y0153431D01*
X0260007Y0153431D01*
X0255632Y0157806D01*
D26*
X0253757Y0149681D02*
X0240632Y0149681D01*
X0244382Y0130931D02*
X0232507Y0119056D01*
X0180732Y0119056D01*
X0180682Y0119006D01*
X0180632Y0119056D01*
X0155632Y0119056D01*
X0145582Y0109006D01*
X0137757Y0109006D01*
X0137757Y0111506D02*
X0143707Y0111506D01*
X0154382Y0122181D01*
X0200632Y0122181D01*
X0202398Y0102781D02*
X0202507Y0102673D01*
X0202507Y0095931D01*
X0208757Y0089681D01*
X0247507Y0089681D01*
X0255319Y0081869D01*
X0257507Y0081869D01*
X0255056Y0078982D02*
X0255056Y0075857D01*
X0255056Y0078982D02*
X0246857Y0087181D01*
X0207507Y0087181D01*
X0201257Y0093431D01*
X0193757Y0093431D01*
X0158757Y0114056D02*
X0241257Y0114056D01*
X0258757Y0131556D01*
X0250632Y0130931D02*
X0244382Y0130931D01*
X0245912Y0125651D02*
X0245912Y0125587D01*
X0236882Y0116556D01*
X0157507Y0116556D01*
X0147357Y0106406D01*
X0137757Y0106406D01*
X0137757Y0103806D02*
X0148507Y0103806D01*
X0158757Y0114056D01*
X0151882Y0129681D02*
X0141407Y0119206D01*
X0137757Y0119206D01*
X0151882Y0129681D02*
X0151882Y0151556D01*
X0150632Y0152806D01*
X0115632Y0152806D02*
X0105007Y0142181D01*
X0096882Y0142181D01*
X0093757Y0139056D01*
X0093757Y0126556D01*
X0098507Y0121806D01*
X0114757Y0121806D01*
X0114757Y0119206D02*
X0096732Y0119206D01*
X0091257Y0124681D01*
X0091257Y0149056D01*
X0095007Y0152806D01*
X0088757Y0149056D02*
X0088757Y0122806D01*
X0094957Y0116606D01*
X0114757Y0116606D01*
X0114757Y0114106D02*
X0096932Y0114106D01*
X0091882Y0109056D01*
X0091882Y0069056D01*
X0088757Y0065931D01*
X0094382Y0069056D02*
X0096882Y0066556D01*
X0094382Y0069056D02*
X0094382Y0107806D01*
X0098082Y0111506D01*
X0114757Y0111506D01*
X0114757Y0109006D02*
X0099332Y0109006D01*
X0096882Y0106556D01*
X0096882Y0080306D01*
X0100007Y0077181D01*
X0108132Y0077181D01*
X0119382Y0065931D01*
X0111882Y0077181D02*
X0109382Y0079681D01*
X0101882Y0079681D01*
X0099382Y0082181D01*
X0099382Y0104681D01*
X0101107Y0106406D01*
X0114757Y0106406D01*
X0111882Y0077181D02*
X0129382Y0077181D01*
X0140632Y0065931D01*
X0220671Y0052806D02*
X0220632Y0051517D01*
X0220632Y0048431D01*
X0223132Y0045931D01*
X0229382Y0045931D01*
X0227507Y0047806D02*
X0225632Y0049681D01*
X0225632Y0051517D01*
X0225592Y0052806D01*
X0227507Y0047806D02*
X0233132Y0047806D01*
X0253132Y0062181D02*
X0269382Y0062181D01*
X0270007Y0061556D01*
X0271837Y0064101D02*
X0268132Y0064101D01*
X0268132Y0071335D01*
X0276257Y0071335D02*
X0276257Y0057806D01*
X0275007Y0056556D01*
X0267507Y0056556D01*
X0273757Y0061556D02*
X0273757Y0062181D01*
X0271837Y0064101D01*
X0268132Y0064101D02*
X0252551Y0064101D01*
X0276257Y0071335D02*
X0279160Y0071335D01*
X0280632Y0072806D01*
X0280632Y0078431D01*
X0285400Y0078028D02*
X0284775Y0081475D01*
X0284694Y0081556D01*
X0285491Y0078119D02*
X0289382Y0078119D01*
X0292507Y0078431D02*
X0292507Y0084056D01*
X0288132Y0088431D01*
X0266257Y0088431D01*
X0264382Y0090306D01*
X0264382Y0113119D01*
X0269382Y0118119D01*
X0269382Y0158530D01*
X0268835Y0159076D01*
X0254785Y0120306D02*
X0255007Y0120085D01*
X0255007Y0116556D01*
X0256257Y0115306D01*
X0260007Y0115306D01*
X0261084Y0114228D01*
X0261084Y0111556D01*
X0261084Y0103431D02*
X0261257Y0103259D01*
X0261257Y0088431D01*
X0263444Y0086244D01*
X0274069Y0086244D01*
X0276257Y0084056D01*
X0276257Y0078028D01*
X0285400Y0078028D02*
X0285491Y0078119D01*
X0292507Y0078431D02*
X0294785Y0078431D01*
X0297285Y0075931D01*
X0297285Y0067181D01*
X0246808Y0094755D02*
X0242457Y0094755D01*
X0088757Y0149056D02*
X0085007Y0152806D01*
X0083757Y0152806D01*
M02*
