G75*
%MOIN*%
%OFA0B0*%
%FSLAX25Y25*%
%IPPOS*%
%LPD*%
%AMOC8*
5,1,8,0,0,1.08239X$1,22.5*
%
%ADD10C,0.08668*%
%ADD11R,0.20085X0.20085*%
%ADD12R,0.04762X0.04762*%
%ADD13C,0.04762*%
%ADD14R,0.04337X0.04731*%
%ADD15R,0.04731X0.04337*%
%ADD16R,0.06306X0.05518*%
%ADD17R,0.06200X0.01800*%
%ADD18R,0.03550X0.03550*%
%ADD19R,0.05518X0.06502*%
%ADD20R,0.04140X0.05715*%
%ADD21C,0.08116*%
%ADD22R,0.10243X0.10439*%
D10*
X0060381Y0048180D03*
X0060381Y0170227D03*
X0300538Y0170227D03*
X0300538Y0048180D03*
D11*
X0276345Y0100552D03*
D12*
X0274810Y0052806D03*
X0230513Y0052806D03*
X0196178Y0052826D03*
X0147826Y0050989D03*
X0126026Y0050989D03*
X0104226Y0050989D03*
X0082426Y0050989D03*
X0205046Y0159056D03*
X0229500Y0159056D03*
X0263914Y0159036D03*
X0144787Y0167749D03*
X0122362Y0167749D03*
X0100562Y0167749D03*
X0078137Y0167749D03*
D13*
X0078176Y0162827D03*
X0078157Y0157906D03*
X0078157Y0152985D03*
X0078157Y0148064D03*
X0100582Y0148064D03*
X0100582Y0152985D03*
X0100582Y0157906D03*
X0100601Y0162827D03*
X0122401Y0162827D03*
X0122382Y0157906D03*
X0122382Y0152985D03*
X0122382Y0148064D03*
X0144807Y0148064D03*
X0144807Y0152985D03*
X0144807Y0157906D03*
X0144826Y0162827D03*
X0209967Y0159056D03*
X0234421Y0159056D03*
X0239342Y0159056D03*
X0244263Y0159056D03*
X0268835Y0159076D03*
X0273757Y0159056D03*
X0278678Y0159056D03*
X0283599Y0159056D03*
X0147807Y0070674D03*
X0147807Y0065752D03*
X0147807Y0060831D03*
X0147787Y0055910D03*
X0125987Y0055910D03*
X0126007Y0060831D03*
X0126007Y0065752D03*
X0126007Y0070674D03*
X0104207Y0070674D03*
X0104207Y0065752D03*
X0104207Y0060831D03*
X0104187Y0055910D03*
X0082387Y0055910D03*
X0082407Y0060831D03*
X0082407Y0065752D03*
X0082407Y0070674D03*
X0186335Y0052806D03*
X0191257Y0052786D03*
X0215750Y0052806D03*
X0220671Y0052806D03*
X0225592Y0052806D03*
X0250203Y0052806D03*
X0255125Y0052806D03*
X0260046Y0052806D03*
X0264967Y0052806D03*
X0269888Y0052806D03*
D14*
X0297285Y0067181D03*
X0303978Y0067181D03*
X0261478Y0120306D03*
X0254785Y0120306D03*
X0159094Y0104388D03*
X0159094Y0097695D03*
D15*
X0268132Y0078028D03*
X0276257Y0078028D03*
X0276257Y0071335D03*
X0268132Y0071335D03*
X0285400Y0071335D03*
X0285400Y0078028D03*
X0297285Y0075931D03*
X0303978Y0075931D03*
D16*
X0290007Y0060921D03*
X0290007Y0053441D03*
D17*
X0137757Y0103806D03*
X0137757Y0106406D03*
X0137757Y0109006D03*
X0137757Y0111506D03*
X0137757Y0114106D03*
X0137757Y0116606D03*
X0137757Y0119206D03*
X0137757Y0121806D03*
X0114757Y0121806D03*
X0114757Y0119206D03*
X0114757Y0116606D03*
X0114757Y0114106D03*
X0114757Y0111506D03*
X0114757Y0109006D03*
X0114757Y0106406D03*
X0114757Y0103806D03*
D18*
X0255179Y0103431D03*
X0261084Y0103431D03*
X0261084Y0111556D03*
X0255179Y0111556D03*
D19*
X0220115Y0102781D03*
X0202398Y0102781D03*
X0202398Y0134081D03*
X0220115Y0134081D03*
D20*
X0242457Y0094755D03*
X0255056Y0094755D03*
X0255056Y0075857D03*
X0242457Y0075857D03*
D21*
X0298757Y0155931D03*
D22*
X0174160Y0164027D03*
X0174160Y0144145D03*
M02*
