G75*
%MOIN*%
%OFA0B0*%
%FSLAX25Y25*%
%IPPOS*%
%LPD*%
%AMOC8*
5,1,8,0,0,1.08239X$1,22.5*
%
%ADD10C,0.00000*%
D10*
X0052507Y0040306D02*
X0052507Y0178087D01*
X0052507Y0178101D02*
X0308412Y0178101D01*
X0308412Y0040306D01*
X0052507Y0040306D01*
X0056247Y0048180D02*
X0056249Y0048308D01*
X0056255Y0048436D01*
X0056265Y0048563D01*
X0056279Y0048691D01*
X0056296Y0048817D01*
X0056318Y0048943D01*
X0056344Y0049069D01*
X0056373Y0049193D01*
X0056406Y0049317D01*
X0056443Y0049439D01*
X0056484Y0049560D01*
X0056529Y0049680D01*
X0056577Y0049799D01*
X0056629Y0049916D01*
X0056685Y0050031D01*
X0056744Y0050145D01*
X0056806Y0050256D01*
X0056872Y0050366D01*
X0056941Y0050473D01*
X0057014Y0050579D01*
X0057090Y0050682D01*
X0057169Y0050782D01*
X0057251Y0050881D01*
X0057336Y0050976D01*
X0057424Y0051069D01*
X0057515Y0051159D01*
X0057608Y0051246D01*
X0057705Y0051331D01*
X0057803Y0051412D01*
X0057905Y0051490D01*
X0058008Y0051565D01*
X0058114Y0051637D01*
X0058222Y0051706D01*
X0058332Y0051771D01*
X0058445Y0051832D01*
X0058559Y0051891D01*
X0058674Y0051945D01*
X0058792Y0051996D01*
X0058910Y0052044D01*
X0059031Y0052087D01*
X0059152Y0052127D01*
X0059275Y0052163D01*
X0059399Y0052196D01*
X0059524Y0052224D01*
X0059649Y0052249D01*
X0059775Y0052269D01*
X0059902Y0052286D01*
X0060030Y0052299D01*
X0060157Y0052308D01*
X0060285Y0052313D01*
X0060413Y0052314D01*
X0060541Y0052311D01*
X0060669Y0052304D01*
X0060796Y0052293D01*
X0060923Y0052278D01*
X0061050Y0052260D01*
X0061176Y0052237D01*
X0061301Y0052210D01*
X0061425Y0052180D01*
X0061548Y0052146D01*
X0061671Y0052108D01*
X0061792Y0052066D01*
X0061911Y0052020D01*
X0062029Y0051971D01*
X0062146Y0051918D01*
X0062261Y0051862D01*
X0062374Y0051802D01*
X0062485Y0051739D01*
X0062594Y0051672D01*
X0062701Y0051602D01*
X0062806Y0051528D01*
X0062908Y0051452D01*
X0063008Y0051372D01*
X0063106Y0051289D01*
X0063201Y0051203D01*
X0063293Y0051114D01*
X0063382Y0051023D01*
X0063469Y0050929D01*
X0063552Y0050832D01*
X0063633Y0050732D01*
X0063710Y0050631D01*
X0063785Y0050526D01*
X0063856Y0050420D01*
X0063923Y0050311D01*
X0063988Y0050201D01*
X0064048Y0050088D01*
X0064106Y0049974D01*
X0064159Y0049858D01*
X0064209Y0049740D01*
X0064256Y0049621D01*
X0064299Y0049500D01*
X0064338Y0049378D01*
X0064373Y0049255D01*
X0064404Y0049131D01*
X0064432Y0049006D01*
X0064455Y0048880D01*
X0064475Y0048754D01*
X0064491Y0048627D01*
X0064503Y0048500D01*
X0064511Y0048372D01*
X0064515Y0048244D01*
X0064515Y0048116D01*
X0064511Y0047988D01*
X0064503Y0047860D01*
X0064491Y0047733D01*
X0064475Y0047606D01*
X0064455Y0047480D01*
X0064432Y0047354D01*
X0064404Y0047229D01*
X0064373Y0047105D01*
X0064338Y0046982D01*
X0064299Y0046860D01*
X0064256Y0046739D01*
X0064209Y0046620D01*
X0064159Y0046502D01*
X0064106Y0046386D01*
X0064048Y0046272D01*
X0063988Y0046159D01*
X0063923Y0046049D01*
X0063856Y0045940D01*
X0063785Y0045834D01*
X0063710Y0045729D01*
X0063633Y0045628D01*
X0063552Y0045528D01*
X0063469Y0045431D01*
X0063382Y0045337D01*
X0063293Y0045246D01*
X0063201Y0045157D01*
X0063106Y0045071D01*
X0063008Y0044988D01*
X0062908Y0044908D01*
X0062806Y0044832D01*
X0062701Y0044758D01*
X0062594Y0044688D01*
X0062485Y0044621D01*
X0062374Y0044558D01*
X0062261Y0044498D01*
X0062146Y0044442D01*
X0062029Y0044389D01*
X0061911Y0044340D01*
X0061792Y0044294D01*
X0061671Y0044252D01*
X0061548Y0044214D01*
X0061425Y0044180D01*
X0061301Y0044150D01*
X0061176Y0044123D01*
X0061050Y0044100D01*
X0060923Y0044082D01*
X0060796Y0044067D01*
X0060669Y0044056D01*
X0060541Y0044049D01*
X0060413Y0044046D01*
X0060285Y0044047D01*
X0060157Y0044052D01*
X0060030Y0044061D01*
X0059902Y0044074D01*
X0059775Y0044091D01*
X0059649Y0044111D01*
X0059524Y0044136D01*
X0059399Y0044164D01*
X0059275Y0044197D01*
X0059152Y0044233D01*
X0059031Y0044273D01*
X0058910Y0044316D01*
X0058792Y0044364D01*
X0058674Y0044415D01*
X0058559Y0044469D01*
X0058445Y0044528D01*
X0058332Y0044589D01*
X0058222Y0044654D01*
X0058114Y0044723D01*
X0058008Y0044795D01*
X0057905Y0044870D01*
X0057803Y0044948D01*
X0057705Y0045029D01*
X0057608Y0045114D01*
X0057515Y0045201D01*
X0057424Y0045291D01*
X0057336Y0045384D01*
X0057251Y0045479D01*
X0057169Y0045578D01*
X0057090Y0045678D01*
X0057014Y0045781D01*
X0056941Y0045887D01*
X0056872Y0045994D01*
X0056806Y0046104D01*
X0056744Y0046215D01*
X0056685Y0046329D01*
X0056629Y0046444D01*
X0056577Y0046561D01*
X0056529Y0046680D01*
X0056484Y0046800D01*
X0056443Y0046921D01*
X0056406Y0047043D01*
X0056373Y0047167D01*
X0056344Y0047291D01*
X0056318Y0047417D01*
X0056296Y0047543D01*
X0056279Y0047669D01*
X0056265Y0047797D01*
X0056255Y0047924D01*
X0056249Y0048052D01*
X0056247Y0048180D01*
X0056247Y0170227D02*
X0056249Y0170355D01*
X0056255Y0170483D01*
X0056265Y0170610D01*
X0056279Y0170738D01*
X0056296Y0170864D01*
X0056318Y0170990D01*
X0056344Y0171116D01*
X0056373Y0171240D01*
X0056406Y0171364D01*
X0056443Y0171486D01*
X0056484Y0171607D01*
X0056529Y0171727D01*
X0056577Y0171846D01*
X0056629Y0171963D01*
X0056685Y0172078D01*
X0056744Y0172192D01*
X0056806Y0172303D01*
X0056872Y0172413D01*
X0056941Y0172520D01*
X0057014Y0172626D01*
X0057090Y0172729D01*
X0057169Y0172829D01*
X0057251Y0172928D01*
X0057336Y0173023D01*
X0057424Y0173116D01*
X0057515Y0173206D01*
X0057608Y0173293D01*
X0057705Y0173378D01*
X0057803Y0173459D01*
X0057905Y0173537D01*
X0058008Y0173612D01*
X0058114Y0173684D01*
X0058222Y0173753D01*
X0058332Y0173818D01*
X0058445Y0173879D01*
X0058559Y0173938D01*
X0058674Y0173992D01*
X0058792Y0174043D01*
X0058910Y0174091D01*
X0059031Y0174134D01*
X0059152Y0174174D01*
X0059275Y0174210D01*
X0059399Y0174243D01*
X0059524Y0174271D01*
X0059649Y0174296D01*
X0059775Y0174316D01*
X0059902Y0174333D01*
X0060030Y0174346D01*
X0060157Y0174355D01*
X0060285Y0174360D01*
X0060413Y0174361D01*
X0060541Y0174358D01*
X0060669Y0174351D01*
X0060796Y0174340D01*
X0060923Y0174325D01*
X0061050Y0174307D01*
X0061176Y0174284D01*
X0061301Y0174257D01*
X0061425Y0174227D01*
X0061548Y0174193D01*
X0061671Y0174155D01*
X0061792Y0174113D01*
X0061911Y0174067D01*
X0062029Y0174018D01*
X0062146Y0173965D01*
X0062261Y0173909D01*
X0062374Y0173849D01*
X0062485Y0173786D01*
X0062594Y0173719D01*
X0062701Y0173649D01*
X0062806Y0173575D01*
X0062908Y0173499D01*
X0063008Y0173419D01*
X0063106Y0173336D01*
X0063201Y0173250D01*
X0063293Y0173161D01*
X0063382Y0173070D01*
X0063469Y0172976D01*
X0063552Y0172879D01*
X0063633Y0172779D01*
X0063710Y0172678D01*
X0063785Y0172573D01*
X0063856Y0172467D01*
X0063923Y0172358D01*
X0063988Y0172248D01*
X0064048Y0172135D01*
X0064106Y0172021D01*
X0064159Y0171905D01*
X0064209Y0171787D01*
X0064256Y0171668D01*
X0064299Y0171547D01*
X0064338Y0171425D01*
X0064373Y0171302D01*
X0064404Y0171178D01*
X0064432Y0171053D01*
X0064455Y0170927D01*
X0064475Y0170801D01*
X0064491Y0170674D01*
X0064503Y0170547D01*
X0064511Y0170419D01*
X0064515Y0170291D01*
X0064515Y0170163D01*
X0064511Y0170035D01*
X0064503Y0169907D01*
X0064491Y0169780D01*
X0064475Y0169653D01*
X0064455Y0169527D01*
X0064432Y0169401D01*
X0064404Y0169276D01*
X0064373Y0169152D01*
X0064338Y0169029D01*
X0064299Y0168907D01*
X0064256Y0168786D01*
X0064209Y0168667D01*
X0064159Y0168549D01*
X0064106Y0168433D01*
X0064048Y0168319D01*
X0063988Y0168206D01*
X0063923Y0168096D01*
X0063856Y0167987D01*
X0063785Y0167881D01*
X0063710Y0167776D01*
X0063633Y0167675D01*
X0063552Y0167575D01*
X0063469Y0167478D01*
X0063382Y0167384D01*
X0063293Y0167293D01*
X0063201Y0167204D01*
X0063106Y0167118D01*
X0063008Y0167035D01*
X0062908Y0166955D01*
X0062806Y0166879D01*
X0062701Y0166805D01*
X0062594Y0166735D01*
X0062485Y0166668D01*
X0062374Y0166605D01*
X0062261Y0166545D01*
X0062146Y0166489D01*
X0062029Y0166436D01*
X0061911Y0166387D01*
X0061792Y0166341D01*
X0061671Y0166299D01*
X0061548Y0166261D01*
X0061425Y0166227D01*
X0061301Y0166197D01*
X0061176Y0166170D01*
X0061050Y0166147D01*
X0060923Y0166129D01*
X0060796Y0166114D01*
X0060669Y0166103D01*
X0060541Y0166096D01*
X0060413Y0166093D01*
X0060285Y0166094D01*
X0060157Y0166099D01*
X0060030Y0166108D01*
X0059902Y0166121D01*
X0059775Y0166138D01*
X0059649Y0166158D01*
X0059524Y0166183D01*
X0059399Y0166211D01*
X0059275Y0166244D01*
X0059152Y0166280D01*
X0059031Y0166320D01*
X0058910Y0166363D01*
X0058792Y0166411D01*
X0058674Y0166462D01*
X0058559Y0166516D01*
X0058445Y0166575D01*
X0058332Y0166636D01*
X0058222Y0166701D01*
X0058114Y0166770D01*
X0058008Y0166842D01*
X0057905Y0166917D01*
X0057803Y0166995D01*
X0057705Y0167076D01*
X0057608Y0167161D01*
X0057515Y0167248D01*
X0057424Y0167338D01*
X0057336Y0167431D01*
X0057251Y0167526D01*
X0057169Y0167625D01*
X0057090Y0167725D01*
X0057014Y0167828D01*
X0056941Y0167934D01*
X0056872Y0168041D01*
X0056806Y0168151D01*
X0056744Y0168262D01*
X0056685Y0168376D01*
X0056629Y0168491D01*
X0056577Y0168608D01*
X0056529Y0168727D01*
X0056484Y0168847D01*
X0056443Y0168968D01*
X0056406Y0169090D01*
X0056373Y0169214D01*
X0056344Y0169338D01*
X0056318Y0169464D01*
X0056296Y0169590D01*
X0056279Y0169716D01*
X0056265Y0169844D01*
X0056255Y0169971D01*
X0056249Y0170099D01*
X0056247Y0170227D01*
X0296404Y0170227D02*
X0296406Y0170355D01*
X0296412Y0170483D01*
X0296422Y0170610D01*
X0296436Y0170738D01*
X0296453Y0170864D01*
X0296475Y0170990D01*
X0296501Y0171116D01*
X0296530Y0171240D01*
X0296563Y0171364D01*
X0296600Y0171486D01*
X0296641Y0171607D01*
X0296686Y0171727D01*
X0296734Y0171846D01*
X0296786Y0171963D01*
X0296842Y0172078D01*
X0296901Y0172192D01*
X0296963Y0172303D01*
X0297029Y0172413D01*
X0297098Y0172520D01*
X0297171Y0172626D01*
X0297247Y0172729D01*
X0297326Y0172829D01*
X0297408Y0172928D01*
X0297493Y0173023D01*
X0297581Y0173116D01*
X0297672Y0173206D01*
X0297765Y0173293D01*
X0297862Y0173378D01*
X0297960Y0173459D01*
X0298062Y0173537D01*
X0298165Y0173612D01*
X0298271Y0173684D01*
X0298379Y0173753D01*
X0298489Y0173818D01*
X0298602Y0173879D01*
X0298716Y0173938D01*
X0298831Y0173992D01*
X0298949Y0174043D01*
X0299067Y0174091D01*
X0299188Y0174134D01*
X0299309Y0174174D01*
X0299432Y0174210D01*
X0299556Y0174243D01*
X0299681Y0174271D01*
X0299806Y0174296D01*
X0299932Y0174316D01*
X0300059Y0174333D01*
X0300187Y0174346D01*
X0300314Y0174355D01*
X0300442Y0174360D01*
X0300570Y0174361D01*
X0300698Y0174358D01*
X0300826Y0174351D01*
X0300953Y0174340D01*
X0301080Y0174325D01*
X0301207Y0174307D01*
X0301333Y0174284D01*
X0301458Y0174257D01*
X0301582Y0174227D01*
X0301705Y0174193D01*
X0301828Y0174155D01*
X0301949Y0174113D01*
X0302068Y0174067D01*
X0302186Y0174018D01*
X0302303Y0173965D01*
X0302418Y0173909D01*
X0302531Y0173849D01*
X0302642Y0173786D01*
X0302751Y0173719D01*
X0302858Y0173649D01*
X0302963Y0173575D01*
X0303065Y0173499D01*
X0303165Y0173419D01*
X0303263Y0173336D01*
X0303358Y0173250D01*
X0303450Y0173161D01*
X0303539Y0173070D01*
X0303626Y0172976D01*
X0303709Y0172879D01*
X0303790Y0172779D01*
X0303867Y0172678D01*
X0303942Y0172573D01*
X0304013Y0172467D01*
X0304080Y0172358D01*
X0304145Y0172248D01*
X0304205Y0172135D01*
X0304263Y0172021D01*
X0304316Y0171905D01*
X0304366Y0171787D01*
X0304413Y0171668D01*
X0304456Y0171547D01*
X0304495Y0171425D01*
X0304530Y0171302D01*
X0304561Y0171178D01*
X0304589Y0171053D01*
X0304612Y0170927D01*
X0304632Y0170801D01*
X0304648Y0170674D01*
X0304660Y0170547D01*
X0304668Y0170419D01*
X0304672Y0170291D01*
X0304672Y0170163D01*
X0304668Y0170035D01*
X0304660Y0169907D01*
X0304648Y0169780D01*
X0304632Y0169653D01*
X0304612Y0169527D01*
X0304589Y0169401D01*
X0304561Y0169276D01*
X0304530Y0169152D01*
X0304495Y0169029D01*
X0304456Y0168907D01*
X0304413Y0168786D01*
X0304366Y0168667D01*
X0304316Y0168549D01*
X0304263Y0168433D01*
X0304205Y0168319D01*
X0304145Y0168206D01*
X0304080Y0168096D01*
X0304013Y0167987D01*
X0303942Y0167881D01*
X0303867Y0167776D01*
X0303790Y0167675D01*
X0303709Y0167575D01*
X0303626Y0167478D01*
X0303539Y0167384D01*
X0303450Y0167293D01*
X0303358Y0167204D01*
X0303263Y0167118D01*
X0303165Y0167035D01*
X0303065Y0166955D01*
X0302963Y0166879D01*
X0302858Y0166805D01*
X0302751Y0166735D01*
X0302642Y0166668D01*
X0302531Y0166605D01*
X0302418Y0166545D01*
X0302303Y0166489D01*
X0302186Y0166436D01*
X0302068Y0166387D01*
X0301949Y0166341D01*
X0301828Y0166299D01*
X0301705Y0166261D01*
X0301582Y0166227D01*
X0301458Y0166197D01*
X0301333Y0166170D01*
X0301207Y0166147D01*
X0301080Y0166129D01*
X0300953Y0166114D01*
X0300826Y0166103D01*
X0300698Y0166096D01*
X0300570Y0166093D01*
X0300442Y0166094D01*
X0300314Y0166099D01*
X0300187Y0166108D01*
X0300059Y0166121D01*
X0299932Y0166138D01*
X0299806Y0166158D01*
X0299681Y0166183D01*
X0299556Y0166211D01*
X0299432Y0166244D01*
X0299309Y0166280D01*
X0299188Y0166320D01*
X0299067Y0166363D01*
X0298949Y0166411D01*
X0298831Y0166462D01*
X0298716Y0166516D01*
X0298602Y0166575D01*
X0298489Y0166636D01*
X0298379Y0166701D01*
X0298271Y0166770D01*
X0298165Y0166842D01*
X0298062Y0166917D01*
X0297960Y0166995D01*
X0297862Y0167076D01*
X0297765Y0167161D01*
X0297672Y0167248D01*
X0297581Y0167338D01*
X0297493Y0167431D01*
X0297408Y0167526D01*
X0297326Y0167625D01*
X0297247Y0167725D01*
X0297171Y0167828D01*
X0297098Y0167934D01*
X0297029Y0168041D01*
X0296963Y0168151D01*
X0296901Y0168262D01*
X0296842Y0168376D01*
X0296786Y0168491D01*
X0296734Y0168608D01*
X0296686Y0168727D01*
X0296641Y0168847D01*
X0296600Y0168968D01*
X0296563Y0169090D01*
X0296530Y0169214D01*
X0296501Y0169338D01*
X0296475Y0169464D01*
X0296453Y0169590D01*
X0296436Y0169716D01*
X0296422Y0169844D01*
X0296412Y0169971D01*
X0296406Y0170099D01*
X0296404Y0170227D01*
X0296404Y0048180D02*
X0296406Y0048308D01*
X0296412Y0048436D01*
X0296422Y0048563D01*
X0296436Y0048691D01*
X0296453Y0048817D01*
X0296475Y0048943D01*
X0296501Y0049069D01*
X0296530Y0049193D01*
X0296563Y0049317D01*
X0296600Y0049439D01*
X0296641Y0049560D01*
X0296686Y0049680D01*
X0296734Y0049799D01*
X0296786Y0049916D01*
X0296842Y0050031D01*
X0296901Y0050145D01*
X0296963Y0050256D01*
X0297029Y0050366D01*
X0297098Y0050473D01*
X0297171Y0050579D01*
X0297247Y0050682D01*
X0297326Y0050782D01*
X0297408Y0050881D01*
X0297493Y0050976D01*
X0297581Y0051069D01*
X0297672Y0051159D01*
X0297765Y0051246D01*
X0297862Y0051331D01*
X0297960Y0051412D01*
X0298062Y0051490D01*
X0298165Y0051565D01*
X0298271Y0051637D01*
X0298379Y0051706D01*
X0298489Y0051771D01*
X0298602Y0051832D01*
X0298716Y0051891D01*
X0298831Y0051945D01*
X0298949Y0051996D01*
X0299067Y0052044D01*
X0299188Y0052087D01*
X0299309Y0052127D01*
X0299432Y0052163D01*
X0299556Y0052196D01*
X0299681Y0052224D01*
X0299806Y0052249D01*
X0299932Y0052269D01*
X0300059Y0052286D01*
X0300187Y0052299D01*
X0300314Y0052308D01*
X0300442Y0052313D01*
X0300570Y0052314D01*
X0300698Y0052311D01*
X0300826Y0052304D01*
X0300953Y0052293D01*
X0301080Y0052278D01*
X0301207Y0052260D01*
X0301333Y0052237D01*
X0301458Y0052210D01*
X0301582Y0052180D01*
X0301705Y0052146D01*
X0301828Y0052108D01*
X0301949Y0052066D01*
X0302068Y0052020D01*
X0302186Y0051971D01*
X0302303Y0051918D01*
X0302418Y0051862D01*
X0302531Y0051802D01*
X0302642Y0051739D01*
X0302751Y0051672D01*
X0302858Y0051602D01*
X0302963Y0051528D01*
X0303065Y0051452D01*
X0303165Y0051372D01*
X0303263Y0051289D01*
X0303358Y0051203D01*
X0303450Y0051114D01*
X0303539Y0051023D01*
X0303626Y0050929D01*
X0303709Y0050832D01*
X0303790Y0050732D01*
X0303867Y0050631D01*
X0303942Y0050526D01*
X0304013Y0050420D01*
X0304080Y0050311D01*
X0304145Y0050201D01*
X0304205Y0050088D01*
X0304263Y0049974D01*
X0304316Y0049858D01*
X0304366Y0049740D01*
X0304413Y0049621D01*
X0304456Y0049500D01*
X0304495Y0049378D01*
X0304530Y0049255D01*
X0304561Y0049131D01*
X0304589Y0049006D01*
X0304612Y0048880D01*
X0304632Y0048754D01*
X0304648Y0048627D01*
X0304660Y0048500D01*
X0304668Y0048372D01*
X0304672Y0048244D01*
X0304672Y0048116D01*
X0304668Y0047988D01*
X0304660Y0047860D01*
X0304648Y0047733D01*
X0304632Y0047606D01*
X0304612Y0047480D01*
X0304589Y0047354D01*
X0304561Y0047229D01*
X0304530Y0047105D01*
X0304495Y0046982D01*
X0304456Y0046860D01*
X0304413Y0046739D01*
X0304366Y0046620D01*
X0304316Y0046502D01*
X0304263Y0046386D01*
X0304205Y0046272D01*
X0304145Y0046159D01*
X0304080Y0046049D01*
X0304013Y0045940D01*
X0303942Y0045834D01*
X0303867Y0045729D01*
X0303790Y0045628D01*
X0303709Y0045528D01*
X0303626Y0045431D01*
X0303539Y0045337D01*
X0303450Y0045246D01*
X0303358Y0045157D01*
X0303263Y0045071D01*
X0303165Y0044988D01*
X0303065Y0044908D01*
X0302963Y0044832D01*
X0302858Y0044758D01*
X0302751Y0044688D01*
X0302642Y0044621D01*
X0302531Y0044558D01*
X0302418Y0044498D01*
X0302303Y0044442D01*
X0302186Y0044389D01*
X0302068Y0044340D01*
X0301949Y0044294D01*
X0301828Y0044252D01*
X0301705Y0044214D01*
X0301582Y0044180D01*
X0301458Y0044150D01*
X0301333Y0044123D01*
X0301207Y0044100D01*
X0301080Y0044082D01*
X0300953Y0044067D01*
X0300826Y0044056D01*
X0300698Y0044049D01*
X0300570Y0044046D01*
X0300442Y0044047D01*
X0300314Y0044052D01*
X0300187Y0044061D01*
X0300059Y0044074D01*
X0299932Y0044091D01*
X0299806Y0044111D01*
X0299681Y0044136D01*
X0299556Y0044164D01*
X0299432Y0044197D01*
X0299309Y0044233D01*
X0299188Y0044273D01*
X0299067Y0044316D01*
X0298949Y0044364D01*
X0298831Y0044415D01*
X0298716Y0044469D01*
X0298602Y0044528D01*
X0298489Y0044589D01*
X0298379Y0044654D01*
X0298271Y0044723D01*
X0298165Y0044795D01*
X0298062Y0044870D01*
X0297960Y0044948D01*
X0297862Y0045029D01*
X0297765Y0045114D01*
X0297672Y0045201D01*
X0297581Y0045291D01*
X0297493Y0045384D01*
X0297408Y0045479D01*
X0297326Y0045578D01*
X0297247Y0045678D01*
X0297171Y0045781D01*
X0297098Y0045887D01*
X0297029Y0045994D01*
X0296963Y0046104D01*
X0296901Y0046215D01*
X0296842Y0046329D01*
X0296786Y0046444D01*
X0296734Y0046561D01*
X0296686Y0046680D01*
X0296641Y0046800D01*
X0296600Y0046921D01*
X0296563Y0047043D01*
X0296530Y0047167D01*
X0296501Y0047291D01*
X0296475Y0047417D01*
X0296453Y0047543D01*
X0296436Y0047669D01*
X0296422Y0047797D01*
X0296412Y0047924D01*
X0296406Y0048052D01*
X0296404Y0048180D01*
M02*
