G75*
%MOIN*%
%OFA0B0*%
%FSLAX25Y25*%
%IPPOS*%
%LPD*%
%AMOC8*
5,1,8,0,0,1.08239X$1,22.5*
%
%ADD10C,0.00600*%
%ADD11C,0.00800*%
%ADD12C,0.00200*%
%ADD13C,0.00100*%
%ADD14C,0.01200*%
%ADD15C,0.00500*%
%ADD16C,0.00394*%
%ADD17C,0.00400*%
%ADD18R,0.03740X0.01969*%
%ADD19R,0.01600X0.03400*%
%ADD20R,0.01969X0.03740*%
%ADD21R,0.05709X0.02953*%
%ADD22R,0.03400X0.01600*%
%ADD23R,0.00591X0.00787*%
%ADD24R,0.00197X0.00197*%
%ADD25R,0.01476X0.00197*%
%ADD26R,0.01181X0.00787*%
%ADD27R,0.00886X0.03543*%
%ADD28R,0.01969X0.00787*%
%ADD29R,0.00886X0.02165*%
%ADD30R,0.00394X0.00394*%
%ADD31R,0.00984X0.00984*%
%ADD32C,0.00300*%
%ADD33C,0.00197*%
%ADD34C,0.00787*%
%ADD35C,0.00984*%
%ADD36R,0.08661X0.00591*%
%ADD37R,0.12402X0.01969*%
D10*
X0113257Y0103306D02*
X0117357Y0103306D01*
X0117357Y0104406D01*
X0113257Y0104406D01*
X0113257Y0103306D01*
X0113257Y0105806D02*
X0117357Y0105806D01*
X0117357Y0107006D01*
X0113257Y0107006D01*
X0113257Y0105806D01*
X0117357Y0102806D02*
X0135157Y0102806D01*
X0135157Y0122806D01*
X0117357Y0122806D01*
X0117357Y0102806D01*
X0118857Y0102806D02*
X0133657Y0102806D01*
X0135157Y0103306D02*
X0139257Y0103306D01*
X0139257Y0104406D01*
X0135157Y0104406D01*
X0135157Y0103306D01*
X0135157Y0105806D02*
X0139257Y0105806D01*
X0139257Y0107006D01*
X0135157Y0107006D01*
X0135157Y0105806D01*
X0135157Y0108406D02*
X0139257Y0108406D01*
X0139257Y0109606D01*
X0135157Y0109606D01*
X0135157Y0108406D01*
X0135157Y0110906D02*
X0139257Y0110906D01*
X0139257Y0112106D01*
X0135157Y0112106D01*
X0135157Y0110906D01*
X0135157Y0113506D02*
X0139257Y0113506D01*
X0139257Y0114706D01*
X0135157Y0114706D01*
X0135157Y0113506D01*
X0135157Y0116006D02*
X0139257Y0116006D01*
X0139257Y0117206D01*
X0135157Y0117206D01*
X0135157Y0116006D01*
X0135157Y0118606D02*
X0139257Y0118606D01*
X0139257Y0119806D01*
X0135157Y0119806D01*
X0135157Y0118606D01*
X0135157Y0121206D02*
X0139257Y0121206D01*
X0139257Y0122306D01*
X0135157Y0122306D01*
X0135157Y0121206D01*
X0133657Y0122806D02*
X0118857Y0122806D01*
X0117357Y0122306D02*
X0113257Y0122306D01*
X0113257Y0121206D01*
X0117357Y0121206D01*
X0117357Y0122306D01*
X0117357Y0119806D02*
X0113257Y0119806D01*
X0113257Y0118606D01*
X0117357Y0118606D01*
X0117357Y0119806D01*
X0117357Y0117206D02*
X0113257Y0117206D01*
X0113257Y0116006D01*
X0117357Y0116006D01*
X0117357Y0117206D01*
X0117357Y0114706D02*
X0113257Y0114706D01*
X0113257Y0113506D01*
X0117357Y0113506D01*
X0117357Y0114706D01*
X0117357Y0112106D02*
X0113257Y0112106D01*
X0113257Y0110906D01*
X0117357Y0110906D01*
X0117357Y0112106D01*
X0117357Y0109606D02*
X0113257Y0109606D01*
X0113257Y0108406D01*
X0117357Y0108406D01*
X0117357Y0109606D01*
X0176926Y0071211D02*
X0176926Y0070144D01*
X0177994Y0070144D01*
X0177994Y0071211D01*
X0176926Y0071211D01*
X0256431Y0118905D02*
X0259832Y0118905D01*
X0259832Y0121708D02*
X0256431Y0121708D01*
X0266730Y0076382D02*
X0266730Y0072980D01*
X0269533Y0072980D02*
X0269533Y0076382D01*
X0274855Y0076382D02*
X0274855Y0072980D01*
X0277658Y0072980D02*
X0277658Y0076382D01*
X0283999Y0076382D02*
X0283999Y0072980D01*
X0286802Y0072980D02*
X0286802Y0076382D01*
X0298931Y0068583D02*
X0302332Y0068583D01*
X0302332Y0065780D02*
X0298931Y0065780D01*
D11*
X0223461Y0106226D02*
X0199052Y0106226D01*
X0199052Y0130636D01*
X0223461Y0130636D01*
X0223461Y0106226D01*
X0223461Y0107604D02*
X0223461Y0129258D01*
X0215194Y0130636D02*
X0207320Y0130636D01*
X0199052Y0129258D02*
X0199052Y0107604D01*
X0207320Y0106226D02*
X0215194Y0106226D01*
X0204367Y0118431D02*
X0204369Y0118600D01*
X0204375Y0118769D01*
X0204386Y0118938D01*
X0204400Y0119106D01*
X0204419Y0119274D01*
X0204442Y0119442D01*
X0204468Y0119609D01*
X0204499Y0119775D01*
X0204534Y0119941D01*
X0204573Y0120105D01*
X0204617Y0120269D01*
X0204664Y0120431D01*
X0204715Y0120592D01*
X0204770Y0120752D01*
X0204829Y0120911D01*
X0204891Y0121068D01*
X0204958Y0121223D01*
X0205029Y0121377D01*
X0205103Y0121529D01*
X0205181Y0121679D01*
X0205262Y0121827D01*
X0205347Y0121973D01*
X0205436Y0122117D01*
X0205528Y0122259D01*
X0205624Y0122398D01*
X0205723Y0122535D01*
X0205825Y0122670D01*
X0205931Y0122802D01*
X0206040Y0122931D01*
X0206152Y0123058D01*
X0206267Y0123182D01*
X0206385Y0123303D01*
X0206506Y0123421D01*
X0206630Y0123536D01*
X0206757Y0123648D01*
X0206886Y0123757D01*
X0207018Y0123863D01*
X0207153Y0123965D01*
X0207290Y0124064D01*
X0207429Y0124160D01*
X0207571Y0124252D01*
X0207715Y0124341D01*
X0207861Y0124426D01*
X0208009Y0124507D01*
X0208159Y0124585D01*
X0208311Y0124659D01*
X0208465Y0124730D01*
X0208620Y0124797D01*
X0208777Y0124859D01*
X0208936Y0124918D01*
X0209096Y0124973D01*
X0209257Y0125024D01*
X0209419Y0125071D01*
X0209583Y0125115D01*
X0209747Y0125154D01*
X0209913Y0125189D01*
X0210079Y0125220D01*
X0210246Y0125246D01*
X0210414Y0125269D01*
X0210582Y0125288D01*
X0210750Y0125302D01*
X0210919Y0125313D01*
X0211088Y0125319D01*
X0211257Y0125321D01*
X0211426Y0125319D01*
X0211595Y0125313D01*
X0211764Y0125302D01*
X0211932Y0125288D01*
X0212100Y0125269D01*
X0212268Y0125246D01*
X0212435Y0125220D01*
X0212601Y0125189D01*
X0212767Y0125154D01*
X0212931Y0125115D01*
X0213095Y0125071D01*
X0213257Y0125024D01*
X0213418Y0124973D01*
X0213578Y0124918D01*
X0213737Y0124859D01*
X0213894Y0124797D01*
X0214049Y0124730D01*
X0214203Y0124659D01*
X0214355Y0124585D01*
X0214505Y0124507D01*
X0214653Y0124426D01*
X0214799Y0124341D01*
X0214943Y0124252D01*
X0215085Y0124160D01*
X0215224Y0124064D01*
X0215361Y0123965D01*
X0215496Y0123863D01*
X0215628Y0123757D01*
X0215757Y0123648D01*
X0215884Y0123536D01*
X0216008Y0123421D01*
X0216129Y0123303D01*
X0216247Y0123182D01*
X0216362Y0123058D01*
X0216474Y0122931D01*
X0216583Y0122802D01*
X0216689Y0122670D01*
X0216791Y0122535D01*
X0216890Y0122398D01*
X0216986Y0122259D01*
X0217078Y0122117D01*
X0217167Y0121973D01*
X0217252Y0121827D01*
X0217333Y0121679D01*
X0217411Y0121529D01*
X0217485Y0121377D01*
X0217556Y0121223D01*
X0217623Y0121068D01*
X0217685Y0120911D01*
X0217744Y0120752D01*
X0217799Y0120592D01*
X0217850Y0120431D01*
X0217897Y0120269D01*
X0217941Y0120105D01*
X0217980Y0119941D01*
X0218015Y0119775D01*
X0218046Y0119609D01*
X0218072Y0119442D01*
X0218095Y0119274D01*
X0218114Y0119106D01*
X0218128Y0118938D01*
X0218139Y0118769D01*
X0218145Y0118600D01*
X0218147Y0118431D01*
X0218145Y0118262D01*
X0218139Y0118093D01*
X0218128Y0117924D01*
X0218114Y0117756D01*
X0218095Y0117588D01*
X0218072Y0117420D01*
X0218046Y0117253D01*
X0218015Y0117087D01*
X0217980Y0116921D01*
X0217941Y0116757D01*
X0217897Y0116593D01*
X0217850Y0116431D01*
X0217799Y0116270D01*
X0217744Y0116110D01*
X0217685Y0115951D01*
X0217623Y0115794D01*
X0217556Y0115639D01*
X0217485Y0115485D01*
X0217411Y0115333D01*
X0217333Y0115183D01*
X0217252Y0115035D01*
X0217167Y0114889D01*
X0217078Y0114745D01*
X0216986Y0114603D01*
X0216890Y0114464D01*
X0216791Y0114327D01*
X0216689Y0114192D01*
X0216583Y0114060D01*
X0216474Y0113931D01*
X0216362Y0113804D01*
X0216247Y0113680D01*
X0216129Y0113559D01*
X0216008Y0113441D01*
X0215884Y0113326D01*
X0215757Y0113214D01*
X0215628Y0113105D01*
X0215496Y0112999D01*
X0215361Y0112897D01*
X0215224Y0112798D01*
X0215085Y0112702D01*
X0214943Y0112610D01*
X0214799Y0112521D01*
X0214653Y0112436D01*
X0214505Y0112355D01*
X0214355Y0112277D01*
X0214203Y0112203D01*
X0214049Y0112132D01*
X0213894Y0112065D01*
X0213737Y0112003D01*
X0213578Y0111944D01*
X0213418Y0111889D01*
X0213257Y0111838D01*
X0213095Y0111791D01*
X0212931Y0111747D01*
X0212767Y0111708D01*
X0212601Y0111673D01*
X0212435Y0111642D01*
X0212268Y0111616D01*
X0212100Y0111593D01*
X0211932Y0111574D01*
X0211764Y0111560D01*
X0211595Y0111549D01*
X0211426Y0111543D01*
X0211257Y0111541D01*
X0211088Y0111543D01*
X0210919Y0111549D01*
X0210750Y0111560D01*
X0210582Y0111574D01*
X0210414Y0111593D01*
X0210246Y0111616D01*
X0210079Y0111642D01*
X0209913Y0111673D01*
X0209747Y0111708D01*
X0209583Y0111747D01*
X0209419Y0111791D01*
X0209257Y0111838D01*
X0209096Y0111889D01*
X0208936Y0111944D01*
X0208777Y0112003D01*
X0208620Y0112065D01*
X0208465Y0112132D01*
X0208311Y0112203D01*
X0208159Y0112277D01*
X0208009Y0112355D01*
X0207861Y0112436D01*
X0207715Y0112521D01*
X0207571Y0112610D01*
X0207429Y0112702D01*
X0207290Y0112798D01*
X0207153Y0112897D01*
X0207018Y0112999D01*
X0206886Y0113105D01*
X0206757Y0113214D01*
X0206630Y0113326D01*
X0206506Y0113441D01*
X0206385Y0113559D01*
X0206267Y0113680D01*
X0206152Y0113804D01*
X0206040Y0113931D01*
X0205931Y0114060D01*
X0205825Y0114192D01*
X0205723Y0114327D01*
X0205624Y0114464D01*
X0205528Y0114603D01*
X0205436Y0114745D01*
X0205347Y0114889D01*
X0205262Y0115035D01*
X0205181Y0115183D01*
X0205103Y0115333D01*
X0205029Y0115485D01*
X0204958Y0115639D01*
X0204891Y0115794D01*
X0204829Y0115951D01*
X0204770Y0116110D01*
X0204715Y0116270D01*
X0204664Y0116431D01*
X0204617Y0116593D01*
X0204573Y0116757D01*
X0204534Y0116921D01*
X0204499Y0117087D01*
X0204468Y0117253D01*
X0204442Y0117420D01*
X0204419Y0117588D01*
X0204400Y0117756D01*
X0204386Y0117924D01*
X0204375Y0118093D01*
X0204369Y0118262D01*
X0204367Y0118431D01*
X0204369Y0118600D01*
X0204375Y0118769D01*
X0204386Y0118938D01*
X0204400Y0119106D01*
X0204419Y0119274D01*
X0204442Y0119442D01*
X0204468Y0119609D01*
X0204499Y0119775D01*
X0204534Y0119941D01*
X0204573Y0120105D01*
X0204617Y0120269D01*
X0204664Y0120431D01*
X0204715Y0120592D01*
X0204770Y0120752D01*
X0204829Y0120911D01*
X0204891Y0121068D01*
X0204958Y0121223D01*
X0205029Y0121377D01*
X0205103Y0121529D01*
X0205181Y0121679D01*
X0205262Y0121827D01*
X0205347Y0121973D01*
X0205436Y0122117D01*
X0205528Y0122259D01*
X0205624Y0122398D01*
X0205723Y0122535D01*
X0205825Y0122670D01*
X0205931Y0122802D01*
X0206040Y0122931D01*
X0206152Y0123058D01*
X0206267Y0123182D01*
X0206385Y0123303D01*
X0206506Y0123421D01*
X0206630Y0123536D01*
X0206757Y0123648D01*
X0206886Y0123757D01*
X0207018Y0123863D01*
X0207153Y0123965D01*
X0207290Y0124064D01*
X0207429Y0124160D01*
X0207571Y0124252D01*
X0207715Y0124341D01*
X0207861Y0124426D01*
X0208009Y0124507D01*
X0208159Y0124585D01*
X0208311Y0124659D01*
X0208465Y0124730D01*
X0208620Y0124797D01*
X0208777Y0124859D01*
X0208936Y0124918D01*
X0209096Y0124973D01*
X0209257Y0125024D01*
X0209419Y0125071D01*
X0209583Y0125115D01*
X0209747Y0125154D01*
X0209913Y0125189D01*
X0210079Y0125220D01*
X0210246Y0125246D01*
X0210414Y0125269D01*
X0210582Y0125288D01*
X0210750Y0125302D01*
X0210919Y0125313D01*
X0211088Y0125319D01*
X0211257Y0125321D01*
X0211426Y0125319D01*
X0211595Y0125313D01*
X0211764Y0125302D01*
X0211932Y0125288D01*
X0212100Y0125269D01*
X0212268Y0125246D01*
X0212435Y0125220D01*
X0212601Y0125189D01*
X0212767Y0125154D01*
X0212931Y0125115D01*
X0213095Y0125071D01*
X0213257Y0125024D01*
X0213418Y0124973D01*
X0213578Y0124918D01*
X0213737Y0124859D01*
X0213894Y0124797D01*
X0214049Y0124730D01*
X0214203Y0124659D01*
X0214355Y0124585D01*
X0214505Y0124507D01*
X0214653Y0124426D01*
X0214799Y0124341D01*
X0214943Y0124252D01*
X0215085Y0124160D01*
X0215224Y0124064D01*
X0215361Y0123965D01*
X0215496Y0123863D01*
X0215628Y0123757D01*
X0215757Y0123648D01*
X0215884Y0123536D01*
X0216008Y0123421D01*
X0216129Y0123303D01*
X0216247Y0123182D01*
X0216362Y0123058D01*
X0216474Y0122931D01*
X0216583Y0122802D01*
X0216689Y0122670D01*
X0216791Y0122535D01*
X0216890Y0122398D01*
X0216986Y0122259D01*
X0217078Y0122117D01*
X0217167Y0121973D01*
X0217252Y0121827D01*
X0217333Y0121679D01*
X0217411Y0121529D01*
X0217485Y0121377D01*
X0217556Y0121223D01*
X0217623Y0121068D01*
X0217685Y0120911D01*
X0217744Y0120752D01*
X0217799Y0120592D01*
X0217850Y0120431D01*
X0217897Y0120269D01*
X0217941Y0120105D01*
X0217980Y0119941D01*
X0218015Y0119775D01*
X0218046Y0119609D01*
X0218072Y0119442D01*
X0218095Y0119274D01*
X0218114Y0119106D01*
X0218128Y0118938D01*
X0218139Y0118769D01*
X0218145Y0118600D01*
X0218147Y0118431D01*
X0218145Y0118262D01*
X0218139Y0118093D01*
X0218128Y0117924D01*
X0218114Y0117756D01*
X0218095Y0117588D01*
X0218072Y0117420D01*
X0218046Y0117253D01*
X0218015Y0117087D01*
X0217980Y0116921D01*
X0217941Y0116757D01*
X0217897Y0116593D01*
X0217850Y0116431D01*
X0217799Y0116270D01*
X0217744Y0116110D01*
X0217685Y0115951D01*
X0217623Y0115794D01*
X0217556Y0115639D01*
X0217485Y0115485D01*
X0217411Y0115333D01*
X0217333Y0115183D01*
X0217252Y0115035D01*
X0217167Y0114889D01*
X0217078Y0114745D01*
X0216986Y0114603D01*
X0216890Y0114464D01*
X0216791Y0114327D01*
X0216689Y0114192D01*
X0216583Y0114060D01*
X0216474Y0113931D01*
X0216362Y0113804D01*
X0216247Y0113680D01*
X0216129Y0113559D01*
X0216008Y0113441D01*
X0215884Y0113326D01*
X0215757Y0113214D01*
X0215628Y0113105D01*
X0215496Y0112999D01*
X0215361Y0112897D01*
X0215224Y0112798D01*
X0215085Y0112702D01*
X0214943Y0112610D01*
X0214799Y0112521D01*
X0214653Y0112436D01*
X0214505Y0112355D01*
X0214355Y0112277D01*
X0214203Y0112203D01*
X0214049Y0112132D01*
X0213894Y0112065D01*
X0213737Y0112003D01*
X0213578Y0111944D01*
X0213418Y0111889D01*
X0213257Y0111838D01*
X0213095Y0111791D01*
X0212931Y0111747D01*
X0212767Y0111708D01*
X0212601Y0111673D01*
X0212435Y0111642D01*
X0212268Y0111616D01*
X0212100Y0111593D01*
X0211932Y0111574D01*
X0211764Y0111560D01*
X0211595Y0111549D01*
X0211426Y0111543D01*
X0211257Y0111541D01*
X0211088Y0111543D01*
X0210919Y0111549D01*
X0210750Y0111560D01*
X0210582Y0111574D01*
X0210414Y0111593D01*
X0210246Y0111616D01*
X0210079Y0111642D01*
X0209913Y0111673D01*
X0209747Y0111708D01*
X0209583Y0111747D01*
X0209419Y0111791D01*
X0209257Y0111838D01*
X0209096Y0111889D01*
X0208936Y0111944D01*
X0208777Y0112003D01*
X0208620Y0112065D01*
X0208465Y0112132D01*
X0208311Y0112203D01*
X0208159Y0112277D01*
X0208009Y0112355D01*
X0207861Y0112436D01*
X0207715Y0112521D01*
X0207571Y0112610D01*
X0207429Y0112702D01*
X0207290Y0112798D01*
X0207153Y0112897D01*
X0207018Y0112999D01*
X0206886Y0113105D01*
X0206757Y0113214D01*
X0206630Y0113326D01*
X0206506Y0113441D01*
X0206385Y0113559D01*
X0206267Y0113680D01*
X0206152Y0113804D01*
X0206040Y0113931D01*
X0205931Y0114060D01*
X0205825Y0114192D01*
X0205723Y0114327D01*
X0205624Y0114464D01*
X0205528Y0114603D01*
X0205436Y0114745D01*
X0205347Y0114889D01*
X0205262Y0115035D01*
X0205181Y0115183D01*
X0205103Y0115333D01*
X0205029Y0115485D01*
X0204958Y0115639D01*
X0204891Y0115794D01*
X0204829Y0115951D01*
X0204770Y0116110D01*
X0204715Y0116270D01*
X0204664Y0116431D01*
X0204617Y0116593D01*
X0204573Y0116757D01*
X0204534Y0116921D01*
X0204499Y0117087D01*
X0204468Y0117253D01*
X0204442Y0117420D01*
X0204419Y0117588D01*
X0204400Y0117756D01*
X0204386Y0117924D01*
X0204375Y0118093D01*
X0204369Y0118262D01*
X0204367Y0118431D01*
X0070985Y0118050D02*
X0070985Y0115949D01*
X0066781Y0115949D01*
X0066781Y0118050D01*
X0067482Y0118751D01*
X0068182Y0118751D01*
X0068883Y0118050D01*
X0068883Y0115949D01*
X0068883Y0118050D02*
X0069583Y0118751D01*
X0070284Y0118751D01*
X0070985Y0118050D01*
X0070284Y0114147D02*
X0067482Y0114147D01*
X0066781Y0113447D01*
X0066781Y0112045D01*
X0067482Y0111345D01*
X0070284Y0111345D01*
X0070985Y0112045D01*
X0070985Y0113447D01*
X0070284Y0114147D01*
X0070985Y0109543D02*
X0069583Y0108142D01*
X0069583Y0108843D02*
X0069583Y0106741D01*
X0070985Y0106741D02*
X0066781Y0106741D01*
X0066781Y0108843D01*
X0067482Y0109543D01*
X0068883Y0109543D01*
X0069583Y0108843D01*
X0069583Y0104939D02*
X0070284Y0104939D01*
X0070985Y0104239D01*
X0070985Y0102137D01*
X0066781Y0102137D01*
X0066781Y0104239D01*
X0067482Y0104939D01*
X0068182Y0104939D01*
X0068883Y0104239D01*
X0068883Y0102137D01*
X0068883Y0100335D02*
X0068883Y0097533D01*
X0068182Y0097533D02*
X0070985Y0097533D01*
X0070985Y0095731D02*
X0070985Y0092929D01*
X0066781Y0092929D01*
X0063485Y0093113D02*
X0063485Y0091711D01*
X0062784Y0091011D01*
X0061383Y0091711D02*
X0061383Y0093113D01*
X0062083Y0093813D01*
X0062784Y0093813D01*
X0063485Y0093113D01*
X0061383Y0091711D02*
X0060682Y0091011D01*
X0059982Y0091011D01*
X0059281Y0091711D01*
X0059281Y0093113D01*
X0059982Y0093813D01*
X0059281Y0095615D02*
X0059281Y0098417D01*
X0059281Y0097016D02*
X0063485Y0097016D01*
X0063485Y0100219D02*
X0059281Y0100219D01*
X0059281Y0103021D01*
X0059281Y0104823D02*
X0059281Y0106924D01*
X0059982Y0107625D01*
X0061383Y0107625D01*
X0062083Y0106924D01*
X0062083Y0104823D01*
X0062083Y0106224D02*
X0063485Y0107625D01*
X0063485Y0104823D02*
X0059281Y0104823D01*
X0061383Y0101620D02*
X0061383Y0100219D01*
X0063485Y0100219D02*
X0063485Y0103021D01*
X0066781Y0098934D02*
X0068182Y0100335D01*
X0070985Y0100335D01*
X0068182Y0097533D02*
X0066781Y0098934D01*
X0068883Y0104239D02*
X0069583Y0104939D01*
X0063485Y0114030D02*
X0059281Y0114030D01*
X0059281Y0116132D01*
X0059982Y0116833D01*
X0060682Y0116833D01*
X0061383Y0116132D01*
X0061383Y0114030D01*
X0063485Y0114030D02*
X0063485Y0116132D01*
X0062784Y0116833D01*
X0062083Y0116833D01*
X0061383Y0116132D01*
X0059982Y0118634D02*
X0062784Y0118634D01*
X0063485Y0119335D01*
X0063485Y0120736D01*
X0062784Y0121437D01*
X0059982Y0121437D01*
X0059281Y0120736D01*
X0059281Y0119335D01*
X0059982Y0118634D01*
X0060682Y0123238D02*
X0059281Y0124639D01*
X0060682Y0126041D01*
X0063485Y0126041D01*
X0063485Y0127842D02*
X0059281Y0127842D01*
X0059281Y0129944D01*
X0059982Y0130645D01*
X0061383Y0130645D01*
X0062083Y0129944D01*
X0062083Y0127842D01*
X0062083Y0129243D02*
X0063485Y0130645D01*
X0063485Y0132446D02*
X0059281Y0132446D01*
X0059281Y0134548D01*
X0059982Y0135249D01*
X0062784Y0135249D01*
X0063485Y0134548D01*
X0063485Y0132446D01*
X0066781Y0132563D02*
X0070284Y0132563D01*
X0070985Y0131862D01*
X0070985Y0130461D01*
X0070284Y0129760D01*
X0066781Y0129760D01*
X0067482Y0127959D02*
X0068883Y0127959D01*
X0069583Y0127258D01*
X0069583Y0125157D01*
X0070985Y0125157D02*
X0066781Y0125157D01*
X0066781Y0127258D01*
X0067482Y0127959D01*
X0061383Y0126041D02*
X0061383Y0123238D01*
X0060682Y0123238D02*
X0063485Y0123238D01*
X0067482Y0134364D02*
X0070284Y0134364D01*
X0070985Y0135065D01*
X0070985Y0136466D01*
X0070284Y0137167D01*
X0068883Y0138968D02*
X0068883Y0141771D01*
X0069583Y0143572D02*
X0069583Y0145674D01*
X0068883Y0146375D01*
X0067482Y0146375D01*
X0066781Y0145674D01*
X0066781Y0143572D01*
X0070985Y0143572D01*
X0069583Y0144973D02*
X0070985Y0146375D01*
X0070985Y0148176D02*
X0070985Y0149577D01*
X0070985Y0148877D02*
X0066781Y0148877D01*
X0066781Y0149577D02*
X0066781Y0148176D01*
X0067482Y0151245D02*
X0070284Y0151245D01*
X0070985Y0151946D01*
X0070985Y0153347D01*
X0070284Y0154048D01*
X0067482Y0154048D01*
X0066781Y0153347D01*
X0066781Y0151946D01*
X0067482Y0151245D01*
X0067482Y0137167D02*
X0066781Y0136466D01*
X0066781Y0135065D01*
X0067482Y0134364D01*
X0063485Y0089209D02*
X0060682Y0089209D01*
X0059281Y0087808D01*
X0060682Y0086407D01*
X0063485Y0086407D01*
X0063485Y0084605D02*
X0059281Y0084605D01*
X0060682Y0083204D01*
X0059281Y0081803D01*
X0063485Y0081803D01*
X0061383Y0086407D02*
X0061383Y0089209D01*
X0068883Y0086524D02*
X0068883Y0083721D01*
X0067482Y0077316D02*
X0070284Y0077316D01*
X0070985Y0076615D01*
X0070985Y0075214D01*
X0070284Y0074513D01*
X0067482Y0077316D01*
X0066781Y0076615D01*
X0066781Y0075214D01*
X0067482Y0074513D01*
X0070284Y0074513D01*
X0070284Y0072912D02*
X0070985Y0072912D01*
X0070985Y0072211D01*
X0070284Y0072211D01*
X0070284Y0072912D01*
X0070284Y0070410D02*
X0070985Y0069709D01*
X0070985Y0068308D01*
X0070284Y0067607D01*
X0069583Y0065806D02*
X0066781Y0065806D01*
X0067482Y0067607D02*
X0066781Y0068308D01*
X0066781Y0069709D01*
X0067482Y0070410D01*
X0068182Y0070410D01*
X0068883Y0069709D01*
X0069583Y0070410D01*
X0070284Y0070410D01*
X0068883Y0069709D02*
X0068883Y0069009D01*
X0069583Y0065806D02*
X0070985Y0064405D01*
X0069583Y0063004D01*
X0066781Y0063004D01*
D12*
X0089181Y0063443D02*
X0089181Y0064177D01*
X0089548Y0064544D01*
X0089915Y0064544D01*
X0090282Y0064177D01*
X0090649Y0064544D01*
X0091016Y0064544D01*
X0091383Y0064177D01*
X0091383Y0063443D01*
X0091016Y0063076D01*
X0090282Y0063810D02*
X0090282Y0064177D01*
X0089548Y0063076D02*
X0089181Y0063443D01*
X0091750Y0062334D02*
X0091750Y0060866D01*
X0091383Y0060127D02*
X0091383Y0059393D01*
X0091383Y0059760D02*
X0089181Y0059760D01*
X0089181Y0059393D02*
X0089181Y0060127D01*
X0089548Y0058651D02*
X0090282Y0058651D01*
X0090649Y0058284D01*
X0090649Y0057183D01*
X0091383Y0057183D02*
X0089181Y0057183D01*
X0089181Y0058284D01*
X0089548Y0058651D01*
X0089548Y0056441D02*
X0089181Y0056074D01*
X0089181Y0055340D01*
X0089548Y0054973D01*
X0089915Y0054973D01*
X0090282Y0055340D01*
X0090282Y0056074D01*
X0090649Y0056441D01*
X0091016Y0056441D01*
X0091383Y0056074D01*
X0091383Y0055340D01*
X0091016Y0054973D01*
X0111228Y0055340D02*
X0111595Y0054973D01*
X0111962Y0054973D01*
X0112329Y0055340D01*
X0112329Y0056074D01*
X0112696Y0056441D01*
X0113063Y0056441D01*
X0113430Y0056074D01*
X0113430Y0055340D01*
X0113063Y0054973D01*
X0111228Y0055340D02*
X0111228Y0056074D01*
X0111595Y0056441D01*
X0111228Y0057183D02*
X0111228Y0058284D01*
X0111595Y0058651D01*
X0112329Y0058651D01*
X0112696Y0058284D01*
X0112696Y0057183D01*
X0113430Y0057183D02*
X0111228Y0057183D01*
X0111228Y0059393D02*
X0111228Y0060127D01*
X0111228Y0059760D02*
X0113430Y0059760D01*
X0113430Y0059393D02*
X0113430Y0060127D01*
X0113797Y0060866D02*
X0113797Y0062334D01*
X0113430Y0063076D02*
X0111962Y0064544D01*
X0111595Y0064544D01*
X0111228Y0064177D01*
X0111228Y0063443D01*
X0111595Y0063076D01*
X0113430Y0063076D02*
X0113430Y0064544D01*
X0132882Y0063810D02*
X0135084Y0063810D01*
X0135084Y0063076D02*
X0135084Y0064544D01*
X0133616Y0063076D02*
X0132882Y0063810D01*
X0135451Y0062334D02*
X0135451Y0060866D01*
X0135084Y0060127D02*
X0135084Y0059393D01*
X0135084Y0059760D02*
X0132882Y0059760D01*
X0132882Y0059393D02*
X0132882Y0060127D01*
X0133249Y0058651D02*
X0132882Y0058284D01*
X0132882Y0057183D01*
X0135084Y0057183D01*
X0134350Y0057183D02*
X0134350Y0058284D01*
X0133983Y0058651D01*
X0133249Y0058651D01*
X0133249Y0056441D02*
X0132882Y0056074D01*
X0132882Y0055340D01*
X0133249Y0054973D01*
X0133616Y0054973D01*
X0133983Y0055340D01*
X0133983Y0056074D01*
X0134350Y0056441D01*
X0134717Y0056441D01*
X0135084Y0056074D01*
X0135084Y0055340D01*
X0134717Y0054973D01*
X0154535Y0055340D02*
X0154902Y0054973D01*
X0155269Y0054973D01*
X0155636Y0055340D01*
X0155636Y0056074D01*
X0156003Y0056441D01*
X0156370Y0056441D01*
X0156737Y0056074D01*
X0156737Y0055340D01*
X0156370Y0054973D01*
X0154535Y0055340D02*
X0154535Y0056074D01*
X0154902Y0056441D01*
X0154535Y0057183D02*
X0154535Y0058284D01*
X0154902Y0058651D01*
X0155636Y0058651D01*
X0156003Y0058284D01*
X0156003Y0057183D01*
X0156737Y0057183D02*
X0154535Y0057183D01*
X0154535Y0059393D02*
X0154535Y0060127D01*
X0154535Y0059760D02*
X0156737Y0059760D01*
X0156737Y0059393D02*
X0156737Y0060127D01*
X0157104Y0060866D02*
X0157104Y0062334D01*
X0156370Y0063076D02*
X0154902Y0064544D01*
X0156370Y0064544D01*
X0156737Y0064177D01*
X0156737Y0063443D01*
X0156370Y0063076D01*
X0154902Y0063076D01*
X0154535Y0063443D01*
X0154535Y0064177D01*
X0154902Y0064544D01*
X0184700Y0060129D02*
X0186257Y0058573D01*
X0186257Y0059610D01*
X0187295Y0059610D01*
X0185738Y0061167D01*
X0186522Y0061433D02*
X0186781Y0061173D01*
X0187300Y0061173D01*
X0187819Y0061692D01*
X0188338Y0061692D01*
X0188598Y0061433D01*
X0188598Y0060914D01*
X0188079Y0060395D01*
X0187560Y0060395D01*
X0186522Y0061433D02*
X0186522Y0061952D01*
X0187041Y0062471D01*
X0187560Y0062471D01*
X0189641Y0061438D02*
X0190679Y0062476D01*
X0190944Y0063260D02*
X0191982Y0064298D01*
X0192507Y0064823D02*
X0193545Y0065861D01*
X0194070Y0066386D02*
X0194848Y0067164D01*
X0194848Y0067683D01*
X0193810Y0068721D01*
X0193291Y0068721D01*
X0192513Y0067943D01*
X0194070Y0066386D01*
X0194644Y0065074D02*
X0195682Y0064036D01*
X0195682Y0062998D01*
X0194644Y0062998D01*
X0193606Y0064036D01*
X0193341Y0063252D02*
X0193600Y0062992D01*
X0193600Y0062473D01*
X0194119Y0062473D01*
X0194379Y0062214D01*
X0194379Y0061695D01*
X0193860Y0061176D01*
X0193341Y0061176D01*
X0192819Y0060654D02*
X0193079Y0060395D01*
X0192819Y0060135D01*
X0192560Y0060395D01*
X0192819Y0060654D01*
X0192035Y0059870D02*
X0192035Y0059351D01*
X0191516Y0058832D01*
X0190997Y0058832D01*
X0190997Y0059870D02*
X0191257Y0060129D01*
X0191776Y0060129D01*
X0192035Y0059870D01*
X0191257Y0060129D02*
X0191257Y0060648D01*
X0190997Y0060908D01*
X0190478Y0060908D01*
X0189959Y0060389D01*
X0189959Y0059870D01*
X0192303Y0062214D02*
X0192303Y0062733D01*
X0192822Y0063252D01*
X0193341Y0063252D01*
X0193600Y0062473D02*
X0193341Y0062214D01*
X0194959Y0060389D02*
X0194959Y0059870D01*
X0195997Y0058832D01*
X0196516Y0058832D01*
X0197035Y0059351D01*
X0197035Y0059870D01*
X0196516Y0060389D01*
X0195997Y0059870D01*
X0195997Y0060908D02*
X0195478Y0060908D01*
X0194959Y0060389D01*
X0196262Y0061692D02*
X0197819Y0060135D01*
X0198857Y0061173D02*
X0197300Y0062730D01*
X0197825Y0063255D02*
X0198603Y0064033D01*
X0199122Y0064033D01*
X0200160Y0062995D01*
X0200160Y0062476D01*
X0199382Y0061698D01*
X0197825Y0063255D01*
X0196262Y0061692D02*
X0198857Y0061173D01*
X0192507Y0064823D02*
X0190950Y0066380D01*
X0191988Y0067418D01*
X0192248Y0066120D02*
X0191729Y0065601D01*
X0189387Y0064817D02*
X0190944Y0063260D01*
X0214334Y0060389D02*
X0214853Y0060908D01*
X0215372Y0060908D01*
X0215632Y0060648D01*
X0215632Y0060129D01*
X0216151Y0060129D01*
X0216410Y0059870D01*
X0216410Y0059351D01*
X0215891Y0058832D01*
X0215372Y0058832D01*
X0215372Y0059870D02*
X0215632Y0060129D01*
X0214334Y0059870D02*
X0214334Y0060389D01*
X0216935Y0060395D02*
X0217194Y0060654D01*
X0217454Y0060395D01*
X0217194Y0060135D01*
X0216935Y0060395D01*
X0217716Y0061176D02*
X0218235Y0061176D01*
X0218754Y0061695D01*
X0218754Y0062214D01*
X0218494Y0062473D01*
X0217975Y0062473D01*
X0217716Y0062214D01*
X0217975Y0062473D02*
X0217975Y0062992D01*
X0217716Y0063252D01*
X0217197Y0063252D01*
X0216678Y0062733D01*
X0216678Y0062214D01*
X0217981Y0064036D02*
X0219019Y0062998D01*
X0220057Y0062998D01*
X0220057Y0064036D01*
X0219019Y0065074D01*
X0221938Y0062993D02*
X0222457Y0063512D01*
X0222976Y0063512D01*
X0223236Y0063253D01*
X0223236Y0062734D01*
X0223755Y0062734D01*
X0224014Y0062474D01*
X0224014Y0061955D01*
X0223495Y0061436D01*
X0222976Y0061436D01*
X0222452Y0060912D02*
X0221414Y0061950D01*
X0220895Y0061950D01*
X0220376Y0061431D01*
X0220376Y0060912D01*
X0221414Y0059874D01*
X0221933Y0059874D01*
X0222452Y0060393D01*
X0222452Y0060912D01*
X0221938Y0062474D02*
X0221938Y0062993D01*
X0222976Y0062474D02*
X0223236Y0062734D01*
X0223501Y0064037D02*
X0223501Y0064556D01*
X0224020Y0065075D01*
X0224539Y0065075D01*
X0224799Y0064815D01*
X0224799Y0062739D01*
X0225836Y0063777D01*
X0226361Y0064302D02*
X0225842Y0066897D01*
X0226367Y0067422D02*
X0227405Y0068460D01*
X0226886Y0067941D02*
X0228443Y0066384D01*
X0229280Y0065334D02*
X0229799Y0062739D01*
X0229014Y0062474D02*
X0229014Y0061955D01*
X0228495Y0061436D01*
X0227976Y0061436D01*
X0227457Y0061955D02*
X0227717Y0062734D01*
X0227976Y0062993D01*
X0228495Y0062993D01*
X0229014Y0062474D01*
X0227457Y0061955D02*
X0226679Y0062734D01*
X0227717Y0063772D01*
X0226414Y0061950D02*
X0226673Y0061690D01*
X0226673Y0061171D01*
X0227192Y0061171D01*
X0227452Y0060912D01*
X0227452Y0060393D01*
X0226933Y0059874D01*
X0226414Y0059874D01*
X0226151Y0059091D02*
X0225632Y0058573D01*
X0225891Y0058832D02*
X0224334Y0060389D01*
X0224075Y0060129D02*
X0224594Y0060648D01*
X0225376Y0060912D02*
X0225376Y0061431D01*
X0225895Y0061950D01*
X0226414Y0061950D01*
X0226673Y0061171D02*
X0226414Y0060912D01*
X0229334Y0060389D02*
X0229334Y0059870D01*
X0230372Y0058832D01*
X0230891Y0058832D01*
X0231410Y0059351D01*
X0231410Y0059870D01*
X0230891Y0060389D01*
X0230372Y0059870D01*
X0230372Y0060908D02*
X0229853Y0060908D01*
X0229334Y0060389D01*
X0230637Y0061692D02*
X0233232Y0061173D01*
X0231675Y0062730D01*
X0232200Y0063255D02*
X0232978Y0064033D01*
X0233497Y0064033D01*
X0234535Y0062995D01*
X0234535Y0062476D01*
X0233757Y0061698D01*
X0232200Y0063255D01*
X0231361Y0064302D02*
X0229804Y0065859D01*
X0230583Y0066638D01*
X0231102Y0066638D01*
X0231621Y0066119D01*
X0231621Y0065600D01*
X0230842Y0064821D01*
X0231361Y0065340D02*
X0232399Y0065340D01*
X0232924Y0065865D02*
X0232405Y0068460D01*
X0233448Y0068465D02*
X0233448Y0069503D01*
X0235005Y0067946D01*
X0234486Y0067427D02*
X0235524Y0068465D01*
X0233962Y0066903D02*
X0231367Y0067422D01*
X0230524Y0068465D02*
X0227929Y0068984D01*
X0228967Y0070022D02*
X0229486Y0067427D01*
X0231049Y0068990D02*
X0232087Y0070028D01*
X0231568Y0069509D02*
X0230011Y0071066D01*
X0230011Y0070028D01*
X0230637Y0061692D02*
X0232194Y0060135D01*
X0221151Y0059091D02*
X0220632Y0058573D01*
X0220891Y0058832D02*
X0219334Y0060389D01*
X0219075Y0060129D02*
X0219594Y0060648D01*
X0248709Y0060389D02*
X0249228Y0060908D01*
X0249747Y0060908D01*
X0250007Y0060648D01*
X0250007Y0060129D01*
X0250526Y0060129D01*
X0250785Y0059870D01*
X0250785Y0059351D01*
X0250266Y0058832D01*
X0249747Y0058832D01*
X0249747Y0059870D02*
X0250007Y0060129D01*
X0248709Y0059870D02*
X0248709Y0060389D01*
X0251310Y0060395D02*
X0251569Y0060654D01*
X0251829Y0060395D01*
X0251569Y0060135D01*
X0251310Y0060395D01*
X0252091Y0061176D02*
X0252610Y0061176D01*
X0253129Y0061695D01*
X0253129Y0062214D01*
X0252869Y0062473D01*
X0252350Y0062473D01*
X0252091Y0062214D01*
X0252350Y0062473D02*
X0252350Y0062992D01*
X0252091Y0063252D01*
X0251572Y0063252D01*
X0251053Y0062733D01*
X0251053Y0062214D01*
X0252356Y0064036D02*
X0253394Y0062998D01*
X0254432Y0062998D01*
X0254432Y0064036D01*
X0253394Y0065074D01*
X0256050Y0062730D02*
X0257607Y0061173D01*
X0256569Y0061173D01*
X0256569Y0060135D01*
X0255012Y0061692D01*
X0254747Y0060908D02*
X0254228Y0060908D01*
X0253709Y0060389D01*
X0253709Y0059870D01*
X0253969Y0059610D01*
X0254488Y0059610D01*
X0255007Y0060129D01*
X0255526Y0060129D01*
X0255785Y0059870D01*
X0255785Y0059351D01*
X0255266Y0058832D01*
X0254747Y0058832D01*
X0258450Y0060129D02*
X0258969Y0060648D01*
X0258709Y0060389D02*
X0260266Y0058832D01*
X0260007Y0058573D02*
X0260526Y0059091D01*
X0260789Y0059874D02*
X0261308Y0059874D01*
X0261827Y0060393D01*
X0261827Y0060912D01*
X0260789Y0061950D01*
X0260270Y0061950D01*
X0259751Y0061431D01*
X0259751Y0060912D01*
X0260789Y0059874D01*
X0262351Y0061436D02*
X0262870Y0061436D01*
X0263389Y0061955D01*
X0263389Y0062474D01*
X0263130Y0062734D01*
X0262611Y0062734D01*
X0262351Y0062474D01*
X0262611Y0062734D02*
X0262611Y0063253D01*
X0262351Y0063512D01*
X0261832Y0063512D01*
X0261313Y0062993D01*
X0261313Y0062474D01*
X0262876Y0064037D02*
X0262876Y0064556D01*
X0263395Y0065075D01*
X0263914Y0065075D01*
X0264174Y0064815D01*
X0264174Y0064296D01*
X0264693Y0064296D01*
X0264952Y0064037D01*
X0264952Y0063518D01*
X0264433Y0062999D01*
X0263914Y0062999D01*
X0263914Y0064037D02*
X0264174Y0064296D01*
X0266313Y0062993D02*
X0266313Y0062474D01*
X0266313Y0062993D02*
X0266832Y0063512D01*
X0267351Y0063512D01*
X0267611Y0063253D01*
X0267611Y0061177D01*
X0268649Y0062215D01*
X0269751Y0061431D02*
X0270270Y0061950D01*
X0270789Y0061950D01*
X0271048Y0061690D01*
X0271048Y0061171D01*
X0271567Y0061171D01*
X0271827Y0060912D01*
X0271827Y0060393D01*
X0271308Y0059874D01*
X0270789Y0059874D01*
X0270526Y0059091D02*
X0270007Y0058573D01*
X0270266Y0058832D02*
X0268709Y0060389D01*
X0268450Y0060129D02*
X0268969Y0060648D01*
X0269751Y0060912D02*
X0269751Y0061431D01*
X0270789Y0060912D02*
X0271048Y0061171D01*
X0271832Y0061955D02*
X0272870Y0062993D01*
X0271832Y0063512D02*
X0271832Y0061955D01*
X0273389Y0061955D02*
X0271832Y0063512D01*
X0274228Y0060908D02*
X0273709Y0060389D01*
X0273709Y0059870D01*
X0274747Y0058832D01*
X0275266Y0058832D01*
X0275785Y0059351D01*
X0275785Y0059870D01*
X0275266Y0060389D01*
X0274747Y0059870D01*
X0274747Y0060908D02*
X0274228Y0060908D01*
X0275012Y0061692D02*
X0276569Y0060135D01*
X0277607Y0061173D02*
X0276050Y0062730D01*
X0276575Y0063255D02*
X0277353Y0064033D01*
X0277872Y0064033D01*
X0278910Y0062995D01*
X0278910Y0062476D01*
X0278132Y0061698D01*
X0276575Y0063255D01*
X0275012Y0061692D02*
X0277607Y0061173D01*
X0266827Y0060912D02*
X0265789Y0061950D01*
X0265270Y0061950D01*
X0264751Y0061431D01*
X0264751Y0060912D01*
X0265789Y0059874D01*
X0266308Y0059874D01*
X0266827Y0060393D01*
X0266827Y0060912D01*
X0265526Y0059091D02*
X0265007Y0058573D01*
X0265266Y0058832D02*
X0263709Y0060389D01*
X0263450Y0060129D02*
X0263969Y0060648D01*
X0258910Y0062476D02*
X0258391Y0061957D01*
X0257872Y0061957D01*
X0257872Y0064033D01*
X0258910Y0062995D01*
X0258910Y0062476D01*
X0257872Y0061957D02*
X0256834Y0062995D01*
X0256834Y0063514D01*
X0257353Y0064033D01*
X0257872Y0064033D01*
X0266980Y0081276D02*
X0266980Y0082377D01*
X0267347Y0082744D01*
X0268081Y0082744D01*
X0268448Y0082377D01*
X0268448Y0081276D01*
X0269182Y0081276D02*
X0266980Y0081276D01*
X0268448Y0082010D02*
X0269182Y0082744D01*
X0269182Y0083486D02*
X0267714Y0084954D01*
X0267347Y0084954D01*
X0266980Y0084587D01*
X0266980Y0083853D01*
X0267347Y0083486D01*
X0269182Y0083486D02*
X0269182Y0084954D01*
X0269182Y0085696D02*
X0267714Y0087164D01*
X0267347Y0087164D01*
X0266980Y0086797D01*
X0266980Y0086063D01*
X0267347Y0085696D01*
X0269182Y0085696D02*
X0269182Y0087164D01*
X0274480Y0086891D02*
X0275581Y0085790D01*
X0275581Y0087258D01*
X0276682Y0086891D02*
X0274480Y0086891D01*
X0274480Y0084314D02*
X0276682Y0084314D01*
X0276682Y0083580D02*
X0276682Y0085048D01*
X0275214Y0083580D02*
X0274480Y0084314D01*
X0274847Y0082838D02*
X0275581Y0082838D01*
X0275948Y0082471D01*
X0275948Y0081370D01*
X0276682Y0081370D02*
X0274480Y0081370D01*
X0274480Y0082471D01*
X0274847Y0082838D01*
X0275948Y0082104D02*
X0276682Y0082838D01*
X0284411Y0082471D02*
X0284778Y0082838D01*
X0285512Y0082838D01*
X0285879Y0082471D01*
X0285879Y0081370D01*
X0286613Y0081370D02*
X0284411Y0081370D01*
X0284411Y0082471D01*
X0285145Y0083580D02*
X0284411Y0084314D01*
X0286613Y0084314D01*
X0286613Y0083580D02*
X0286613Y0085048D01*
X0286246Y0085790D02*
X0286613Y0086157D01*
X0286613Y0086891D01*
X0286246Y0087258D01*
X0284778Y0087258D01*
X0284411Y0086891D01*
X0284411Y0086157D01*
X0284778Y0085790D01*
X0285145Y0085790D01*
X0285512Y0086157D01*
X0285512Y0087258D01*
X0286613Y0082838D02*
X0285879Y0082104D01*
X0290774Y0076752D02*
X0290407Y0076385D01*
X0290407Y0074917D01*
X0290774Y0074550D01*
X0291508Y0074550D01*
X0291875Y0074917D01*
X0292617Y0074917D02*
X0292984Y0074550D01*
X0293718Y0074550D01*
X0294085Y0074917D01*
X0294085Y0076385D01*
X0293718Y0076752D01*
X0292984Y0076752D01*
X0292617Y0076385D01*
X0292617Y0076018D01*
X0292984Y0075651D01*
X0294085Y0075651D01*
X0291875Y0076385D02*
X0291508Y0076752D01*
X0290774Y0076752D01*
X0291082Y0068627D02*
X0291082Y0066425D01*
X0290348Y0066425D02*
X0291816Y0066425D01*
X0292558Y0066792D02*
X0292925Y0066425D01*
X0293659Y0066425D01*
X0294026Y0066792D01*
X0294026Y0067526D01*
X0293659Y0067893D01*
X0293292Y0067893D01*
X0292558Y0067526D01*
X0292558Y0068627D01*
X0294026Y0068627D01*
X0291082Y0068627D02*
X0290348Y0067893D01*
X0289606Y0068260D02*
X0289606Y0067526D01*
X0289239Y0067159D01*
X0288138Y0067159D01*
X0288872Y0067159D02*
X0289606Y0066425D01*
X0288138Y0066425D02*
X0288138Y0068627D01*
X0289239Y0068627D01*
X0289606Y0068260D01*
X0289233Y0050088D02*
X0290701Y0048620D01*
X0291068Y0048987D01*
X0291068Y0049721D01*
X0290701Y0050088D01*
X0289233Y0050088D01*
X0288866Y0049721D01*
X0288866Y0048987D01*
X0289233Y0048620D01*
X0290701Y0048620D01*
X0291068Y0047878D02*
X0291068Y0046410D01*
X0291068Y0047144D02*
X0288866Y0047144D01*
X0289600Y0046410D01*
X0289233Y0045668D02*
X0288866Y0045301D01*
X0288866Y0044567D01*
X0289233Y0044200D01*
X0290701Y0044200D01*
X0291068Y0044567D01*
X0291068Y0045301D01*
X0290701Y0045668D01*
X0255138Y0099669D02*
X0254404Y0099669D01*
X0254037Y0100036D01*
X0253295Y0100036D02*
X0252928Y0099669D01*
X0252194Y0099669D01*
X0251827Y0100036D01*
X0251827Y0101504D01*
X0252194Y0101871D01*
X0252928Y0101871D01*
X0253295Y0101504D01*
X0254037Y0101504D02*
X0254404Y0101871D01*
X0255138Y0101871D01*
X0255505Y0101504D01*
X0255505Y0101137D01*
X0255138Y0100770D01*
X0255505Y0100403D01*
X0255505Y0100036D01*
X0255138Y0099669D01*
X0255138Y0100770D02*
X0254771Y0100770D01*
X0255376Y0102053D02*
X0255378Y0102087D01*
X0255384Y0102121D01*
X0255394Y0102154D01*
X0255407Y0102185D01*
X0255425Y0102215D01*
X0255445Y0102243D01*
X0255469Y0102268D01*
X0255495Y0102290D01*
X0255523Y0102308D01*
X0255554Y0102324D01*
X0255586Y0102336D01*
X0255620Y0102344D01*
X0255654Y0102348D01*
X0255688Y0102348D01*
X0255722Y0102344D01*
X0255756Y0102336D01*
X0255788Y0102324D01*
X0255818Y0102308D01*
X0255847Y0102290D01*
X0255873Y0102268D01*
X0255897Y0102243D01*
X0255917Y0102215D01*
X0255935Y0102185D01*
X0255948Y0102154D01*
X0255958Y0102121D01*
X0255964Y0102087D01*
X0255966Y0102053D01*
X0255964Y0102019D01*
X0255958Y0101985D01*
X0255948Y0101952D01*
X0255935Y0101921D01*
X0255917Y0101891D01*
X0255897Y0101863D01*
X0255873Y0101838D01*
X0255847Y0101816D01*
X0255819Y0101798D01*
X0255788Y0101782D01*
X0255756Y0101770D01*
X0255722Y0101762D01*
X0255688Y0101758D01*
X0255654Y0101758D01*
X0255620Y0101762D01*
X0255586Y0101770D01*
X0255554Y0101782D01*
X0255523Y0101798D01*
X0255495Y0101816D01*
X0255469Y0101838D01*
X0255445Y0101863D01*
X0255425Y0101891D01*
X0255407Y0101921D01*
X0255394Y0101952D01*
X0255384Y0101985D01*
X0255378Y0102019D01*
X0255376Y0102053D01*
X0251088Y0101871D02*
X0250354Y0101871D01*
X0250721Y0101871D02*
X0250721Y0099669D01*
X0250354Y0099669D02*
X0251088Y0099669D01*
X0253147Y0106318D02*
X0254615Y0106318D01*
X0255357Y0106318D02*
X0256825Y0106318D01*
X0257567Y0106318D02*
X0258668Y0106318D01*
X0259035Y0106685D01*
X0259035Y0108153D01*
X0258668Y0108520D01*
X0257567Y0108520D01*
X0257567Y0106318D01*
X0256091Y0107419D02*
X0255357Y0107419D01*
X0255357Y0108520D02*
X0255357Y0106318D01*
X0255357Y0108520D02*
X0256825Y0108520D01*
X0255376Y0110178D02*
X0255378Y0110212D01*
X0255384Y0110246D01*
X0255394Y0110279D01*
X0255407Y0110310D01*
X0255425Y0110340D01*
X0255445Y0110368D01*
X0255469Y0110393D01*
X0255495Y0110415D01*
X0255523Y0110433D01*
X0255554Y0110449D01*
X0255586Y0110461D01*
X0255620Y0110469D01*
X0255654Y0110473D01*
X0255688Y0110473D01*
X0255722Y0110469D01*
X0255756Y0110461D01*
X0255788Y0110449D01*
X0255818Y0110433D01*
X0255847Y0110415D01*
X0255873Y0110393D01*
X0255897Y0110368D01*
X0255917Y0110340D01*
X0255935Y0110310D01*
X0255948Y0110279D01*
X0255958Y0110246D01*
X0255964Y0110212D01*
X0255966Y0110178D01*
X0255964Y0110144D01*
X0255958Y0110110D01*
X0255948Y0110077D01*
X0255935Y0110046D01*
X0255917Y0110016D01*
X0255897Y0109988D01*
X0255873Y0109963D01*
X0255847Y0109941D01*
X0255819Y0109923D01*
X0255788Y0109907D01*
X0255756Y0109895D01*
X0255722Y0109887D01*
X0255688Y0109883D01*
X0255654Y0109883D01*
X0255620Y0109887D01*
X0255586Y0109895D01*
X0255554Y0109907D01*
X0255523Y0109923D01*
X0255495Y0109941D01*
X0255469Y0109963D01*
X0255445Y0109988D01*
X0255425Y0110016D01*
X0255407Y0110046D01*
X0255394Y0110077D01*
X0255384Y0110110D01*
X0255378Y0110144D01*
X0255376Y0110178D01*
X0253147Y0108520D02*
X0253147Y0106318D01*
X0259777Y0106318D02*
X0261244Y0106318D01*
X0260511Y0106318D02*
X0260511Y0108520D01*
X0259777Y0107786D01*
X0261380Y0110473D02*
X0261316Y0110475D01*
X0261252Y0110481D01*
X0261188Y0110490D01*
X0261126Y0110503D01*
X0261064Y0110520D01*
X0261003Y0110541D01*
X0260943Y0110565D01*
X0260885Y0110593D01*
X0260829Y0110623D01*
X0260775Y0110658D01*
X0260723Y0110695D01*
X0260673Y0110736D01*
X0260626Y0110779D01*
X0260581Y0110825D01*
X0260539Y0110874D01*
X0260500Y0110925D01*
X0260464Y0110978D01*
X0260432Y0111033D01*
X0260402Y0111090D01*
X0260376Y0111149D01*
X0260354Y0111209D01*
X0260335Y0111271D01*
X0260320Y0111333D01*
X0260309Y0111396D01*
X0260301Y0111460D01*
X0260297Y0111524D01*
X0260297Y0111588D01*
X0260301Y0111652D01*
X0260309Y0111716D01*
X0260320Y0111779D01*
X0260335Y0111841D01*
X0260354Y0111903D01*
X0260376Y0111963D01*
X0260402Y0112022D01*
X0260432Y0112079D01*
X0260464Y0112134D01*
X0260500Y0112187D01*
X0260539Y0112238D01*
X0260581Y0112287D01*
X0260626Y0112333D01*
X0260673Y0112376D01*
X0260723Y0112417D01*
X0260775Y0112454D01*
X0260829Y0112489D01*
X0260885Y0112519D01*
X0260943Y0112547D01*
X0261003Y0112571D01*
X0261064Y0112592D01*
X0261126Y0112609D01*
X0261188Y0112622D01*
X0261252Y0112631D01*
X0261316Y0112637D01*
X0261380Y0112639D01*
X0261638Y0114276D02*
X0260170Y0114276D01*
X0261638Y0115744D01*
X0261638Y0116111D01*
X0261271Y0116478D01*
X0260537Y0116478D01*
X0260170Y0116111D01*
X0259428Y0116111D02*
X0259061Y0116478D01*
X0257960Y0116478D01*
X0257960Y0114276D01*
X0259061Y0114276D01*
X0259428Y0114643D01*
X0259428Y0116111D01*
X0257218Y0116478D02*
X0255751Y0116478D01*
X0255751Y0114276D01*
X0257218Y0114276D01*
X0256484Y0115377D02*
X0255751Y0115377D01*
X0255009Y0114276D02*
X0253541Y0114276D01*
X0253541Y0116478D01*
X0252123Y0119256D02*
X0251389Y0119256D01*
X0251022Y0119623D01*
X0251022Y0119990D01*
X0251389Y0120357D01*
X0252123Y0120357D01*
X0252490Y0119990D01*
X0252490Y0119623D01*
X0252123Y0119256D01*
X0252123Y0120357D02*
X0252490Y0120724D01*
X0252490Y0121091D01*
X0252123Y0121458D01*
X0251389Y0121458D01*
X0251022Y0121091D01*
X0251022Y0120724D01*
X0251389Y0120357D01*
X0250280Y0119256D02*
X0248812Y0119256D01*
X0249546Y0119256D02*
X0249546Y0121458D01*
X0248812Y0120724D01*
X0248070Y0120357D02*
X0247703Y0119990D01*
X0246602Y0119990D01*
X0247336Y0119990D02*
X0248070Y0119256D01*
X0248070Y0120357D02*
X0248070Y0121091D01*
X0247703Y0121458D01*
X0246602Y0121458D01*
X0246602Y0119256D01*
X0261380Y0104514D02*
X0261316Y0104512D01*
X0261252Y0104506D01*
X0261188Y0104497D01*
X0261126Y0104484D01*
X0261064Y0104467D01*
X0261003Y0104446D01*
X0260943Y0104422D01*
X0260885Y0104394D01*
X0260829Y0104364D01*
X0260775Y0104329D01*
X0260723Y0104292D01*
X0260673Y0104251D01*
X0260626Y0104208D01*
X0260581Y0104162D01*
X0260539Y0104113D01*
X0260500Y0104062D01*
X0260464Y0104009D01*
X0260432Y0103954D01*
X0260402Y0103897D01*
X0260376Y0103838D01*
X0260354Y0103778D01*
X0260335Y0103716D01*
X0260320Y0103654D01*
X0260309Y0103591D01*
X0260301Y0103527D01*
X0260297Y0103463D01*
X0260297Y0103399D01*
X0260301Y0103335D01*
X0260309Y0103271D01*
X0260320Y0103208D01*
X0260335Y0103146D01*
X0260354Y0103084D01*
X0260376Y0103024D01*
X0260402Y0102965D01*
X0260432Y0102908D01*
X0260464Y0102853D01*
X0260500Y0102800D01*
X0260539Y0102749D01*
X0260581Y0102700D01*
X0260626Y0102654D01*
X0260673Y0102611D01*
X0260723Y0102570D01*
X0260775Y0102533D01*
X0260829Y0102498D01*
X0260885Y0102468D01*
X0260943Y0102440D01*
X0261003Y0102416D01*
X0261064Y0102395D01*
X0261126Y0102378D01*
X0261188Y0102365D01*
X0261252Y0102356D01*
X0261316Y0102350D01*
X0261380Y0102348D01*
X0269564Y0149768D02*
X0269564Y0151970D01*
X0270665Y0151970D01*
X0271032Y0151603D01*
X0271032Y0150869D01*
X0270665Y0150502D01*
X0269564Y0150502D01*
X0271774Y0150502D02*
X0272875Y0150502D01*
X0273242Y0150869D01*
X0273242Y0151603D01*
X0272875Y0151970D01*
X0271774Y0151970D01*
X0271774Y0149768D01*
X0272508Y0150502D02*
X0273242Y0149768D01*
X0273984Y0150135D02*
X0273984Y0151603D01*
X0274351Y0151970D01*
X0275085Y0151970D01*
X0275452Y0151603D01*
X0275452Y0150135D01*
X0275085Y0149768D01*
X0274351Y0149768D01*
X0273984Y0150135D01*
X0276194Y0150135D02*
X0276561Y0149768D01*
X0277295Y0149768D01*
X0277662Y0150135D01*
X0277662Y0150869D01*
X0276928Y0150869D01*
X0277662Y0151603D02*
X0277295Y0151970D01*
X0276561Y0151970D01*
X0276194Y0151603D01*
X0276194Y0150135D01*
X0294820Y0155931D02*
X0302694Y0155931D01*
X0296788Y0155931D02*
X0296790Y0156019D01*
X0296796Y0156107D01*
X0296806Y0156195D01*
X0296820Y0156283D01*
X0296837Y0156369D01*
X0296859Y0156455D01*
X0296884Y0156539D01*
X0296914Y0156623D01*
X0296946Y0156705D01*
X0296983Y0156785D01*
X0297023Y0156864D01*
X0297067Y0156941D01*
X0297114Y0157016D01*
X0297164Y0157088D01*
X0297218Y0157159D01*
X0297274Y0157226D01*
X0297334Y0157292D01*
X0297396Y0157354D01*
X0297462Y0157414D01*
X0297529Y0157470D01*
X0297600Y0157524D01*
X0297672Y0157574D01*
X0297747Y0157621D01*
X0297824Y0157665D01*
X0297903Y0157705D01*
X0297983Y0157742D01*
X0298065Y0157774D01*
X0298149Y0157804D01*
X0298233Y0157829D01*
X0298319Y0157851D01*
X0298405Y0157868D01*
X0298493Y0157882D01*
X0298581Y0157892D01*
X0298669Y0157898D01*
X0298757Y0157900D01*
X0298845Y0157898D01*
X0298933Y0157892D01*
X0299021Y0157882D01*
X0299109Y0157868D01*
X0299195Y0157851D01*
X0299281Y0157829D01*
X0299365Y0157804D01*
X0299449Y0157774D01*
X0299531Y0157742D01*
X0299611Y0157705D01*
X0299690Y0157665D01*
X0299767Y0157621D01*
X0299842Y0157574D01*
X0299914Y0157524D01*
X0299985Y0157470D01*
X0300052Y0157414D01*
X0300118Y0157354D01*
X0300180Y0157292D01*
X0300240Y0157226D01*
X0300296Y0157159D01*
X0300350Y0157088D01*
X0300400Y0157016D01*
X0300447Y0156941D01*
X0300491Y0156864D01*
X0300531Y0156785D01*
X0300568Y0156705D01*
X0300600Y0156623D01*
X0300630Y0156539D01*
X0300655Y0156455D01*
X0300677Y0156369D01*
X0300694Y0156283D01*
X0300708Y0156195D01*
X0300718Y0156107D01*
X0300724Y0156019D01*
X0300726Y0155931D01*
X0300724Y0155843D01*
X0300718Y0155755D01*
X0300708Y0155667D01*
X0300694Y0155579D01*
X0300677Y0155493D01*
X0300655Y0155407D01*
X0300630Y0155323D01*
X0300600Y0155239D01*
X0300568Y0155157D01*
X0300531Y0155077D01*
X0300491Y0154998D01*
X0300447Y0154921D01*
X0300400Y0154846D01*
X0300350Y0154774D01*
X0300296Y0154703D01*
X0300240Y0154636D01*
X0300180Y0154570D01*
X0300118Y0154508D01*
X0300052Y0154448D01*
X0299985Y0154392D01*
X0299914Y0154338D01*
X0299842Y0154288D01*
X0299767Y0154241D01*
X0299690Y0154197D01*
X0299611Y0154157D01*
X0299531Y0154120D01*
X0299449Y0154088D01*
X0299365Y0154058D01*
X0299281Y0154033D01*
X0299195Y0154011D01*
X0299109Y0153994D01*
X0299021Y0153980D01*
X0298933Y0153970D01*
X0298845Y0153964D01*
X0298757Y0153962D01*
X0298669Y0153964D01*
X0298581Y0153970D01*
X0298493Y0153980D01*
X0298405Y0153994D01*
X0298319Y0154011D01*
X0298233Y0154033D01*
X0298149Y0154058D01*
X0298065Y0154088D01*
X0297983Y0154120D01*
X0297903Y0154157D01*
X0297824Y0154197D01*
X0297747Y0154241D01*
X0297672Y0154288D01*
X0297600Y0154338D01*
X0297529Y0154392D01*
X0297462Y0154448D01*
X0297396Y0154508D01*
X0297334Y0154570D01*
X0297274Y0154636D01*
X0297218Y0154703D01*
X0297164Y0154774D01*
X0297114Y0154846D01*
X0297067Y0154921D01*
X0297023Y0154998D01*
X0296983Y0155077D01*
X0296946Y0155157D01*
X0296914Y0155239D01*
X0296884Y0155323D01*
X0296859Y0155407D01*
X0296837Y0155493D01*
X0296820Y0155579D01*
X0296806Y0155667D01*
X0296796Y0155755D01*
X0296790Y0155843D01*
X0296788Y0155931D01*
X0294820Y0155931D02*
X0294822Y0156056D01*
X0294828Y0156181D01*
X0294838Y0156305D01*
X0294852Y0156429D01*
X0294869Y0156553D01*
X0294891Y0156676D01*
X0294917Y0156798D01*
X0294946Y0156920D01*
X0294979Y0157040D01*
X0295017Y0157159D01*
X0295057Y0157278D01*
X0295102Y0157394D01*
X0295150Y0157509D01*
X0295202Y0157623D01*
X0295258Y0157735D01*
X0295317Y0157845D01*
X0295379Y0157953D01*
X0295445Y0158060D01*
X0295514Y0158164D01*
X0295587Y0158265D01*
X0295662Y0158365D01*
X0295741Y0158462D01*
X0295823Y0158556D01*
X0295908Y0158648D01*
X0295995Y0158737D01*
X0296086Y0158823D01*
X0296179Y0158906D01*
X0296275Y0158987D01*
X0296373Y0159064D01*
X0296473Y0159138D01*
X0296576Y0159209D01*
X0296681Y0159276D01*
X0296789Y0159341D01*
X0296898Y0159401D01*
X0297009Y0159459D01*
X0297122Y0159512D01*
X0297236Y0159562D01*
X0297352Y0159609D01*
X0297469Y0159651D01*
X0297588Y0159690D01*
X0297708Y0159726D01*
X0297829Y0159757D01*
X0297951Y0159785D01*
X0298073Y0159808D01*
X0298197Y0159828D01*
X0298321Y0159844D01*
X0298445Y0159856D01*
X0298570Y0159864D01*
X0298695Y0159868D01*
X0298819Y0159868D01*
X0298944Y0159864D01*
X0299069Y0159856D01*
X0299193Y0159844D01*
X0299317Y0159828D01*
X0299441Y0159808D01*
X0299563Y0159785D01*
X0299685Y0159757D01*
X0299806Y0159726D01*
X0299926Y0159690D01*
X0300045Y0159651D01*
X0300162Y0159609D01*
X0300278Y0159562D01*
X0300392Y0159512D01*
X0300505Y0159459D01*
X0300616Y0159401D01*
X0300726Y0159341D01*
X0300833Y0159276D01*
X0300938Y0159209D01*
X0301041Y0159138D01*
X0301141Y0159064D01*
X0301239Y0158987D01*
X0301335Y0158906D01*
X0301428Y0158823D01*
X0301519Y0158737D01*
X0301606Y0158648D01*
X0301691Y0158556D01*
X0301773Y0158462D01*
X0301852Y0158365D01*
X0301927Y0158265D01*
X0302000Y0158164D01*
X0302069Y0158060D01*
X0302135Y0157953D01*
X0302197Y0157845D01*
X0302256Y0157735D01*
X0302312Y0157623D01*
X0302364Y0157509D01*
X0302412Y0157394D01*
X0302457Y0157278D01*
X0302497Y0157159D01*
X0302535Y0157040D01*
X0302568Y0156920D01*
X0302597Y0156798D01*
X0302623Y0156676D01*
X0302645Y0156553D01*
X0302662Y0156429D01*
X0302676Y0156305D01*
X0302686Y0156181D01*
X0302692Y0156056D01*
X0302694Y0155931D01*
X0302692Y0155806D01*
X0302686Y0155681D01*
X0302676Y0155557D01*
X0302662Y0155433D01*
X0302645Y0155309D01*
X0302623Y0155186D01*
X0302597Y0155064D01*
X0302568Y0154942D01*
X0302535Y0154822D01*
X0302497Y0154703D01*
X0302457Y0154584D01*
X0302412Y0154468D01*
X0302364Y0154353D01*
X0302312Y0154239D01*
X0302256Y0154127D01*
X0302197Y0154017D01*
X0302135Y0153909D01*
X0302069Y0153802D01*
X0302000Y0153698D01*
X0301927Y0153597D01*
X0301852Y0153497D01*
X0301773Y0153400D01*
X0301691Y0153306D01*
X0301606Y0153214D01*
X0301519Y0153125D01*
X0301428Y0153039D01*
X0301335Y0152956D01*
X0301239Y0152875D01*
X0301141Y0152798D01*
X0301041Y0152724D01*
X0300938Y0152653D01*
X0300833Y0152586D01*
X0300725Y0152521D01*
X0300616Y0152461D01*
X0300505Y0152403D01*
X0300392Y0152350D01*
X0300278Y0152300D01*
X0300162Y0152253D01*
X0300045Y0152211D01*
X0299926Y0152172D01*
X0299806Y0152136D01*
X0299685Y0152105D01*
X0299563Y0152077D01*
X0299441Y0152054D01*
X0299317Y0152034D01*
X0299193Y0152018D01*
X0299069Y0152006D01*
X0298944Y0151998D01*
X0298819Y0151994D01*
X0298695Y0151994D01*
X0298570Y0151998D01*
X0298445Y0152006D01*
X0298321Y0152018D01*
X0298197Y0152034D01*
X0298073Y0152054D01*
X0297951Y0152077D01*
X0297829Y0152105D01*
X0297708Y0152136D01*
X0297588Y0152172D01*
X0297469Y0152211D01*
X0297352Y0152253D01*
X0297236Y0152300D01*
X0297122Y0152350D01*
X0297009Y0152403D01*
X0296898Y0152461D01*
X0296788Y0152521D01*
X0296681Y0152586D01*
X0296576Y0152653D01*
X0296473Y0152724D01*
X0296373Y0152798D01*
X0296275Y0152875D01*
X0296179Y0152956D01*
X0296086Y0153039D01*
X0295995Y0153125D01*
X0295908Y0153214D01*
X0295823Y0153306D01*
X0295741Y0153400D01*
X0295662Y0153497D01*
X0295587Y0153597D01*
X0295514Y0153698D01*
X0295445Y0153802D01*
X0295379Y0153909D01*
X0295317Y0154017D01*
X0295258Y0154127D01*
X0295202Y0154239D01*
X0295150Y0154353D01*
X0295102Y0154468D01*
X0295057Y0154584D01*
X0295017Y0154703D01*
X0294979Y0154822D01*
X0294946Y0154942D01*
X0294917Y0155064D01*
X0294891Y0155186D01*
X0294869Y0155309D01*
X0294852Y0155433D01*
X0294838Y0155557D01*
X0294828Y0155681D01*
X0294822Y0155806D01*
X0294820Y0155931D01*
X0298757Y0159868D02*
X0298757Y0151994D01*
X0281257Y0169198D02*
X0279700Y0170754D01*
X0280478Y0171533D01*
X0280997Y0171533D01*
X0281516Y0171014D01*
X0281516Y0170495D01*
X0280738Y0169716D01*
X0281257Y0170235D02*
X0282295Y0170235D01*
X0282819Y0170760D02*
X0282300Y0173355D01*
X0281262Y0172317D02*
X0283857Y0171798D01*
X0284700Y0170754D02*
X0285738Y0171792D01*
X0285219Y0171273D02*
X0286776Y0169716D01*
X0287819Y0170760D02*
X0287300Y0173355D01*
X0286262Y0172317D02*
X0288857Y0171798D01*
X0278598Y0171539D02*
X0278079Y0171020D01*
X0277560Y0171020D01*
X0277560Y0173096D01*
X0278598Y0172058D01*
X0278598Y0171539D01*
X0277560Y0171020D02*
X0276522Y0172058D01*
X0276522Y0172577D01*
X0277041Y0173096D01*
X0277560Y0173096D01*
X0275997Y0171533D02*
X0275478Y0171533D01*
X0274959Y0171014D01*
X0274959Y0170495D01*
X0275997Y0169457D01*
X0276516Y0169457D01*
X0277035Y0169976D01*
X0277035Y0170495D01*
X0276516Y0171014D01*
X0275997Y0170495D01*
X0273651Y0172842D02*
X0272094Y0174399D01*
X0271575Y0173880D02*
X0272613Y0174918D01*
X0271310Y0173096D02*
X0270791Y0173096D01*
X0270272Y0172577D01*
X0270272Y0172058D01*
X0270531Y0171798D01*
X0271050Y0171798D01*
X0271569Y0172317D01*
X0272088Y0172317D01*
X0272348Y0172058D01*
X0272348Y0171539D01*
X0271829Y0171020D01*
X0271310Y0171020D01*
X0271045Y0170235D02*
X0270007Y0170235D01*
X0270266Y0170495D02*
X0269488Y0169716D01*
X0270007Y0169198D02*
X0268450Y0170754D01*
X0269228Y0171533D01*
X0269747Y0171533D01*
X0270266Y0171014D01*
X0270266Y0170495D01*
X0267660Y0173101D02*
X0267660Y0173620D01*
X0266622Y0174658D01*
X0266103Y0174658D01*
X0265325Y0173880D01*
X0266882Y0172323D01*
X0267660Y0173101D01*
X0266357Y0171798D02*
X0264800Y0173355D01*
X0263762Y0172317D02*
X0266357Y0171798D01*
X0265319Y0170760D02*
X0263762Y0172317D01*
X0263497Y0171533D02*
X0262978Y0171533D01*
X0262459Y0171014D01*
X0262459Y0170495D01*
X0263497Y0169457D01*
X0264016Y0169457D01*
X0264535Y0169976D01*
X0264535Y0170495D01*
X0264016Y0171014D01*
X0263497Y0170495D01*
X0248807Y0172998D02*
X0248807Y0174036D01*
X0247769Y0175074D01*
X0246731Y0174036D02*
X0247769Y0172998D01*
X0248807Y0172998D01*
X0247504Y0172214D02*
X0247504Y0171695D01*
X0246985Y0171176D01*
X0246466Y0171176D01*
X0245944Y0170654D02*
X0246204Y0170395D01*
X0245944Y0170135D01*
X0245685Y0170395D01*
X0245944Y0170654D01*
X0245160Y0169870D02*
X0245160Y0169351D01*
X0244641Y0168832D01*
X0244122Y0168832D01*
X0244122Y0169870D02*
X0244382Y0170129D01*
X0244901Y0170129D01*
X0245160Y0169870D01*
X0244382Y0170129D02*
X0244382Y0170648D01*
X0244122Y0170908D01*
X0243603Y0170908D01*
X0243084Y0170389D01*
X0243084Y0169870D01*
X0241723Y0170914D02*
X0241723Y0171433D01*
X0241723Y0170914D02*
X0241204Y0170395D01*
X0240685Y0170395D01*
X0239647Y0171433D01*
X0239647Y0171952D01*
X0240166Y0172471D01*
X0240685Y0172471D01*
X0240950Y0173255D02*
X0242507Y0171698D01*
X0243545Y0172736D01*
X0245428Y0172733D02*
X0245947Y0173252D01*
X0246466Y0173252D01*
X0246725Y0172992D01*
X0246725Y0172473D01*
X0247244Y0172473D01*
X0247504Y0172214D01*
X0246725Y0172473D02*
X0246466Y0172214D01*
X0245428Y0172214D02*
X0245428Y0172733D01*
X0240160Y0169870D02*
X0240160Y0169351D01*
X0239641Y0168832D01*
X0239122Y0168832D01*
X0238863Y0169610D02*
X0239382Y0170129D01*
X0239901Y0170129D01*
X0240160Y0169870D01*
X0238863Y0169610D02*
X0238344Y0169610D01*
X0238084Y0169870D01*
X0238084Y0170389D01*
X0238603Y0170908D01*
X0239122Y0170908D01*
X0237507Y0171698D02*
X0236469Y0172736D01*
X0236469Y0173774D01*
X0237507Y0173774D01*
X0238545Y0172736D01*
X0237766Y0173514D02*
X0236728Y0172476D01*
X0235685Y0172471D02*
X0235166Y0172471D01*
X0234387Y0171692D01*
X0235944Y0170135D01*
X0236723Y0170914D01*
X0236723Y0171433D01*
X0235685Y0172471D01*
X0234122Y0170908D02*
X0233603Y0170908D01*
X0233084Y0170389D01*
X0233084Y0169870D01*
X0233344Y0169610D01*
X0233863Y0169610D01*
X0234382Y0170129D01*
X0234901Y0170129D01*
X0235160Y0169870D01*
X0235160Y0169351D01*
X0234641Y0168832D01*
X0234122Y0168832D01*
X0231982Y0171173D02*
X0230425Y0172730D01*
X0230950Y0173255D02*
X0231728Y0174033D01*
X0232247Y0174033D01*
X0233285Y0172995D01*
X0233285Y0172476D01*
X0232507Y0171698D01*
X0230950Y0173255D01*
X0229387Y0171692D02*
X0231982Y0171173D01*
X0230944Y0170135D02*
X0229387Y0171692D01*
X0229122Y0170908D02*
X0228603Y0170908D01*
X0228084Y0170389D01*
X0228084Y0169870D01*
X0229122Y0168832D01*
X0229641Y0168832D01*
X0230160Y0169351D01*
X0230160Y0169870D01*
X0229641Y0170389D01*
X0229122Y0169870D01*
X0213649Y0172215D02*
X0212870Y0172993D01*
X0212351Y0172993D01*
X0211573Y0172215D01*
X0212611Y0171177D01*
X0212088Y0170654D02*
X0211569Y0170135D01*
X0211829Y0170395D02*
X0210791Y0171433D01*
X0210531Y0171173D01*
X0210272Y0171952D02*
X0210012Y0172211D01*
X0208910Y0172476D02*
X0208910Y0172995D01*
X0207872Y0174033D01*
X0207353Y0174033D01*
X0206575Y0173255D01*
X0208132Y0171698D01*
X0208910Y0172476D01*
X0209488Y0171167D02*
X0210526Y0170129D01*
X0210526Y0169091D01*
X0209488Y0169091D01*
X0208450Y0170129D01*
X0207607Y0171173D02*
X0206050Y0172730D01*
X0205012Y0171692D02*
X0207607Y0171173D01*
X0206569Y0170135D02*
X0205012Y0171692D01*
X0204747Y0170908D02*
X0204228Y0170908D01*
X0203709Y0170389D01*
X0203709Y0169870D01*
X0204747Y0168832D01*
X0205266Y0168832D01*
X0205785Y0169351D01*
X0205785Y0169870D01*
X0205266Y0170389D01*
X0204747Y0169870D01*
X0183645Y0158955D02*
X0183645Y0157488D01*
X0182177Y0158955D01*
X0181810Y0158955D01*
X0181443Y0158588D01*
X0181443Y0157855D01*
X0181810Y0157488D01*
X0181810Y0156746D02*
X0181443Y0156379D01*
X0181443Y0155645D01*
X0181810Y0155278D01*
X0181810Y0154536D02*
X0181443Y0154169D01*
X0181443Y0153435D01*
X0181810Y0153068D01*
X0183278Y0153068D01*
X0183645Y0153435D01*
X0183645Y0154169D01*
X0183278Y0154536D01*
X0183645Y0155278D02*
X0182177Y0156746D01*
X0181810Y0156746D01*
X0183645Y0156746D02*
X0183645Y0155278D01*
X0201705Y0151970D02*
X0201705Y0149768D01*
X0201705Y0150502D02*
X0202806Y0150502D01*
X0203173Y0150869D01*
X0203173Y0151603D01*
X0202806Y0151970D01*
X0201705Y0151970D01*
X0203915Y0151603D02*
X0203915Y0150135D01*
X0204282Y0149768D01*
X0205016Y0149768D01*
X0205383Y0150135D01*
X0205383Y0151603D01*
X0205016Y0151970D01*
X0204282Y0151970D01*
X0203915Y0151603D01*
X0206125Y0151970D02*
X0206125Y0149768D01*
X0206858Y0150502D01*
X0207592Y0149768D01*
X0207592Y0151970D01*
X0208334Y0151970D02*
X0208334Y0149768D01*
X0209802Y0149768D01*
X0210544Y0149768D02*
X0210544Y0151970D01*
X0211645Y0151970D01*
X0212012Y0151603D01*
X0212012Y0150869D01*
X0211645Y0150502D01*
X0210544Y0150502D01*
X0211278Y0150502D02*
X0212012Y0149768D01*
X0209802Y0151970D02*
X0208334Y0151970D01*
X0208334Y0150869D02*
X0209068Y0150869D01*
X0158285Y0159685D02*
X0158285Y0161153D01*
X0157918Y0161895D02*
X0157551Y0161895D01*
X0156083Y0163363D01*
X0155716Y0163363D01*
X0155716Y0161895D01*
X0155716Y0158946D02*
X0155716Y0158212D01*
X0155716Y0158579D02*
X0157918Y0158579D01*
X0157918Y0158212D02*
X0157918Y0158946D01*
X0156817Y0157470D02*
X0157184Y0157103D01*
X0157184Y0156002D01*
X0157918Y0156002D02*
X0155716Y0156002D01*
X0155716Y0157103D01*
X0156083Y0157470D01*
X0156817Y0157470D01*
X0157184Y0155260D02*
X0157551Y0155260D01*
X0157918Y0154893D01*
X0157918Y0154159D01*
X0157551Y0153792D01*
X0156817Y0154159D02*
X0156817Y0154893D01*
X0157184Y0155260D01*
X0156083Y0155260D02*
X0155716Y0154893D01*
X0155716Y0154159D01*
X0156083Y0153792D01*
X0156450Y0153792D01*
X0156817Y0154159D01*
X0135477Y0154159D02*
X0135110Y0153792D01*
X0135477Y0154159D02*
X0135477Y0154893D01*
X0135110Y0155260D01*
X0134743Y0155260D01*
X0134376Y0154893D01*
X0134376Y0154159D01*
X0134010Y0153792D01*
X0133643Y0153792D01*
X0133276Y0154159D01*
X0133276Y0154893D01*
X0133643Y0155260D01*
X0133276Y0156002D02*
X0133276Y0157103D01*
X0133643Y0157470D01*
X0134376Y0157470D01*
X0134743Y0157103D01*
X0134743Y0156002D01*
X0135477Y0156002D02*
X0133276Y0156002D01*
X0133276Y0158212D02*
X0133276Y0158946D01*
X0133276Y0158579D02*
X0135477Y0158579D01*
X0135477Y0158212D02*
X0135477Y0158946D01*
X0135844Y0159685D02*
X0135844Y0161153D01*
X0135110Y0161895D02*
X0135477Y0162262D01*
X0135477Y0162996D01*
X0135110Y0163363D01*
X0134743Y0163363D01*
X0134376Y0162996D01*
X0134376Y0161895D01*
X0135110Y0161895D01*
X0134376Y0161895D02*
X0133643Y0162629D01*
X0133276Y0163363D01*
X0113797Y0161153D02*
X0113797Y0159685D01*
X0113430Y0158946D02*
X0113430Y0158212D01*
X0113430Y0158579D02*
X0111228Y0158579D01*
X0111228Y0158212D02*
X0111228Y0158946D01*
X0111595Y0157470D02*
X0111228Y0157103D01*
X0111228Y0156002D01*
X0113430Y0156002D01*
X0112696Y0156002D02*
X0112696Y0157103D01*
X0112329Y0157470D01*
X0111595Y0157470D01*
X0111595Y0155260D02*
X0111228Y0154893D01*
X0111228Y0154159D01*
X0111595Y0153792D01*
X0111962Y0153792D01*
X0112329Y0154159D01*
X0112329Y0154893D01*
X0112696Y0155260D01*
X0113063Y0155260D01*
X0113430Y0154893D01*
X0113430Y0154159D01*
X0113063Y0153792D01*
X0113063Y0161895D02*
X0113430Y0162262D01*
X0113430Y0162996D01*
X0113063Y0163363D01*
X0112329Y0163363D01*
X0111962Y0162996D01*
X0111962Y0162629D01*
X0112329Y0161895D01*
X0111228Y0161895D01*
X0111228Y0163363D01*
X0091356Y0161153D02*
X0091356Y0159685D01*
X0090989Y0158946D02*
X0090989Y0158212D01*
X0090989Y0158579D02*
X0088787Y0158579D01*
X0088787Y0158212D02*
X0088787Y0158946D01*
X0089154Y0157470D02*
X0089888Y0157470D01*
X0090255Y0157103D01*
X0090255Y0156002D01*
X0090989Y0156002D02*
X0088787Y0156002D01*
X0088787Y0157103D01*
X0089154Y0157470D01*
X0089154Y0155260D02*
X0088787Y0154893D01*
X0088787Y0154159D01*
X0089154Y0153792D01*
X0089521Y0153792D01*
X0089888Y0154159D01*
X0089888Y0154893D01*
X0090255Y0155260D01*
X0090622Y0155260D01*
X0090989Y0154893D01*
X0090989Y0154159D01*
X0090622Y0153792D01*
X0089888Y0161895D02*
X0089888Y0163363D01*
X0088787Y0162996D02*
X0089888Y0161895D01*
X0090989Y0162996D02*
X0088787Y0162996D01*
X0162048Y0103721D02*
X0164250Y0103721D01*
X0164250Y0102987D02*
X0164250Y0104455D01*
X0162782Y0102987D02*
X0162048Y0103721D01*
X0162048Y0101511D02*
X0164250Y0101511D01*
X0164250Y0100777D02*
X0164250Y0102245D01*
X0162782Y0100777D02*
X0162048Y0101511D01*
X0162415Y0100035D02*
X0162048Y0099668D01*
X0162048Y0098934D01*
X0162415Y0098567D01*
X0163883Y0098567D01*
X0164250Y0098934D01*
X0164250Y0099668D01*
X0163883Y0100035D01*
X0128680Y0099112D02*
X0127212Y0099112D01*
X0127946Y0099112D02*
X0127946Y0101314D01*
X0127212Y0100580D01*
X0126470Y0100947D02*
X0126103Y0101314D01*
X0125369Y0101314D01*
X0125002Y0100947D01*
X0125002Y0099479D01*
X0125369Y0099112D01*
X0126103Y0099112D01*
X0126470Y0099479D01*
X0124263Y0099112D02*
X0123529Y0099112D01*
X0123896Y0099112D02*
X0123896Y0101314D01*
X0123529Y0101314D02*
X0124263Y0101314D01*
D13*
X0189432Y0043107D02*
X0189432Y0041606D01*
X0190432Y0041606D01*
X0190905Y0041606D02*
X0190905Y0043107D01*
X0191906Y0043107D01*
X0192378Y0043107D02*
X0193129Y0043107D01*
X0193379Y0042857D01*
X0193379Y0041856D01*
X0193129Y0041606D01*
X0192378Y0041606D01*
X0192378Y0043107D01*
X0191405Y0042357D02*
X0190905Y0042357D01*
X0190905Y0041606D02*
X0191906Y0041606D01*
X0218182Y0041606D02*
X0218682Y0041606D01*
X0218432Y0041606D02*
X0218432Y0043107D01*
X0218182Y0043107D02*
X0218682Y0043107D01*
X0219164Y0043107D02*
X0219664Y0042607D01*
X0220165Y0043107D01*
X0220165Y0041606D01*
X0220637Y0041856D02*
X0220887Y0041606D01*
X0221388Y0041606D01*
X0221638Y0041856D01*
X0221638Y0043107D01*
X0220637Y0043107D02*
X0220637Y0041856D01*
X0219164Y0041606D02*
X0219164Y0043107D01*
X0223583Y0043107D02*
X0223583Y0041856D01*
X0223834Y0041606D01*
X0224334Y0041606D01*
X0224584Y0041856D01*
X0224584Y0043107D01*
X0225057Y0042607D02*
X0225557Y0043107D01*
X0226058Y0042607D01*
X0226058Y0041606D01*
X0226530Y0041606D02*
X0226530Y0043107D01*
X0227281Y0043107D01*
X0227531Y0042857D01*
X0227531Y0042357D01*
X0227281Y0042107D01*
X0226530Y0042107D01*
X0227030Y0042107D02*
X0227531Y0041606D01*
X0228504Y0041606D02*
X0228504Y0043107D01*
X0229004Y0043107D02*
X0228003Y0043107D01*
X0226058Y0042357D02*
X0225057Y0042357D01*
X0225057Y0042607D02*
X0225057Y0041606D01*
D14*
X0079218Y0045280D02*
X0073785Y0045280D01*
X0073785Y0076382D01*
X0079218Y0076382D01*
X0082407Y0076382D01*
X0087170Y0076382D01*
X0087170Y0045280D01*
X0082407Y0045280D01*
X0079218Y0045280D01*
X0095585Y0045280D02*
X0101018Y0045280D01*
X0104207Y0045280D01*
X0108970Y0045280D01*
X0108970Y0076382D01*
X0104207Y0076382D01*
X0101018Y0076382D01*
X0095585Y0076382D01*
X0095585Y0045280D01*
X0117385Y0045280D02*
X0122818Y0045280D01*
X0126007Y0045280D01*
X0130770Y0045280D01*
X0130770Y0076382D01*
X0126007Y0076382D01*
X0122818Y0076382D01*
X0117385Y0076382D01*
X0117385Y0045280D01*
X0139185Y0045280D02*
X0144618Y0045280D01*
X0147807Y0045280D01*
X0152570Y0045280D01*
X0152570Y0076382D01*
X0147807Y0076382D01*
X0144618Y0076382D01*
X0139185Y0076382D01*
X0139185Y0045280D01*
X0180627Y0044184D02*
X0180627Y0049617D01*
X0180627Y0052806D01*
X0180627Y0057570D01*
X0201886Y0057570D01*
X0201886Y0052806D01*
X0201886Y0049617D01*
X0201886Y0044184D01*
X0180627Y0044184D01*
X0210041Y0044184D02*
X0210041Y0049617D01*
X0210041Y0052806D01*
X0210041Y0057570D01*
X0236222Y0057570D01*
X0236222Y0052806D01*
X0236222Y0049617D01*
X0236222Y0044184D01*
X0210041Y0044184D01*
X0244495Y0044184D02*
X0244495Y0049617D01*
X0244495Y0052806D01*
X0244495Y0057570D01*
X0280518Y0057570D01*
X0280518Y0052806D01*
X0280518Y0049617D01*
X0280518Y0044184D01*
X0244495Y0044184D01*
X0153429Y0142355D02*
X0147996Y0142355D01*
X0144807Y0142355D01*
X0140043Y0142355D01*
X0140043Y0173457D01*
X0144807Y0173457D01*
X0147996Y0173457D01*
X0153429Y0173457D01*
X0153429Y0142355D01*
X0131004Y0142355D02*
X0125571Y0142355D01*
X0122382Y0142355D01*
X0117618Y0142355D01*
X0117618Y0173457D01*
X0122382Y0173457D01*
X0125571Y0173457D01*
X0131004Y0173457D01*
X0131004Y0142355D01*
X0109204Y0142355D02*
X0103771Y0142355D01*
X0100582Y0142355D01*
X0095818Y0142355D01*
X0095818Y0173457D01*
X0100582Y0173457D01*
X0103771Y0173457D01*
X0109204Y0173457D01*
X0109204Y0142355D01*
X0086779Y0142355D02*
X0081346Y0142355D01*
X0078157Y0142355D01*
X0073393Y0142355D01*
X0073393Y0173457D01*
X0078157Y0173457D01*
X0081346Y0173457D01*
X0086779Y0173457D01*
X0086779Y0142355D01*
X0199337Y0154292D02*
X0199337Y0159056D01*
X0199337Y0162245D01*
X0199337Y0167678D01*
X0215676Y0167678D01*
X0215676Y0162245D01*
X0215676Y0159056D01*
X0215676Y0154292D01*
X0199337Y0154292D01*
X0223791Y0154292D02*
X0223791Y0159056D01*
X0223791Y0162245D01*
X0223791Y0167678D01*
X0249972Y0167678D01*
X0249972Y0162245D01*
X0249972Y0159056D01*
X0249972Y0154292D01*
X0223791Y0154292D01*
X0258205Y0154292D02*
X0258205Y0159056D01*
X0258205Y0162245D01*
X0258205Y0167678D01*
X0289308Y0167678D01*
X0289308Y0162245D01*
X0289308Y0159056D01*
X0289308Y0154292D01*
X0258205Y0154292D01*
D15*
X0260174Y0155867D02*
X0287339Y0155867D01*
X0287339Y0159056D01*
X0289308Y0159056D01*
X0289308Y0162245D02*
X0287339Y0162245D01*
X0287339Y0165316D01*
X0260174Y0165316D01*
X0260174Y0162245D01*
X0258205Y0162245D01*
X0258205Y0159056D02*
X0260174Y0159056D01*
X0260174Y0155867D01*
X0249972Y0159056D02*
X0248004Y0159056D01*
X0248004Y0155867D01*
X0225760Y0155867D01*
X0225760Y0159056D01*
X0223791Y0159056D01*
X0223791Y0162245D02*
X0225760Y0162245D01*
X0225760Y0165316D01*
X0248004Y0165316D01*
X0248004Y0162245D01*
X0249972Y0162245D01*
X0215676Y0162245D02*
X0213707Y0162245D01*
X0213707Y0165316D01*
X0201306Y0165316D01*
X0201306Y0162245D01*
X0199337Y0162245D01*
X0199337Y0159056D02*
X0201306Y0159056D01*
X0201306Y0155867D01*
X0213707Y0155867D01*
X0213707Y0159056D01*
X0215676Y0159056D01*
X0151066Y0171489D02*
X0151066Y0144323D01*
X0147996Y0144323D01*
X0147996Y0142355D01*
X0144807Y0142355D02*
X0144807Y0144323D01*
X0141618Y0144323D01*
X0141618Y0171489D01*
X0144807Y0171489D01*
X0144807Y0173457D01*
X0147996Y0173457D02*
X0147996Y0171489D01*
X0151066Y0171489D01*
X0128641Y0171489D02*
X0125571Y0171489D01*
X0125571Y0173457D01*
X0122382Y0173457D02*
X0122382Y0171489D01*
X0119193Y0171489D01*
X0119193Y0144323D01*
X0122382Y0144323D01*
X0122382Y0142355D01*
X0125571Y0142355D02*
X0125571Y0144323D01*
X0128641Y0144323D01*
X0128641Y0171489D01*
X0106841Y0171489D02*
X0103771Y0171489D01*
X0103771Y0173457D01*
X0100582Y0173457D02*
X0100582Y0171489D01*
X0097393Y0171489D01*
X0097393Y0144323D01*
X0100582Y0144323D01*
X0100582Y0142355D01*
X0103771Y0142355D02*
X0103771Y0144323D01*
X0106841Y0144323D01*
X0106841Y0171489D01*
X0084416Y0171489D02*
X0081346Y0171489D01*
X0081346Y0173457D01*
X0078157Y0173457D02*
X0078157Y0171489D01*
X0074968Y0171489D01*
X0074968Y0144323D01*
X0078157Y0144323D01*
X0078157Y0142355D01*
X0081346Y0142355D02*
X0081346Y0144323D01*
X0084416Y0144323D01*
X0084416Y0171489D01*
X0141050Y0102806D02*
X0141052Y0102859D01*
X0141058Y0102911D01*
X0141068Y0102963D01*
X0141081Y0103014D01*
X0141099Y0103064D01*
X0141120Y0103113D01*
X0141145Y0103160D01*
X0141173Y0103204D01*
X0141204Y0103247D01*
X0141239Y0103287D01*
X0141276Y0103324D01*
X0141316Y0103359D01*
X0141359Y0103390D01*
X0141404Y0103418D01*
X0141450Y0103443D01*
X0141499Y0103464D01*
X0141549Y0103482D01*
X0141600Y0103495D01*
X0141652Y0103505D01*
X0141704Y0103511D01*
X0141757Y0103513D01*
X0141810Y0103511D01*
X0141862Y0103505D01*
X0141914Y0103495D01*
X0141965Y0103482D01*
X0142015Y0103464D01*
X0142064Y0103443D01*
X0142111Y0103418D01*
X0142155Y0103390D01*
X0142198Y0103359D01*
X0142238Y0103324D01*
X0142275Y0103287D01*
X0142310Y0103247D01*
X0142341Y0103204D01*
X0142369Y0103159D01*
X0142394Y0103113D01*
X0142415Y0103064D01*
X0142433Y0103014D01*
X0142446Y0102963D01*
X0142456Y0102911D01*
X0142462Y0102859D01*
X0142464Y0102806D01*
X0142462Y0102753D01*
X0142456Y0102701D01*
X0142446Y0102649D01*
X0142433Y0102598D01*
X0142415Y0102548D01*
X0142394Y0102499D01*
X0142369Y0102452D01*
X0142341Y0102408D01*
X0142310Y0102365D01*
X0142275Y0102325D01*
X0142238Y0102288D01*
X0142198Y0102253D01*
X0142155Y0102222D01*
X0142110Y0102194D01*
X0142064Y0102169D01*
X0142015Y0102148D01*
X0141965Y0102130D01*
X0141914Y0102117D01*
X0141862Y0102107D01*
X0141810Y0102101D01*
X0141757Y0102099D01*
X0141704Y0102101D01*
X0141652Y0102107D01*
X0141600Y0102117D01*
X0141549Y0102130D01*
X0141499Y0102148D01*
X0141450Y0102169D01*
X0141403Y0102194D01*
X0141359Y0102222D01*
X0141316Y0102253D01*
X0141276Y0102288D01*
X0141239Y0102325D01*
X0141204Y0102365D01*
X0141173Y0102408D01*
X0141145Y0102453D01*
X0141120Y0102499D01*
X0141099Y0102548D01*
X0141081Y0102598D01*
X0141068Y0102649D01*
X0141058Y0102701D01*
X0141052Y0102753D01*
X0141050Y0102806D01*
X0144618Y0076382D02*
X0144618Y0074414D01*
X0141547Y0074414D01*
X0141547Y0047248D01*
X0144618Y0047248D01*
X0144618Y0045280D01*
X0147807Y0045280D02*
X0147807Y0047248D01*
X0150996Y0047248D01*
X0150996Y0074414D01*
X0147807Y0074414D01*
X0147807Y0076382D01*
X0129196Y0074414D02*
X0129196Y0047248D01*
X0126007Y0047248D01*
X0126007Y0045280D01*
X0122818Y0045280D02*
X0122818Y0047248D01*
X0119747Y0047248D01*
X0119747Y0074414D01*
X0122818Y0074414D01*
X0122818Y0076382D01*
X0126007Y0076382D02*
X0126007Y0074414D01*
X0129196Y0074414D01*
X0107396Y0074414D02*
X0107396Y0047248D01*
X0104207Y0047248D01*
X0104207Y0045280D01*
X0101018Y0045280D02*
X0101018Y0047248D01*
X0097947Y0047248D01*
X0097947Y0074414D01*
X0101018Y0074414D01*
X0101018Y0076382D01*
X0104207Y0076382D02*
X0104207Y0074414D01*
X0107396Y0074414D01*
X0085596Y0074414D02*
X0085596Y0047248D01*
X0082407Y0047248D01*
X0082407Y0045280D01*
X0079218Y0045280D02*
X0079218Y0047248D01*
X0076147Y0047248D01*
X0076147Y0074414D01*
X0079218Y0074414D01*
X0079218Y0076382D01*
X0082407Y0076382D02*
X0082407Y0074414D01*
X0085596Y0074414D01*
X0180627Y0052806D02*
X0182595Y0052806D01*
X0182595Y0055995D01*
X0199918Y0055995D01*
X0199918Y0052806D01*
X0201886Y0052806D01*
X0201886Y0049617D02*
X0199918Y0049617D01*
X0199918Y0046546D01*
X0182595Y0046546D01*
X0182595Y0049617D01*
X0180627Y0049617D01*
X0210041Y0049617D02*
X0212010Y0049617D01*
X0212010Y0046546D01*
X0234254Y0046546D01*
X0234254Y0049617D01*
X0236222Y0049617D01*
X0236222Y0052806D02*
X0234254Y0052806D01*
X0234254Y0055995D01*
X0212010Y0055995D01*
X0212010Y0052806D01*
X0210041Y0052806D01*
X0236257Y0072806D02*
X0261257Y0072806D01*
X0261257Y0097806D01*
X0256257Y0097806D01*
X0261257Y0092806D01*
X0261257Y0097806D01*
X0236257Y0097806D01*
X0236257Y0072806D01*
X0246463Y0055995D02*
X0278550Y0055995D01*
X0278550Y0052806D01*
X0280518Y0052806D01*
X0280518Y0049617D02*
X0278550Y0049617D01*
X0278550Y0046546D01*
X0246463Y0046546D01*
X0246463Y0049617D01*
X0244495Y0049617D01*
X0244495Y0052806D02*
X0246463Y0052806D01*
X0246463Y0055995D01*
X0260914Y0093148D02*
X0261257Y0093148D01*
X0261257Y0093647D02*
X0260416Y0093647D01*
X0259917Y0094145D02*
X0261257Y0094145D01*
X0261257Y0094644D02*
X0259419Y0094644D01*
X0258920Y0095142D02*
X0261257Y0095142D01*
X0261257Y0095641D02*
X0258422Y0095641D01*
X0257923Y0096139D02*
X0261257Y0096139D01*
X0261257Y0096638D02*
X0257425Y0096638D01*
X0256926Y0097136D02*
X0261257Y0097136D01*
X0261257Y0097635D02*
X0256428Y0097635D01*
D16*
X0258599Y0095936D02*
X0258599Y0074676D01*
X0238914Y0074676D01*
X0238914Y0095936D01*
X0258599Y0095936D01*
X0258501Y0090523D02*
X0253186Y0095838D01*
X0246463Y0052806D02*
X0246463Y0049617D01*
X0234254Y0049617D02*
X0234254Y0052806D01*
X0212010Y0052806D02*
X0212010Y0049617D01*
X0199918Y0049617D02*
X0199918Y0052806D01*
X0182595Y0052806D02*
X0182595Y0049617D01*
X0147807Y0047248D02*
X0144618Y0047248D01*
X0126007Y0047248D02*
X0122818Y0047248D01*
X0104207Y0047248D02*
X0101018Y0047248D01*
X0082407Y0047248D02*
X0079218Y0047248D01*
X0079218Y0074414D02*
X0082407Y0074414D01*
X0101018Y0074414D02*
X0104207Y0074414D01*
X0122818Y0074414D02*
X0126007Y0074414D01*
X0144618Y0074414D02*
X0147807Y0074414D01*
X0147996Y0144323D02*
X0144807Y0144323D01*
X0125571Y0144323D02*
X0122382Y0144323D01*
X0103771Y0144323D02*
X0100582Y0144323D01*
X0081346Y0144323D02*
X0078157Y0144323D01*
X0078157Y0171489D02*
X0081346Y0171489D01*
X0100582Y0171489D02*
X0103771Y0171489D01*
X0122382Y0171489D02*
X0125571Y0171489D01*
X0144807Y0171489D02*
X0147996Y0171489D01*
X0201306Y0162245D02*
X0201306Y0159056D01*
X0213707Y0159056D02*
X0213707Y0162245D01*
X0225760Y0162245D02*
X0225760Y0159056D01*
X0248004Y0159056D02*
X0248004Y0162245D01*
X0260174Y0162245D02*
X0260174Y0159056D01*
X0287339Y0159056D02*
X0287339Y0162245D01*
X0278550Y0052806D02*
X0278550Y0049617D01*
D17*
X0287408Y0055681D02*
X0287408Y0058583D01*
X0292605Y0058681D02*
X0292605Y0055681D01*
X0299230Y0074281D02*
X0302033Y0074281D01*
X0302033Y0077632D02*
X0299230Y0077632D01*
X0259510Y0101856D02*
X0256655Y0101856D01*
X0254982Y0102249D02*
X0255049Y0102257D01*
X0255116Y0102269D01*
X0255182Y0102284D01*
X0255247Y0102303D01*
X0255310Y0102326D01*
X0255373Y0102353D01*
X0255433Y0102383D01*
X0255492Y0102416D01*
X0255549Y0102452D01*
X0255604Y0102492D01*
X0255656Y0102535D01*
X0255706Y0102581D01*
X0255753Y0102630D01*
X0255798Y0102681D01*
X0255839Y0102734D01*
X0255877Y0102790D01*
X0255912Y0102848D01*
X0255943Y0102908D01*
X0255972Y0102970D01*
X0255996Y0103033D01*
X0256017Y0103097D01*
X0256034Y0103163D01*
X0256048Y0103229D01*
X0256057Y0103296D01*
X0256063Y0103363D01*
X0256065Y0103431D01*
X0256063Y0103499D01*
X0256057Y0103566D01*
X0256048Y0103633D01*
X0256034Y0103699D01*
X0256017Y0103765D01*
X0255996Y0103829D01*
X0255972Y0103892D01*
X0255943Y0103954D01*
X0255912Y0104014D01*
X0255877Y0104072D01*
X0255839Y0104128D01*
X0255798Y0104181D01*
X0255753Y0104232D01*
X0255706Y0104281D01*
X0255656Y0104327D01*
X0255604Y0104370D01*
X0255549Y0104410D01*
X0255492Y0104446D01*
X0255433Y0104479D01*
X0255373Y0104509D01*
X0255310Y0104536D01*
X0255247Y0104559D01*
X0255182Y0104578D01*
X0255116Y0104593D01*
X0255049Y0104605D01*
X0254982Y0104613D01*
X0256754Y0105006D02*
X0259510Y0105006D01*
X0259510Y0109981D02*
X0256655Y0109981D01*
X0254982Y0110374D02*
X0255049Y0110382D01*
X0255116Y0110394D01*
X0255182Y0110409D01*
X0255247Y0110428D01*
X0255310Y0110451D01*
X0255373Y0110478D01*
X0255433Y0110508D01*
X0255492Y0110541D01*
X0255549Y0110577D01*
X0255604Y0110617D01*
X0255656Y0110660D01*
X0255706Y0110706D01*
X0255753Y0110755D01*
X0255798Y0110806D01*
X0255839Y0110859D01*
X0255877Y0110915D01*
X0255912Y0110973D01*
X0255943Y0111033D01*
X0255972Y0111095D01*
X0255996Y0111158D01*
X0256017Y0111222D01*
X0256034Y0111288D01*
X0256048Y0111354D01*
X0256057Y0111421D01*
X0256063Y0111488D01*
X0256065Y0111556D01*
X0256063Y0111624D01*
X0256057Y0111691D01*
X0256048Y0111758D01*
X0256034Y0111824D01*
X0256017Y0111890D01*
X0255996Y0111954D01*
X0255972Y0112017D01*
X0255943Y0112079D01*
X0255912Y0112139D01*
X0255877Y0112197D01*
X0255839Y0112253D01*
X0255798Y0112306D01*
X0255753Y0112357D01*
X0255706Y0112406D01*
X0255656Y0112452D01*
X0255604Y0112495D01*
X0255549Y0112535D01*
X0255492Y0112571D01*
X0255433Y0112604D01*
X0255373Y0112634D01*
X0255310Y0112661D01*
X0255247Y0112684D01*
X0255182Y0112703D01*
X0255116Y0112718D01*
X0255049Y0112730D01*
X0254982Y0112738D01*
X0256754Y0113131D02*
X0259510Y0113131D01*
X0180262Y0143062D02*
X0180262Y0165109D01*
X0168058Y0165109D01*
X0168058Y0143062D01*
X0180262Y0143062D01*
X0160744Y0102443D02*
X0160744Y0099640D01*
X0157394Y0099640D02*
X0157394Y0102443D01*
D18*
X0159074Y0103326D03*
X0159074Y0098726D03*
D19*
X0255632Y0120306D03*
X0260632Y0120306D03*
X0298132Y0067181D03*
X0303132Y0067181D03*
D20*
X0302916Y0075951D03*
X0298316Y0075951D03*
D21*
X0290011Y0060005D03*
X0290011Y0054305D03*
D22*
X0285400Y0072181D03*
X0285400Y0077181D03*
X0276257Y0077181D03*
X0276257Y0072181D03*
X0268132Y0072181D03*
X0268132Y0077181D03*
D23*
X0255080Y0102053D03*
X0255080Y0110178D03*
D24*
X0255868Y0110572D03*
X0255868Y0102447D03*
D25*
X0256015Y0101758D03*
X0256015Y0109883D03*
D26*
X0255376Y0112934D03*
X0255376Y0104809D03*
D27*
X0256311Y0103431D03*
X0256311Y0111556D03*
D28*
X0260494Y0110178D03*
X0260494Y0112934D03*
X0260494Y0104809D03*
X0260494Y0102053D03*
D29*
X0259952Y0103431D03*
X0259952Y0111556D03*
D30*
X0260494Y0110670D03*
X0260494Y0112442D03*
X0260494Y0104317D03*
X0260494Y0102545D03*
D31*
X0257639Y0103431D03*
X0257639Y0111556D03*
D32*
X0196958Y0115969D02*
X0196608Y0115619D01*
X0196958Y0115969D02*
X0196958Y0116669D01*
X0196608Y0117020D01*
X0196257Y0117020D01*
X0195907Y0116669D01*
X0195907Y0115969D01*
X0195557Y0115619D01*
X0195206Y0115619D01*
X0194856Y0115969D01*
X0194856Y0116669D01*
X0195206Y0117020D01*
X0194856Y0117828D02*
X0196958Y0117828D01*
X0196257Y0118529D01*
X0196958Y0119230D01*
X0194856Y0119230D01*
X0195557Y0120038D02*
X0194856Y0120739D01*
X0196958Y0120739D01*
X0196958Y0121439D02*
X0196958Y0120038D01*
D33*
X0237930Y0098397D02*
X0259583Y0098397D01*
X0259583Y0072216D01*
X0237930Y0072216D01*
X0237930Y0098397D01*
D34*
X0238914Y0090719D02*
X0258599Y0090719D01*
X0258599Y0079893D01*
X0238914Y0079893D01*
X0238914Y0090719D01*
D35*
X0238127Y0074184D02*
X0238129Y0074228D01*
X0238135Y0074272D01*
X0238145Y0074315D01*
X0238158Y0074357D01*
X0238176Y0074397D01*
X0238197Y0074436D01*
X0238221Y0074473D01*
X0238248Y0074508D01*
X0238279Y0074540D01*
X0238312Y0074569D01*
X0238348Y0074595D01*
X0238386Y0074617D01*
X0238426Y0074636D01*
X0238467Y0074652D01*
X0238510Y0074664D01*
X0238553Y0074672D01*
X0238597Y0074676D01*
X0238641Y0074676D01*
X0238685Y0074672D01*
X0238728Y0074664D01*
X0238771Y0074652D01*
X0238812Y0074636D01*
X0238852Y0074617D01*
X0238890Y0074595D01*
X0238926Y0074569D01*
X0238959Y0074540D01*
X0238990Y0074508D01*
X0239017Y0074473D01*
X0239041Y0074436D01*
X0239062Y0074397D01*
X0239080Y0074357D01*
X0239093Y0074315D01*
X0239103Y0074272D01*
X0239109Y0074228D01*
X0239111Y0074184D01*
X0239109Y0074140D01*
X0239103Y0074096D01*
X0239093Y0074053D01*
X0239080Y0074011D01*
X0239062Y0073971D01*
X0239041Y0073932D01*
X0239017Y0073895D01*
X0238990Y0073860D01*
X0238959Y0073828D01*
X0238926Y0073799D01*
X0238890Y0073773D01*
X0238852Y0073751D01*
X0238812Y0073732D01*
X0238771Y0073716D01*
X0238728Y0073704D01*
X0238685Y0073696D01*
X0238641Y0073692D01*
X0238597Y0073692D01*
X0238553Y0073696D01*
X0238510Y0073704D01*
X0238467Y0073716D01*
X0238426Y0073732D01*
X0238386Y0073751D01*
X0238348Y0073773D01*
X0238312Y0073799D01*
X0238279Y0073828D01*
X0238248Y0073860D01*
X0238221Y0073895D01*
X0238197Y0073932D01*
X0238176Y0073971D01*
X0238158Y0074011D01*
X0238145Y0074053D01*
X0238135Y0074096D01*
X0238129Y0074140D01*
X0238127Y0074184D01*
D36*
X0174160Y0142570D03*
X0174160Y0165601D03*
D37*
X0174160Y0145424D03*
M02*
