G75*
%MOIN*%
%OFA0B0*%
%FSLAX25Y25*%
%IPPOS*%
%LPD*%
%AMOC8*
5,1,8,0,0,1.08239X$1,22.5*
%
%ADD10C,0.00800*%
%ADD11C,0.00200*%
%ADD12C,0.00500*%
%ADD13C,0.00300*%
%ADD14C,0.03200*%
%ADD15C,0.00600*%
%ADD16R,0.01600X0.03400*%
%ADD17C,0.00197*%
%ADD18C,0.00394*%
%ADD19C,0.00787*%
%ADD20C,0.00984*%
%ADD21R,0.12600X0.07300*%
%ADD22R,0.03400X0.07300*%
D10*
X0060883Y0062447D02*
X0059481Y0063849D01*
X0060883Y0065250D01*
X0063685Y0065250D01*
X0062984Y0067051D02*
X0063685Y0067752D01*
X0063685Y0069153D01*
X0062984Y0069854D01*
X0062284Y0069854D01*
X0061583Y0069153D01*
X0060883Y0069854D01*
X0060182Y0069854D01*
X0059481Y0069153D01*
X0059481Y0067752D01*
X0060182Y0067051D01*
X0061583Y0068453D02*
X0061583Y0069153D01*
X0060182Y0071655D02*
X0060182Y0072356D01*
X0059481Y0072356D01*
X0059481Y0071655D01*
X0060182Y0071655D01*
X0060182Y0073957D02*
X0062984Y0076760D01*
X0060182Y0076760D01*
X0059481Y0076059D01*
X0059481Y0074658D01*
X0060182Y0073957D01*
X0062984Y0073957D01*
X0063685Y0074658D01*
X0063685Y0076059D01*
X0062984Y0076760D01*
X0066981Y0081247D02*
X0071185Y0081247D01*
X0069784Y0082648D01*
X0071185Y0084049D01*
X0066981Y0084049D01*
X0066981Y0085851D02*
X0069784Y0085851D01*
X0071185Y0087252D01*
X0069784Y0088653D01*
X0066981Y0088653D01*
X0067682Y0090455D02*
X0066981Y0091155D01*
X0066981Y0092557D01*
X0067682Y0093257D01*
X0068383Y0093257D01*
X0069083Y0092557D01*
X0069083Y0091155D01*
X0069784Y0090455D01*
X0070484Y0090455D01*
X0071185Y0091155D01*
X0071185Y0092557D01*
X0070484Y0093257D01*
X0071185Y0095059D02*
X0071185Y0097861D01*
X0071185Y0096460D02*
X0066981Y0096460D01*
X0063685Y0098378D02*
X0062284Y0099779D01*
X0059481Y0099779D01*
X0059481Y0101581D02*
X0059481Y0103683D01*
X0060182Y0104383D01*
X0060883Y0104383D01*
X0061583Y0103683D01*
X0061583Y0101581D01*
X0061583Y0099779D02*
X0061583Y0096977D01*
X0062284Y0096977D02*
X0063685Y0098378D01*
X0062284Y0096977D02*
X0059481Y0096977D01*
X0059481Y0095175D02*
X0059481Y0092373D01*
X0063685Y0092373D01*
X0069083Y0088653D02*
X0069083Y0085851D01*
X0061583Y0085968D02*
X0061583Y0083165D01*
X0066981Y0099663D02*
X0066981Y0102465D01*
X0066981Y0104266D02*
X0071185Y0104266D01*
X0071185Y0106368D01*
X0070484Y0107069D01*
X0069083Y0107069D01*
X0068383Y0106368D01*
X0068383Y0104266D01*
X0068383Y0105668D02*
X0066981Y0107069D01*
X0063685Y0106185D02*
X0063685Y0108287D01*
X0062984Y0108987D01*
X0061583Y0108987D01*
X0060883Y0108287D01*
X0060883Y0106185D01*
X0060883Y0107586D02*
X0059481Y0108987D01*
X0060182Y0110789D02*
X0059481Y0111489D01*
X0059481Y0112890D01*
X0060182Y0113591D01*
X0062984Y0113591D01*
X0063685Y0112890D01*
X0063685Y0111489D01*
X0062984Y0110789D01*
X0060182Y0110789D01*
X0059481Y0115393D02*
X0059481Y0117494D01*
X0060182Y0118195D01*
X0060883Y0118195D01*
X0061583Y0117494D01*
X0061583Y0115393D01*
X0061583Y0117494D02*
X0062284Y0118195D01*
X0062984Y0118195D01*
X0063685Y0117494D01*
X0063685Y0115393D01*
X0059481Y0115393D01*
X0066981Y0115576D02*
X0066981Y0113474D01*
X0071185Y0113474D01*
X0071185Y0115576D01*
X0070484Y0116277D01*
X0069784Y0116277D01*
X0069083Y0115576D01*
X0069083Y0113474D01*
X0069083Y0115576D02*
X0068383Y0116277D01*
X0067682Y0116277D01*
X0066981Y0115576D01*
X0067682Y0118078D02*
X0066981Y0118779D01*
X0066981Y0120180D01*
X0067682Y0120881D01*
X0070484Y0120881D01*
X0071185Y0120180D01*
X0071185Y0118779D01*
X0070484Y0118078D01*
X0067682Y0118078D01*
X0066981Y0122682D02*
X0069784Y0122682D01*
X0071185Y0124083D01*
X0069784Y0125485D01*
X0066981Y0125485D01*
X0066981Y0127286D02*
X0071185Y0127286D01*
X0071185Y0129388D01*
X0070484Y0130088D01*
X0069083Y0130088D01*
X0068383Y0129388D01*
X0068383Y0127286D01*
X0068383Y0128687D02*
X0066981Y0130088D01*
X0066981Y0131890D02*
X0066981Y0133992D01*
X0067682Y0134692D01*
X0070484Y0134692D01*
X0071185Y0133992D01*
X0071185Y0131890D01*
X0066981Y0131890D01*
X0063685Y0132007D02*
X0060182Y0132007D01*
X0059481Y0131306D01*
X0059481Y0129905D01*
X0060182Y0129204D01*
X0063685Y0129204D01*
X0062984Y0127403D02*
X0061583Y0127403D01*
X0060883Y0126702D01*
X0060883Y0124600D01*
X0059481Y0124600D02*
X0063685Y0124600D01*
X0063685Y0126702D01*
X0062984Y0127403D01*
X0069083Y0125485D02*
X0069083Y0122682D01*
X0062984Y0133808D02*
X0060182Y0133808D01*
X0059481Y0134509D01*
X0059481Y0135910D01*
X0060182Y0136611D01*
X0061583Y0138412D02*
X0061583Y0141215D01*
X0060883Y0143016D02*
X0060883Y0145118D01*
X0061583Y0145819D01*
X0062984Y0145819D01*
X0063685Y0145118D01*
X0063685Y0143016D01*
X0059481Y0143016D01*
X0060883Y0144417D02*
X0059481Y0145819D01*
X0059481Y0147620D02*
X0059481Y0149021D01*
X0059481Y0148321D02*
X0063685Y0148321D01*
X0063685Y0149021D02*
X0063685Y0147620D01*
X0062984Y0150689D02*
X0060182Y0150689D01*
X0059481Y0151390D01*
X0059481Y0152791D01*
X0060182Y0153492D01*
X0062984Y0153492D01*
X0063685Y0152791D01*
X0063685Y0151390D01*
X0062984Y0150689D01*
X0062984Y0136611D02*
X0063685Y0135910D01*
X0063685Y0134509D01*
X0062984Y0133808D01*
X0063685Y0106185D02*
X0059481Y0106185D01*
X0061583Y0103683D02*
X0062284Y0104383D01*
X0062984Y0104383D01*
X0063685Y0103683D01*
X0063685Y0101581D01*
X0059481Y0101581D01*
X0066981Y0099663D02*
X0071185Y0099663D01*
X0071185Y0102465D01*
X0069083Y0101064D02*
X0069083Y0099663D01*
X0063685Y0062447D02*
X0060883Y0062447D01*
X0170860Y0150565D02*
X0196663Y0150565D01*
X0196663Y0164565D01*
X0170860Y0164565D01*
X0170860Y0150565D01*
D11*
X0198274Y0154240D02*
X0200476Y0154240D01*
X0200476Y0155341D01*
X0200109Y0155708D01*
X0199375Y0155708D01*
X0199008Y0155341D01*
X0199008Y0154240D01*
X0199008Y0154974D02*
X0198274Y0155708D01*
X0198274Y0156450D02*
X0198274Y0157918D01*
X0198641Y0158660D02*
X0198274Y0159027D01*
X0198274Y0159760D01*
X0198641Y0160127D01*
X0199375Y0160127D01*
X0199375Y0159393D01*
X0200109Y0158660D02*
X0198641Y0158660D01*
X0200109Y0158660D02*
X0200476Y0159027D01*
X0200476Y0159760D01*
X0200109Y0160127D01*
X0199742Y0160869D02*
X0200476Y0161603D01*
X0198274Y0161603D01*
X0198274Y0160869D02*
X0198274Y0162337D01*
X0200476Y0157918D02*
X0200476Y0156450D01*
X0198274Y0156450D01*
X0199375Y0156450D02*
X0199375Y0157184D01*
X0204747Y0163138D02*
X0204228Y0163657D01*
X0204228Y0164176D01*
X0204747Y0164695D01*
X0205266Y0164176D01*
X0205266Y0163138D02*
X0204747Y0163138D01*
X0205266Y0163138D02*
X0206304Y0164176D01*
X0206304Y0164695D01*
X0205785Y0165214D01*
X0205266Y0165214D01*
X0205001Y0165998D02*
X0203444Y0164441D01*
X0202406Y0165479D02*
X0203963Y0167036D01*
X0203438Y0167561D02*
X0201881Y0166004D01*
X0201103Y0166782D01*
X0201103Y0167301D01*
X0202141Y0168339D01*
X0202660Y0168339D01*
X0203438Y0167561D01*
X0205001Y0165998D02*
X0202406Y0165479D01*
X0206364Y0166521D02*
X0207143Y0167299D01*
X0207662Y0167299D01*
X0208440Y0166521D01*
X0207402Y0165483D01*
X0207925Y0164960D02*
X0208444Y0164441D01*
X0208184Y0164701D02*
X0209222Y0165739D01*
X0209482Y0165479D01*
X0209741Y0166258D02*
X0210001Y0166517D01*
X0210526Y0165474D02*
X0209488Y0164436D01*
X0209488Y0163398D01*
X0210526Y0163398D01*
X0211564Y0164436D01*
X0225478Y0166851D02*
X0225478Y0167370D01*
X0226516Y0168408D01*
X0227035Y0168408D01*
X0227813Y0167630D01*
X0226256Y0166073D01*
X0225478Y0166851D01*
X0226781Y0165548D02*
X0228338Y0167105D01*
X0229376Y0166067D02*
X0226781Y0165548D01*
X0227819Y0164510D02*
X0229376Y0166067D01*
X0229641Y0165283D02*
X0230160Y0165283D01*
X0230679Y0164764D01*
X0230679Y0164245D01*
X0229641Y0163207D01*
X0229122Y0163207D01*
X0228603Y0163726D01*
X0228603Y0164245D01*
X0229122Y0164764D01*
X0229641Y0164245D01*
X0231256Y0166073D02*
X0232294Y0167111D01*
X0232294Y0168149D01*
X0231256Y0168149D01*
X0230218Y0167111D01*
X0230997Y0167889D02*
X0232035Y0166851D01*
X0232040Y0165808D02*
X0233078Y0166846D01*
X0233597Y0166846D01*
X0234376Y0166067D01*
X0232819Y0164510D01*
X0232040Y0165289D01*
X0232040Y0165808D01*
X0233603Y0164245D02*
X0233603Y0163726D01*
X0234122Y0163207D01*
X0234641Y0163207D01*
X0234901Y0163985D02*
X0234382Y0164504D01*
X0233863Y0164504D01*
X0233603Y0164245D01*
X0234901Y0163985D02*
X0235420Y0163985D01*
X0235679Y0164245D01*
X0235679Y0164764D01*
X0235160Y0165283D01*
X0234641Y0165283D01*
X0236256Y0166073D02*
X0235218Y0167111D01*
X0236256Y0166073D02*
X0237813Y0167630D01*
X0238078Y0166846D02*
X0238597Y0166846D01*
X0239116Y0166327D01*
X0239116Y0165808D01*
X0238078Y0164770D01*
X0237559Y0164770D01*
X0237040Y0165289D01*
X0237040Y0165808D01*
X0238603Y0164245D02*
X0238603Y0163726D01*
X0239122Y0163207D01*
X0239641Y0163207D01*
X0239901Y0163985D02*
X0239382Y0164504D01*
X0238863Y0164504D01*
X0238603Y0164245D01*
X0239901Y0163985D02*
X0240420Y0163985D01*
X0240679Y0164245D01*
X0240679Y0164764D01*
X0240160Y0165283D01*
X0239641Y0165283D01*
X0241259Y0166070D02*
X0241778Y0165551D01*
X0242297Y0165551D01*
X0242819Y0165029D02*
X0242559Y0164770D01*
X0242819Y0164510D01*
X0243078Y0164770D01*
X0242819Y0165029D01*
X0243603Y0164245D02*
X0243603Y0163726D01*
X0244122Y0163207D01*
X0244641Y0163207D01*
X0244641Y0164245D02*
X0244382Y0164504D01*
X0243863Y0164504D01*
X0243603Y0164245D01*
X0244382Y0164504D02*
X0244382Y0165023D01*
X0244641Y0165283D01*
X0245160Y0165283D01*
X0245679Y0164764D01*
X0245679Y0164245D01*
X0243335Y0166589D02*
X0243335Y0167108D01*
X0242816Y0167627D01*
X0242297Y0167627D01*
X0242038Y0167367D01*
X0242038Y0166848D01*
X0241519Y0166848D01*
X0241259Y0166589D01*
X0241259Y0166070D01*
X0242038Y0166848D02*
X0242297Y0166589D01*
X0240994Y0167373D02*
X0239956Y0167373D01*
X0239956Y0168411D01*
X0240994Y0169449D01*
X0242032Y0168411D02*
X0240994Y0167373D01*
X0259853Y0167370D02*
X0259853Y0166851D01*
X0260631Y0166073D01*
X0262188Y0167630D01*
X0261410Y0168408D01*
X0260891Y0168408D01*
X0259853Y0167370D01*
X0261156Y0165548D02*
X0262713Y0167105D01*
X0263751Y0166067D02*
X0261156Y0165548D01*
X0262194Y0164510D02*
X0263751Y0166067D01*
X0264016Y0165283D02*
X0264535Y0165283D01*
X0265054Y0164764D01*
X0265054Y0164245D01*
X0264016Y0163207D01*
X0263497Y0163207D01*
X0262978Y0163726D01*
X0262978Y0164245D01*
X0263497Y0164764D01*
X0264016Y0164245D01*
X0265112Y0166592D02*
X0266669Y0168149D01*
X0267188Y0167630D02*
X0266150Y0168668D01*
X0267453Y0166846D02*
X0267972Y0166846D01*
X0268491Y0166327D01*
X0268491Y0165808D01*
X0268232Y0165548D01*
X0267713Y0165548D01*
X0267194Y0166067D01*
X0266675Y0166067D01*
X0266415Y0165808D01*
X0266415Y0165289D01*
X0266934Y0164770D01*
X0267453Y0164770D01*
X0267719Y0163985D02*
X0268757Y0163985D01*
X0268497Y0164245D02*
X0269276Y0163466D01*
X0268757Y0162948D02*
X0270314Y0164504D01*
X0269535Y0165283D01*
X0269016Y0165283D01*
X0268497Y0164764D01*
X0268497Y0164245D01*
X0271415Y0165289D02*
X0271934Y0164770D01*
X0272453Y0164770D01*
X0272453Y0166846D01*
X0271415Y0165808D01*
X0271415Y0165289D01*
X0272453Y0164770D02*
X0273491Y0165808D01*
X0273491Y0166327D01*
X0272972Y0166846D01*
X0272453Y0166846D01*
X0274016Y0165283D02*
X0274535Y0165283D01*
X0275054Y0164764D01*
X0275054Y0164245D01*
X0274016Y0163207D01*
X0273497Y0163207D01*
X0272978Y0163726D01*
X0272978Y0164245D01*
X0273497Y0164764D01*
X0274016Y0164245D01*
X0276156Y0165548D02*
X0278751Y0166067D01*
X0279016Y0165283D02*
X0278497Y0164764D01*
X0278497Y0164245D01*
X0279276Y0163466D01*
X0278757Y0162948D02*
X0280314Y0164504D01*
X0279535Y0165283D01*
X0279016Y0165283D01*
X0278757Y0163985D02*
X0277719Y0163985D01*
X0277194Y0164510D02*
X0277713Y0167105D01*
X0281156Y0165548D02*
X0283751Y0166067D01*
X0284276Y0165542D02*
X0285314Y0164504D01*
X0284795Y0165023D02*
X0283238Y0163466D01*
X0282194Y0164510D02*
X0282713Y0167105D01*
X0294820Y0155931D02*
X0302694Y0155931D01*
X0296788Y0155931D02*
X0296790Y0156019D01*
X0296796Y0156107D01*
X0296806Y0156195D01*
X0296820Y0156283D01*
X0296837Y0156369D01*
X0296859Y0156455D01*
X0296884Y0156539D01*
X0296914Y0156623D01*
X0296946Y0156705D01*
X0296983Y0156785D01*
X0297023Y0156864D01*
X0297067Y0156941D01*
X0297114Y0157016D01*
X0297164Y0157088D01*
X0297218Y0157159D01*
X0297274Y0157226D01*
X0297334Y0157292D01*
X0297396Y0157354D01*
X0297462Y0157414D01*
X0297529Y0157470D01*
X0297600Y0157524D01*
X0297672Y0157574D01*
X0297747Y0157621D01*
X0297824Y0157665D01*
X0297903Y0157705D01*
X0297983Y0157742D01*
X0298065Y0157774D01*
X0298149Y0157804D01*
X0298233Y0157829D01*
X0298319Y0157851D01*
X0298405Y0157868D01*
X0298493Y0157882D01*
X0298581Y0157892D01*
X0298669Y0157898D01*
X0298757Y0157900D01*
X0298845Y0157898D01*
X0298933Y0157892D01*
X0299021Y0157882D01*
X0299109Y0157868D01*
X0299195Y0157851D01*
X0299281Y0157829D01*
X0299365Y0157804D01*
X0299449Y0157774D01*
X0299531Y0157742D01*
X0299611Y0157705D01*
X0299690Y0157665D01*
X0299767Y0157621D01*
X0299842Y0157574D01*
X0299914Y0157524D01*
X0299985Y0157470D01*
X0300052Y0157414D01*
X0300118Y0157354D01*
X0300180Y0157292D01*
X0300240Y0157226D01*
X0300296Y0157159D01*
X0300350Y0157088D01*
X0300400Y0157016D01*
X0300447Y0156941D01*
X0300491Y0156864D01*
X0300531Y0156785D01*
X0300568Y0156705D01*
X0300600Y0156623D01*
X0300630Y0156539D01*
X0300655Y0156455D01*
X0300677Y0156369D01*
X0300694Y0156283D01*
X0300708Y0156195D01*
X0300718Y0156107D01*
X0300724Y0156019D01*
X0300726Y0155931D01*
X0300724Y0155843D01*
X0300718Y0155755D01*
X0300708Y0155667D01*
X0300694Y0155579D01*
X0300677Y0155493D01*
X0300655Y0155407D01*
X0300630Y0155323D01*
X0300600Y0155239D01*
X0300568Y0155157D01*
X0300531Y0155077D01*
X0300491Y0154998D01*
X0300447Y0154921D01*
X0300400Y0154846D01*
X0300350Y0154774D01*
X0300296Y0154703D01*
X0300240Y0154636D01*
X0300180Y0154570D01*
X0300118Y0154508D01*
X0300052Y0154448D01*
X0299985Y0154392D01*
X0299914Y0154338D01*
X0299842Y0154288D01*
X0299767Y0154241D01*
X0299690Y0154197D01*
X0299611Y0154157D01*
X0299531Y0154120D01*
X0299449Y0154088D01*
X0299365Y0154058D01*
X0299281Y0154033D01*
X0299195Y0154011D01*
X0299109Y0153994D01*
X0299021Y0153980D01*
X0298933Y0153970D01*
X0298845Y0153964D01*
X0298757Y0153962D01*
X0298669Y0153964D01*
X0298581Y0153970D01*
X0298493Y0153980D01*
X0298405Y0153994D01*
X0298319Y0154011D01*
X0298233Y0154033D01*
X0298149Y0154058D01*
X0298065Y0154088D01*
X0297983Y0154120D01*
X0297903Y0154157D01*
X0297824Y0154197D01*
X0297747Y0154241D01*
X0297672Y0154288D01*
X0297600Y0154338D01*
X0297529Y0154392D01*
X0297462Y0154448D01*
X0297396Y0154508D01*
X0297334Y0154570D01*
X0297274Y0154636D01*
X0297218Y0154703D01*
X0297164Y0154774D01*
X0297114Y0154846D01*
X0297067Y0154921D01*
X0297023Y0154998D01*
X0296983Y0155077D01*
X0296946Y0155157D01*
X0296914Y0155239D01*
X0296884Y0155323D01*
X0296859Y0155407D01*
X0296837Y0155493D01*
X0296820Y0155579D01*
X0296806Y0155667D01*
X0296796Y0155755D01*
X0296790Y0155843D01*
X0296788Y0155931D01*
X0294820Y0155931D02*
X0294822Y0156056D01*
X0294828Y0156181D01*
X0294838Y0156305D01*
X0294852Y0156429D01*
X0294869Y0156553D01*
X0294891Y0156676D01*
X0294917Y0156798D01*
X0294946Y0156920D01*
X0294979Y0157040D01*
X0295017Y0157159D01*
X0295057Y0157278D01*
X0295102Y0157394D01*
X0295150Y0157509D01*
X0295202Y0157623D01*
X0295258Y0157735D01*
X0295317Y0157845D01*
X0295379Y0157953D01*
X0295445Y0158060D01*
X0295514Y0158164D01*
X0295587Y0158265D01*
X0295662Y0158365D01*
X0295741Y0158462D01*
X0295823Y0158556D01*
X0295908Y0158648D01*
X0295995Y0158737D01*
X0296086Y0158823D01*
X0296179Y0158906D01*
X0296275Y0158987D01*
X0296373Y0159064D01*
X0296473Y0159138D01*
X0296576Y0159209D01*
X0296681Y0159276D01*
X0296789Y0159341D01*
X0296898Y0159401D01*
X0297009Y0159459D01*
X0297122Y0159512D01*
X0297236Y0159562D01*
X0297352Y0159609D01*
X0297469Y0159651D01*
X0297588Y0159690D01*
X0297708Y0159726D01*
X0297829Y0159757D01*
X0297951Y0159785D01*
X0298073Y0159808D01*
X0298197Y0159828D01*
X0298321Y0159844D01*
X0298445Y0159856D01*
X0298570Y0159864D01*
X0298695Y0159868D01*
X0298819Y0159868D01*
X0298944Y0159864D01*
X0299069Y0159856D01*
X0299193Y0159844D01*
X0299317Y0159828D01*
X0299441Y0159808D01*
X0299563Y0159785D01*
X0299685Y0159757D01*
X0299806Y0159726D01*
X0299926Y0159690D01*
X0300045Y0159651D01*
X0300162Y0159609D01*
X0300278Y0159562D01*
X0300392Y0159512D01*
X0300505Y0159459D01*
X0300616Y0159401D01*
X0300726Y0159341D01*
X0300833Y0159276D01*
X0300938Y0159209D01*
X0301041Y0159138D01*
X0301141Y0159064D01*
X0301239Y0158987D01*
X0301335Y0158906D01*
X0301428Y0158823D01*
X0301519Y0158737D01*
X0301606Y0158648D01*
X0301691Y0158556D01*
X0301773Y0158462D01*
X0301852Y0158365D01*
X0301927Y0158265D01*
X0302000Y0158164D01*
X0302069Y0158060D01*
X0302135Y0157953D01*
X0302197Y0157845D01*
X0302256Y0157735D01*
X0302312Y0157623D01*
X0302364Y0157509D01*
X0302412Y0157394D01*
X0302457Y0157278D01*
X0302497Y0157159D01*
X0302535Y0157040D01*
X0302568Y0156920D01*
X0302597Y0156798D01*
X0302623Y0156676D01*
X0302645Y0156553D01*
X0302662Y0156429D01*
X0302676Y0156305D01*
X0302686Y0156181D01*
X0302692Y0156056D01*
X0302694Y0155931D01*
X0302692Y0155806D01*
X0302686Y0155681D01*
X0302676Y0155557D01*
X0302662Y0155433D01*
X0302645Y0155309D01*
X0302623Y0155186D01*
X0302597Y0155064D01*
X0302568Y0154942D01*
X0302535Y0154822D01*
X0302497Y0154703D01*
X0302457Y0154584D01*
X0302412Y0154468D01*
X0302364Y0154353D01*
X0302312Y0154239D01*
X0302256Y0154127D01*
X0302197Y0154017D01*
X0302135Y0153909D01*
X0302069Y0153802D01*
X0302000Y0153698D01*
X0301927Y0153597D01*
X0301852Y0153497D01*
X0301773Y0153400D01*
X0301691Y0153306D01*
X0301606Y0153214D01*
X0301519Y0153125D01*
X0301428Y0153039D01*
X0301335Y0152956D01*
X0301239Y0152875D01*
X0301141Y0152798D01*
X0301041Y0152724D01*
X0300938Y0152653D01*
X0300833Y0152586D01*
X0300725Y0152521D01*
X0300616Y0152461D01*
X0300505Y0152403D01*
X0300392Y0152350D01*
X0300278Y0152300D01*
X0300162Y0152253D01*
X0300045Y0152211D01*
X0299926Y0152172D01*
X0299806Y0152136D01*
X0299685Y0152105D01*
X0299563Y0152077D01*
X0299441Y0152054D01*
X0299317Y0152034D01*
X0299193Y0152018D01*
X0299069Y0152006D01*
X0298944Y0151998D01*
X0298819Y0151994D01*
X0298695Y0151994D01*
X0298570Y0151998D01*
X0298445Y0152006D01*
X0298321Y0152018D01*
X0298197Y0152034D01*
X0298073Y0152054D01*
X0297951Y0152077D01*
X0297829Y0152105D01*
X0297708Y0152136D01*
X0297588Y0152172D01*
X0297469Y0152211D01*
X0297352Y0152253D01*
X0297236Y0152300D01*
X0297122Y0152350D01*
X0297009Y0152403D01*
X0296898Y0152461D01*
X0296788Y0152521D01*
X0296681Y0152586D01*
X0296576Y0152653D01*
X0296473Y0152724D01*
X0296373Y0152798D01*
X0296275Y0152875D01*
X0296179Y0152956D01*
X0296086Y0153039D01*
X0295995Y0153125D01*
X0295908Y0153214D01*
X0295823Y0153306D01*
X0295741Y0153400D01*
X0295662Y0153497D01*
X0295587Y0153597D01*
X0295514Y0153698D01*
X0295445Y0153802D01*
X0295379Y0153909D01*
X0295317Y0154017D01*
X0295258Y0154127D01*
X0295202Y0154239D01*
X0295150Y0154353D01*
X0295102Y0154468D01*
X0295057Y0154584D01*
X0295017Y0154703D01*
X0294979Y0154822D01*
X0294946Y0154942D01*
X0294917Y0155064D01*
X0294891Y0155186D01*
X0294869Y0155309D01*
X0294852Y0155433D01*
X0294838Y0155557D01*
X0294828Y0155681D01*
X0294822Y0155806D01*
X0294820Y0155931D01*
X0298757Y0159868D02*
X0298757Y0151994D01*
X0217462Y0084842D02*
X0216361Y0084842D01*
X0215994Y0084475D01*
X0215994Y0083741D01*
X0216361Y0083374D01*
X0217462Y0083374D01*
X0217462Y0082640D02*
X0217462Y0084842D01*
X0216728Y0083374D02*
X0215994Y0082640D01*
X0215252Y0082640D02*
X0213784Y0084108D01*
X0213784Y0084475D01*
X0214151Y0084842D01*
X0214885Y0084842D01*
X0215252Y0084475D01*
X0215252Y0082640D02*
X0213784Y0082640D01*
X0213042Y0082640D02*
X0211574Y0082640D01*
X0212308Y0082640D02*
X0212308Y0084842D01*
X0213042Y0084108D01*
X0212772Y0074189D02*
X0212038Y0074189D01*
X0211671Y0073822D01*
X0213139Y0072355D01*
X0212772Y0071988D01*
X0212038Y0071988D01*
X0211671Y0072355D01*
X0211671Y0073822D01*
X0212772Y0074189D02*
X0213139Y0073822D01*
X0213139Y0072355D01*
X0213881Y0071988D02*
X0215349Y0071988D01*
X0213881Y0073455D01*
X0213881Y0073822D01*
X0214248Y0074189D01*
X0214982Y0074189D01*
X0215349Y0073822D01*
X0216091Y0073822D02*
X0216091Y0073088D01*
X0216457Y0072721D01*
X0217558Y0072721D01*
X0217558Y0071988D02*
X0217558Y0074189D01*
X0216457Y0074189D01*
X0216091Y0073822D01*
X0216824Y0072721D02*
X0216091Y0071988D01*
X0217815Y0066378D02*
X0216258Y0064821D01*
X0216777Y0064302D02*
X0215739Y0065340D01*
X0214896Y0064297D02*
X0213858Y0065335D01*
X0214377Y0064816D02*
X0212820Y0063259D01*
X0212244Y0061949D02*
X0211206Y0060911D01*
X0211206Y0059873D01*
X0212244Y0059873D01*
X0213282Y0060911D01*
X0213547Y0060127D02*
X0213288Y0059867D01*
X0213288Y0059348D01*
X0212769Y0059348D01*
X0212509Y0059089D01*
X0212509Y0058570D01*
X0213028Y0058051D01*
X0213547Y0058051D01*
X0214069Y0057529D02*
X0213809Y0057270D01*
X0214069Y0057010D01*
X0214328Y0057270D01*
X0214069Y0057529D01*
X0214853Y0056745D02*
X0214853Y0056226D01*
X0215372Y0055707D01*
X0215891Y0055707D01*
X0215891Y0056745D02*
X0215632Y0057004D01*
X0215113Y0057004D01*
X0214853Y0056745D01*
X0215632Y0057004D02*
X0215632Y0057523D01*
X0215891Y0057783D01*
X0216410Y0057783D01*
X0216929Y0057264D01*
X0216929Y0056745D01*
X0217768Y0058311D02*
X0218287Y0058311D01*
X0217768Y0058311D02*
X0217249Y0058830D01*
X0217249Y0059349D01*
X0217508Y0059609D01*
X0218027Y0059609D01*
X0218287Y0059349D01*
X0218027Y0059609D02*
X0218027Y0060128D01*
X0218287Y0060387D01*
X0218806Y0060387D01*
X0219325Y0059868D01*
X0219325Y0059349D01*
X0219849Y0058825D02*
X0218811Y0057787D01*
X0218811Y0057268D01*
X0219330Y0056749D01*
X0219849Y0056749D01*
X0220887Y0057787D01*
X0220887Y0058306D01*
X0220368Y0058825D01*
X0219849Y0058825D01*
X0221465Y0059614D02*
X0221984Y0062209D01*
X0221459Y0062734D02*
X0220680Y0063513D01*
X0220161Y0063513D01*
X0219642Y0062994D01*
X0219642Y0062475D01*
X0220421Y0061696D01*
X0219902Y0061177D02*
X0221459Y0062734D01*
X0219902Y0062215D02*
X0218864Y0062215D01*
X0218339Y0062740D02*
X0218858Y0065335D01*
X0217815Y0065340D02*
X0217815Y0066378D01*
X0217301Y0063778D02*
X0219896Y0064297D01*
X0217243Y0061950D02*
X0217762Y0061431D01*
X0217762Y0060912D01*
X0217243Y0061950D02*
X0216724Y0061950D01*
X0216465Y0061690D01*
X0216465Y0059614D01*
X0215427Y0060652D01*
X0214902Y0061177D02*
X0215421Y0063772D01*
X0213334Y0065859D02*
X0210739Y0065340D01*
X0210214Y0065865D02*
X0209176Y0066903D01*
X0209695Y0066384D02*
X0211252Y0067941D01*
X0211252Y0066903D01*
X0212296Y0066897D02*
X0211777Y0064302D01*
X0213547Y0060127D02*
X0214066Y0060127D01*
X0214585Y0059608D01*
X0214585Y0059089D01*
X0213547Y0059089D02*
X0213288Y0059348D01*
X0220113Y0055966D02*
X0220632Y0055448D01*
X0220372Y0055707D02*
X0221929Y0057264D01*
X0221670Y0057523D02*
X0222189Y0057004D01*
X0222768Y0058311D02*
X0223287Y0058311D01*
X0222768Y0058311D02*
X0222249Y0058830D01*
X0222249Y0059349D01*
X0222768Y0059868D01*
X0223287Y0059868D01*
X0223546Y0059609D01*
X0223806Y0058830D01*
X0224584Y0059609D01*
X0223546Y0060647D01*
X0224849Y0058825D02*
X0224590Y0058565D01*
X0224590Y0058046D01*
X0224071Y0058046D01*
X0223811Y0057787D01*
X0223811Y0057268D01*
X0224330Y0056749D01*
X0224849Y0056749D01*
X0225113Y0055966D02*
X0225632Y0055448D01*
X0225372Y0055707D02*
X0226929Y0057264D01*
X0226670Y0057523D02*
X0227189Y0057004D01*
X0228031Y0058048D02*
X0229588Y0059605D01*
X0229063Y0060130D02*
X0228285Y0060908D01*
X0227766Y0060908D01*
X0226728Y0059870D01*
X0226728Y0059351D01*
X0227506Y0058573D01*
X0229063Y0060130D01*
X0230626Y0058567D02*
X0228031Y0058048D01*
X0229069Y0057010D02*
X0230626Y0058567D01*
X0230891Y0057783D02*
X0231410Y0057783D01*
X0231929Y0057264D01*
X0231929Y0056745D01*
X0230891Y0055707D01*
X0230372Y0055707D01*
X0229853Y0056226D01*
X0229853Y0056745D01*
X0230372Y0057264D01*
X0230891Y0056745D01*
X0225887Y0057787D02*
X0225887Y0058306D01*
X0225368Y0058825D01*
X0224849Y0058825D01*
X0224590Y0058046D02*
X0224849Y0057787D01*
X0245581Y0059873D02*
X0245581Y0060911D01*
X0246619Y0061949D01*
X0247657Y0060911D02*
X0246619Y0059873D01*
X0245581Y0059873D01*
X0246884Y0059089D02*
X0246884Y0058570D01*
X0247403Y0058051D01*
X0247922Y0058051D01*
X0248444Y0057529D02*
X0248184Y0057270D01*
X0248444Y0057010D01*
X0248703Y0057270D01*
X0248444Y0057529D01*
X0249228Y0056745D02*
X0249228Y0056226D01*
X0249747Y0055707D01*
X0250266Y0055707D01*
X0250266Y0056745D02*
X0250007Y0057004D01*
X0249488Y0057004D01*
X0249228Y0056745D01*
X0250007Y0057004D02*
X0250007Y0057523D01*
X0250266Y0057783D01*
X0250785Y0057783D01*
X0251304Y0057264D01*
X0251304Y0056745D01*
X0252406Y0058048D02*
X0253963Y0059605D01*
X0253179Y0059870D02*
X0253179Y0060389D01*
X0252660Y0060908D01*
X0252141Y0060908D01*
X0252141Y0058832D01*
X0251622Y0058832D01*
X0251103Y0059351D01*
X0251103Y0059870D01*
X0252141Y0060908D01*
X0253179Y0059870D02*
X0252141Y0058832D01*
X0252406Y0058048D02*
X0253444Y0058048D01*
X0253444Y0057010D01*
X0255001Y0058567D01*
X0255266Y0057783D02*
X0255785Y0057783D01*
X0256304Y0057264D01*
X0256304Y0056745D01*
X0256045Y0056485D01*
X0255526Y0056485D01*
X0255007Y0057004D01*
X0254488Y0057004D01*
X0254228Y0056745D01*
X0254228Y0056226D01*
X0254747Y0055707D01*
X0255266Y0055707D01*
X0257143Y0058311D02*
X0257662Y0058311D01*
X0257143Y0058311D02*
X0256624Y0058830D01*
X0256624Y0059349D01*
X0256883Y0059609D01*
X0257402Y0059609D01*
X0257662Y0059349D01*
X0257402Y0059609D02*
X0257402Y0060128D01*
X0257662Y0060387D01*
X0258181Y0060387D01*
X0258700Y0059868D01*
X0258700Y0059349D01*
X0259224Y0058825D02*
X0258186Y0057787D01*
X0258186Y0057268D01*
X0258705Y0056749D01*
X0259224Y0056749D01*
X0260262Y0057787D01*
X0260262Y0058306D01*
X0259743Y0058825D01*
X0259224Y0058825D01*
X0261364Y0059090D02*
X0262402Y0058052D01*
X0262402Y0060128D01*
X0262662Y0060387D01*
X0263181Y0060387D01*
X0263700Y0059868D01*
X0263700Y0059349D01*
X0264224Y0058825D02*
X0264743Y0058825D01*
X0265262Y0058306D01*
X0265262Y0057787D01*
X0264224Y0056749D01*
X0263705Y0056749D01*
X0263186Y0057268D01*
X0263186Y0057787D01*
X0264224Y0058825D01*
X0265999Y0058830D02*
X0267556Y0060387D01*
X0267556Y0058830D01*
X0266518Y0059868D01*
X0267821Y0058046D02*
X0267561Y0057787D01*
X0267561Y0057268D01*
X0268080Y0056749D01*
X0268599Y0056749D01*
X0268863Y0055966D02*
X0269382Y0055448D01*
X0269122Y0055707D02*
X0270679Y0057264D01*
X0270420Y0057523D02*
X0270939Y0057004D01*
X0271781Y0058048D02*
X0273338Y0059605D01*
X0272813Y0060130D02*
X0272035Y0060908D01*
X0271516Y0060908D01*
X0270478Y0059870D01*
X0270478Y0059351D01*
X0271256Y0058573D01*
X0272813Y0060130D01*
X0274376Y0058567D02*
X0271781Y0058048D01*
X0272819Y0057010D02*
X0274376Y0058567D01*
X0274641Y0057783D02*
X0275160Y0057783D01*
X0275679Y0057264D01*
X0275679Y0056745D01*
X0274641Y0055707D01*
X0274122Y0055707D01*
X0273603Y0056226D01*
X0273603Y0056745D01*
X0274122Y0057264D01*
X0274641Y0056745D01*
X0269637Y0057787D02*
X0269637Y0058306D01*
X0269118Y0058825D01*
X0268599Y0058825D01*
X0268340Y0058565D01*
X0268340Y0058046D01*
X0267821Y0058046D01*
X0268340Y0058046D02*
X0268599Y0057787D01*
X0266564Y0057004D02*
X0266045Y0057523D01*
X0266304Y0057264D02*
X0264747Y0055707D01*
X0265007Y0055448D02*
X0264488Y0055966D01*
X0261564Y0057004D02*
X0261045Y0057523D01*
X0261304Y0057264D02*
X0259747Y0055707D01*
X0260007Y0055448D02*
X0259488Y0055966D01*
X0256099Y0059874D02*
X0255580Y0059874D01*
X0255061Y0060393D01*
X0255061Y0060912D01*
X0255321Y0061171D01*
X0255840Y0061171D01*
X0256099Y0060912D01*
X0255840Y0061171D02*
X0255840Y0061690D01*
X0256099Y0061950D01*
X0256618Y0061950D01*
X0257137Y0061431D01*
X0257137Y0060912D01*
X0248960Y0059608D02*
X0248441Y0060127D01*
X0247922Y0060127D01*
X0247663Y0059867D01*
X0247663Y0059348D01*
X0247144Y0059348D01*
X0246884Y0059089D01*
X0247663Y0059348D02*
X0247922Y0059089D01*
X0248960Y0059089D02*
X0248960Y0059608D01*
X0197554Y0057264D02*
X0197554Y0056745D01*
X0196516Y0055707D01*
X0195997Y0055707D01*
X0195478Y0056226D01*
X0195478Y0056745D01*
X0195997Y0057264D01*
X0196516Y0056745D01*
X0196516Y0057783D02*
X0197035Y0057783D01*
X0197554Y0057264D01*
X0196251Y0058567D02*
X0193656Y0058048D01*
X0195213Y0059605D01*
X0194688Y0060130D02*
X0193910Y0060908D01*
X0193391Y0060908D01*
X0192353Y0059870D01*
X0192353Y0059351D01*
X0193131Y0058573D01*
X0194688Y0060130D01*
X0196251Y0058567D02*
X0194694Y0057010D01*
X0192554Y0057264D02*
X0192035Y0057783D01*
X0191516Y0057783D01*
X0191257Y0057523D01*
X0191257Y0057004D01*
X0190738Y0057004D01*
X0190478Y0056745D01*
X0190478Y0056226D01*
X0190997Y0055707D01*
X0191516Y0055707D01*
X0191516Y0056745D02*
X0191257Y0057004D01*
X0192554Y0056745D02*
X0192554Y0057264D01*
X0189953Y0057270D02*
X0189694Y0057529D01*
X0189434Y0057270D01*
X0189694Y0057010D01*
X0189953Y0057270D01*
X0189172Y0058051D02*
X0188653Y0058051D01*
X0188134Y0058570D01*
X0188134Y0059089D01*
X0188394Y0059348D01*
X0188913Y0059348D01*
X0189172Y0059089D01*
X0188913Y0059348D02*
X0188913Y0059867D01*
X0189172Y0060127D01*
X0189691Y0060127D01*
X0190210Y0059608D01*
X0190210Y0059089D01*
X0188907Y0060911D02*
X0187869Y0059873D01*
X0186831Y0059873D01*
X0186831Y0060911D01*
X0187869Y0061949D01*
X0185472Y0059346D02*
X0185991Y0058827D01*
X0185991Y0058308D01*
X0185732Y0058048D01*
X0185213Y0058048D01*
X0184694Y0058567D01*
X0184175Y0058567D01*
X0183915Y0058308D01*
X0183915Y0057789D01*
X0184434Y0057270D01*
X0184953Y0057270D01*
X0185219Y0056485D02*
X0186776Y0058042D01*
X0187814Y0057004D02*
X0186257Y0055448D01*
X0186257Y0056485D01*
X0185219Y0056485D01*
X0182872Y0058313D02*
X0181834Y0059351D01*
X0181569Y0060135D02*
X0180531Y0061173D01*
X0180006Y0061698D02*
X0178968Y0062736D01*
X0178444Y0063261D02*
X0177665Y0064039D01*
X0177665Y0064558D01*
X0178703Y0065596D01*
X0179222Y0065596D01*
X0180000Y0064818D01*
X0178444Y0063261D01*
X0180266Y0062995D02*
X0180785Y0062476D01*
X0181563Y0063255D02*
X0180006Y0061698D01*
X0181563Y0063255D02*
X0180525Y0064293D01*
X0183126Y0061692D02*
X0181569Y0060135D01*
X0184953Y0059346D02*
X0185472Y0059346D01*
X0180752Y0124216D02*
X0180018Y0124216D01*
X0180385Y0124216D02*
X0180385Y0126418D01*
X0180752Y0126418D02*
X0180018Y0126418D01*
X0179278Y0126051D02*
X0179278Y0124583D01*
X0178911Y0124216D01*
X0178178Y0124216D01*
X0177811Y0124583D01*
X0177069Y0125317D02*
X0175601Y0125317D01*
X0175968Y0126418D02*
X0177069Y0125317D01*
X0177811Y0126051D02*
X0178178Y0126418D01*
X0178911Y0126418D01*
X0179278Y0126051D01*
X0175968Y0126418D02*
X0175968Y0124216D01*
D12*
X0172679Y0122033D02*
X0167679Y0117033D01*
X0167679Y0122033D01*
X0172679Y0122033D01*
X0172209Y0121563D02*
X0167679Y0121563D01*
X0167679Y0122033D02*
X0167679Y0097033D01*
X0192679Y0097033D01*
X0192679Y0122033D01*
X0167679Y0122033D01*
X0167679Y0121065D02*
X0171710Y0121065D01*
X0171212Y0120566D02*
X0167679Y0120566D01*
X0167679Y0120068D02*
X0170713Y0120068D01*
X0170215Y0119569D02*
X0167679Y0119569D01*
X0167679Y0119071D02*
X0169716Y0119071D01*
X0169218Y0118572D02*
X0167679Y0118572D01*
X0167679Y0118074D02*
X0168719Y0118074D01*
X0168221Y0117575D02*
X0167679Y0117575D01*
X0167679Y0117077D02*
X0167722Y0117077D01*
X0235007Y0139922D02*
X0310597Y0139922D01*
X0310597Y0069056D01*
X0235007Y0069056D01*
X0235007Y0139922D01*
X0266503Y0110395D02*
X0286188Y0110395D01*
X0286188Y0090710D01*
X0266503Y0090710D01*
X0266503Y0110395D01*
X0310597Y0139922D02*
X0335400Y0139922D01*
X0335400Y0069056D01*
X0310597Y0069056D01*
D13*
X0307826Y0077568D02*
X0303923Y0077568D01*
X0303923Y0080170D01*
X0304573Y0081435D02*
X0303923Y0082086D01*
X0303923Y0083387D01*
X0304573Y0084038D01*
X0305224Y0084038D01*
X0305874Y0083387D01*
X0305874Y0082086D01*
X0306525Y0081435D01*
X0307175Y0081435D01*
X0307826Y0082086D01*
X0307826Y0083387D01*
X0307175Y0084038D01*
X0307826Y0085303D02*
X0303923Y0085303D01*
X0305224Y0085303D02*
X0305224Y0087254D01*
X0305874Y0087905D01*
X0307175Y0087905D01*
X0307826Y0087254D01*
X0307826Y0085303D01*
X0307175Y0089170D02*
X0307826Y0089820D01*
X0307826Y0091122D01*
X0307175Y0091772D01*
X0306525Y0091772D01*
X0305874Y0091122D01*
X0305224Y0091772D01*
X0304573Y0091772D01*
X0303923Y0091122D01*
X0303923Y0089820D01*
X0304573Y0089170D01*
X0305874Y0090471D02*
X0305874Y0091122D01*
X0307175Y0093037D02*
X0307826Y0093688D01*
X0307826Y0094989D01*
X0307175Y0095639D01*
X0306525Y0095639D01*
X0303923Y0093037D01*
X0303923Y0095639D01*
X0305874Y0096905D02*
X0305874Y0099507D01*
X0303923Y0100772D02*
X0307826Y0100772D01*
X0307826Y0103374D02*
X0303923Y0103374D01*
X0305224Y0102073D01*
X0303923Y0100772D01*
X0303923Y0104639D02*
X0307826Y0104639D01*
X0307826Y0106591D01*
X0307175Y0107241D01*
X0305874Y0107241D01*
X0305224Y0106591D01*
X0305224Y0104639D01*
X0305224Y0105940D02*
X0303923Y0107241D01*
X0304573Y0108506D02*
X0303923Y0109157D01*
X0303923Y0110458D01*
X0304573Y0111109D01*
X0307175Y0111109D01*
X0307826Y0110458D01*
X0307826Y0109157D01*
X0307175Y0108506D01*
X0304573Y0108506D01*
X0304573Y0112374D02*
X0303923Y0113024D01*
X0303923Y0114325D01*
X0304573Y0114976D01*
X0307175Y0114976D01*
X0307826Y0114325D01*
X0307826Y0113024D01*
X0307175Y0112374D01*
X0304573Y0112374D01*
X0303923Y0116241D02*
X0307826Y0116241D01*
X0306525Y0117542D01*
X0307826Y0118843D01*
X0303923Y0118843D01*
X0305874Y0120108D02*
X0305874Y0122711D01*
X0304573Y0123976D02*
X0303923Y0124626D01*
X0303923Y0125927D01*
X0304573Y0126578D01*
X0305224Y0126578D01*
X0305874Y0125927D01*
X0305874Y0125277D01*
X0305874Y0125927D02*
X0306525Y0126578D01*
X0307175Y0126578D01*
X0307826Y0125927D01*
X0307826Y0124626D01*
X0307175Y0123976D01*
X0307175Y0127843D02*
X0307826Y0128493D01*
X0307826Y0129795D01*
X0307175Y0130445D01*
X0306525Y0130445D01*
X0303923Y0127843D01*
X0303923Y0130445D01*
X0307826Y0080170D02*
X0307826Y0077568D01*
X0305874Y0077568D02*
X0305874Y0078869D01*
D14*
X0316507Y0074056D02*
X0330007Y0074056D01*
X0330007Y0084056D01*
X0320007Y0084056D01*
X0320007Y0094056D01*
X0330007Y0094056D01*
X0330007Y0104056D01*
X0320007Y0104056D01*
X0320007Y0114056D01*
X0330007Y0114056D01*
X0330007Y0124056D01*
X0313757Y0124056D01*
X0313757Y0134056D02*
X0330007Y0134056D01*
X0330007Y0124056D01*
D15*
X0216082Y0079208D02*
X0212681Y0079208D01*
X0212681Y0076405D02*
X0216082Y0076405D01*
X0216082Y0069833D02*
X0212681Y0069833D01*
X0212681Y0067030D02*
X0216082Y0067030D01*
D16*
X0216882Y0068431D03*
X0211882Y0068431D03*
X0211882Y0077806D03*
X0216882Y0077806D03*
D17*
X0191006Y0096443D02*
X0169352Y0096443D01*
X0169352Y0122624D01*
X0191006Y0122624D01*
X0191006Y0096443D01*
D18*
X0190021Y0098904D02*
X0170336Y0098904D01*
X0170336Y0120163D01*
X0190021Y0120163D01*
X0190021Y0098904D01*
X0170435Y0114750D02*
X0175750Y0120065D01*
D19*
X0170336Y0114947D02*
X0170336Y0104120D01*
X0190021Y0104120D01*
X0190021Y0114947D01*
X0170336Y0114947D01*
D20*
X0189825Y0098411D02*
X0189827Y0098455D01*
X0189833Y0098499D01*
X0189843Y0098542D01*
X0189856Y0098584D01*
X0189874Y0098624D01*
X0189895Y0098663D01*
X0189919Y0098700D01*
X0189946Y0098735D01*
X0189977Y0098767D01*
X0190010Y0098796D01*
X0190046Y0098822D01*
X0190084Y0098844D01*
X0190124Y0098863D01*
X0190165Y0098879D01*
X0190208Y0098891D01*
X0190251Y0098899D01*
X0190295Y0098903D01*
X0190339Y0098903D01*
X0190383Y0098899D01*
X0190426Y0098891D01*
X0190469Y0098879D01*
X0190510Y0098863D01*
X0190550Y0098844D01*
X0190588Y0098822D01*
X0190624Y0098796D01*
X0190657Y0098767D01*
X0190688Y0098735D01*
X0190715Y0098700D01*
X0190739Y0098663D01*
X0190760Y0098624D01*
X0190778Y0098584D01*
X0190791Y0098542D01*
X0190801Y0098499D01*
X0190807Y0098455D01*
X0190809Y0098411D01*
X0190807Y0098367D01*
X0190801Y0098323D01*
X0190791Y0098280D01*
X0190778Y0098238D01*
X0190760Y0098198D01*
X0190739Y0098159D01*
X0190715Y0098122D01*
X0190688Y0098087D01*
X0190657Y0098055D01*
X0190624Y0098026D01*
X0190588Y0098000D01*
X0190550Y0097978D01*
X0190510Y0097959D01*
X0190469Y0097943D01*
X0190426Y0097931D01*
X0190383Y0097923D01*
X0190339Y0097919D01*
X0190295Y0097919D01*
X0190251Y0097923D01*
X0190208Y0097931D01*
X0190165Y0097943D01*
X0190124Y0097959D01*
X0190084Y0097978D01*
X0190046Y0098000D01*
X0190010Y0098026D01*
X0189977Y0098055D01*
X0189946Y0098087D01*
X0189919Y0098122D01*
X0189895Y0098159D01*
X0189874Y0098198D01*
X0189856Y0098238D01*
X0189843Y0098280D01*
X0189833Y0098323D01*
X0189827Y0098367D01*
X0189825Y0098411D01*
D21*
X0183761Y0168315D03*
X0183761Y0168315D03*
D22*
X0183761Y0146815D03*
X0183761Y0146815D03*
X0192861Y0146815D03*
X0192861Y0146815D03*
X0174661Y0146815D03*
X0174661Y0146815D03*
M02*
