%
M48
M72
T01C0.0118
T02C0.0138
T03C0.0236
T04C0.0827
%
T01
X8876Y6593
X9688Y6656
X11938Y6593
X14063Y6593
X18126Y8406
X18938Y8843
X19376Y9343
X18126Y10093
X18001Y10718
X18461Y10718
X18001Y11093
X17563Y11093
X17563Y10718
X20063Y12218
X19563Y12656
X18251Y12656
X16156Y13952
X15063Y15281
X11563Y15281
X9501Y15281
X8376Y15281
X20938Y12656
X22188Y12656
X23188Y13781
X24063Y14968
X25376Y14968
X26126Y14906
X25563Y15781
X27751Y15406
X26126Y13156
X25063Y13093
X24591Y12565
X26688Y12031
X27126Y10531
X27626Y10531
X28126Y10531
X28126Y10031
X27626Y10031
X27126Y10031
X27126Y9531
X27626Y9531
X28126Y9531
X28876Y8343
X28469Y8156
X28063Y7843
X28938Y7812
X29251Y7843
X30211Y8334
X26813Y8406
X25751Y8187
X24681Y9475
X29188Y11968
X29876Y11968
X27376Y6156
X27001Y6156
X28014Y5644
X28019Y4348
X30209Y5653
X30063Y6093
X25746Y5762
T02
X22751Y17343
X20436Y17343
T03
X20505Y15906
X20997Y15906
X22950Y15906
X23442Y15906
X23934Y15906
X24426Y15906
X26391Y15904
X26884Y15908
X27376Y15906
X27868Y15906
X28360Y15906
X14481Y15791
X14483Y16283
X14479Y16775
X12236Y16775
X12240Y16283
X12238Y15791
X12238Y15298
X12238Y14806
X14481Y14806
X14481Y15298
X10058Y15298
X10058Y14806
X10058Y15791
X10060Y16283
X10056Y16775
X7814Y16775
X7818Y16283
X7816Y15791
X7816Y15298
X7816Y14806
X8241Y7067
X8241Y6575
X8241Y6083
X8239Y5591
X8243Y5099
X10423Y5099
X10419Y5591
X10421Y6083
X10421Y6575
X10421Y7067
X12601Y7067
X12601Y6575
X12601Y6083
X12599Y5591
X12603Y5099
X14783Y5099
X14779Y5591
X14781Y6083
X14781Y6575
X14781Y7067
X18634Y5281
X19126Y5279
X19618Y5283
X21575Y5281
X22067Y5281
X22559Y5281
X23051Y5281
X25020Y5281
X25512Y5281
X26005Y5281
X26497Y5281
X26989Y5281
X27481Y5281
T04
X6038Y4818
X6038Y17023
X30054Y17023
X30054Y4818
M30
